<svg width="414" height="896" viewBox="0 0 414 896" fill="none" xmlns="http://www.w3.org/2000/svg">
<path fill-rule="evenodd" clip-rule="evenodd" d="M301.818 467.664C300.917 465.16 302.291 462.684 303.063 460.277C305.804 451.93 298.726 430.744 293.638 430.387C291.822 425.635 286.872 423.625 282.987 420.861C278.575 418.097 274.288 414.929 269.696 412.499C269.461 410.241 266.684 409.656 264.967 411.253C260.322 408.352 254.714 408.829 249.723 406.909C245.974 400.827 245.749 394.467 244.797 388.624C244.382 386.077 244.872 383.629 243.126 381.345C237.266 373.08 213.837 369.298 205.14 374.08C200.51 371.181 200.349 376.349 199.579 379.533C198.741 381.121 198.279 382.925 198.399 384.831C196.151 389.336 194.228 394.978 189.563 398.314C183.643 402.547 174.583 404.091 168.832 406.14C167.558 404.912 167.182 403.15 167.182 403.15C158.28 404.964 149.627 408.218 142.135 413.357C133.656 415.707 127.637 422.409 123.262 429.616C122.78 430.375 122.661 431.153 122.793 431.87C109.37 450.821 102.832 473.6 101.725 496.658C93.1621 501.6 105.296 546.841 108.131 556.237C108.134 556.236 108.137 556.235 108.14 556.233C110.006 559.553 112.07 568.993 116.826 568.31C120.048 571.96 125.246 571.298 129.663 571.618C128.917 574.325 129.241 577.434 130.073 580.124C131.056 583.326 136.028 583.482 136.766 580.008C180.702 588.832 225.928 582.555 270.427 584.24C283.296 584.452 296.16 584.966 308.99 585.989C310.797 586.133 312.647 584.335 312.541 582.565C310.055 553.676 307.824 515.683 305.009 487.074C304.339 480.549 303.823 473.954 301.818 467.664Z" fill="#EDB98A"/>
<path fill-rule="evenodd" clip-rule="evenodd" d="M167.226 403.342C167.21 403.279 167.195 403.215 167.182 403.15C158.281 404.964 149.628 408.218 142.135 413.357C133.657 415.707 127.637 422.409 123.262 429.616L123.204 429.711C122.771 430.44 122.667 431.183 122.793 431.87C109.37 450.821 102.833 473.6 101.725 496.658C93.1623 501.6 105.296 546.842 108.131 556.237L108.14 556.233C108.605 557.06 109.082 558.268 109.611 559.604C111.202 563.629 113.255 568.823 116.826 568.31C119.446 571.278 123.371 571.395 127.121 571.507C127.984 571.533 128.837 571.558 129.663 571.618C128.917 574.325 129.225 579.17 130.056 581.86C131.039 585.062 271.607 589 308.99 585.989C310.796 585.844 312.647 584.335 312.541 582.565C311.497 570.433 310.498 556.694 309.482 542.72C308.078 523.419 306.642 503.668 305.009 487.074C304.945 486.449 304.883 485.825 304.82 485.199C304.227 479.29 303.631 473.352 301.818 467.664C301.099 465.665 301.83 463.683 302.547 461.74C302.728 461.25 302.908 460.762 303.063 460.277C305.804 451.93 299.224 430.799 294.366 430.44L293.639 430.387C292.243 426.737 288.999 424.705 285.809 422.706C284.942 422.162 284.078 421.621 283.257 421.051L282.987 420.861C281.484 419.919 279.994 418.93 278.502 417.939C275.617 416.023 272.723 414.101 269.696 412.499C269.461 410.241 266.684 409.656 264.968 411.253C264.229 410.791 263.465 410.415 262.684 410.101L262.333 414.297C256.844 433.678 241.982 444.349 217.747 446.311C181.394 449.253 165.363 413.321 165.397 409.705C165.412 408.12 165.965 406.123 167.054 403.716L167.226 403.342ZM218.392 488.875L215.149 490.892C215.149 490.892 215.088 497.308 215.767 504.394C216.445 511.479 222.197 519.437 222.197 519.437C222.197 519.437 239.412 514.964 242.782 514.37C245.308 513.924 247.468 510.776 249.064 508.448C249.596 507.671 250.066 506.986 250.466 506.523C251.466 505.366 254.211 504.874 257.26 504.327C259.089 503.999 261.027 503.651 262.764 503.129C267.397 501.736 269.26 495.847 269.26 495.847C269.26 495.847 279.378 493.801 282.638 493.117C285.897 492.433 282.672 489.487 282.672 489.487L257.469 488.38C257.469 488.38 272.593 485.353 275.83 484.947C279.067 484.542 287.777 481.974 287.797 479.921C287.816 477.94 274.997 477.823 267.876 477.758C267.617 477.755 267.366 477.753 267.124 477.751C260.198 477.685 244.84 478.817 244.84 478.817L250.756 476.102C250.756 476.102 270.721 472.498 273.378 472.524C276.035 472.549 277.18 468.651 277.18 468.651C277.18 468.651 276.063 466.036 274.176 464.569C272.288 463.102 257.326 465.858 246.447 468.359C235.569 470.86 231.259 475.257 231.259 475.257L218.392 488.875Z" fill="#04154A"/>
<path fill-rule="evenodd" clip-rule="evenodd" d="M257.86 464.895L271.072 436.216C271.072 436.216 273.073 431.342 276.392 431.373C279.712 431.405 309.802 432.617 309.802 432.617C309.802 432.617 315.954 433.448 313.935 436.624C311.916 439.8 281.775 498.971 281.775 498.971L269.231 498.851L269.26 495.848L283.261 492.143C283.261 492.143 285.828 489.517 281.865 489.479C277.902 489.442 254.855 488.355 254.855 488.355L276.869 485.394L287.783 481.387L286.204 479.211L276.941 477.821L246.723 478.836L254.97 476.181L273.378 472.524C273.378 472.524 277.015 470.058 277.038 467.605C277.062 465.153 267.391 464.117 267.391 464.117L257.86 464.895Z" fill="#FDE546"/>
<path fill-rule="evenodd" clip-rule="evenodd" d="M200.34 375.816C200.47 375.478 200.984 375.528 200.99 375.908C201.115 384.026 198.965 393.923 192.306 399.342C188.888 402.123 184.391 403.368 180.259 404.809L179.793 404.973L172.492 407.568C170.556 408.256 168.464 409.323 166.769 408.308C168.116 411.683 169.241 415.148 170.89 418.404C172.943 422.457 175.436 426.17 178.498 429.556C190.629 442.968 209.99 447.208 227.436 443.478C236.42 441.557 245.179 437.838 251.361 430.962C256.06 425.736 258.797 418.687 259.493 411.715C259.309 411.742 259.116 411.739 258.918 411.695C256.72 411.201 254.508 410.02 252.58 408.863L252.395 408.752C250.54 407.63 248.608 406.348 247.286 404.62C245.973 402.905 244.631 397.339 244.631 397.339C244.271 395.248 243.954 391.087 244.035 388.978C244.043 388.779 244.942 388.67 245.036 388.877C245.85 390.676 246.081 394.614 246.704 396.484L246.83 396.858C247.496 398.811 248.06 401.187 249.464 402.774C252.1 405.754 256.107 407.043 259.681 408.559C259.97 405.222 265.397 405.351 265.295 408.834C265.289 409.023 265.279 409.211 265.27 409.399C265.696 409.634 266.105 409.903 266.488 410.162L266.861 410.416C268.273 411.379 269.696 412.296 271.202 413.116C274.116 414.705 277.206 415.972 280.194 417.417C283.217 418.879 286.041 420.614 288.673 422.683C289.91 423.654 291.094 424.688 292.216 425.785L292.521 426.085C293.589 427.151 294.981 428.344 295.582 429.737C295.714 430.044 296.386 430.762 296.753 430.789C302.453 431.211 308.139 431.784 313.799 432.616C315.264 432.831 315.837 433.58 315.283 434.776C313.38 438.889 305.927 455.315 303.945 459.723C304.14 462.978 303.798 466.803 303.971 470.058C304.225 474.808 304.571 479.557 304.995 484.296C306.511 501.246 308.894 518.121 311.032 535.003C312.102 543.452 313.07 551.912 314.025 560.374C314.507 564.65 314.91 568.93 315.211 573.222C315.336 575.011 315.448 576.801 315.545 578.591L315.628 580.179C315.744 582.178 316.037 584.088 314.763 585.791C314.185 586.563 312.879 586.988 312.138 586.098C311.206 584.978 310.864 584.145 310.787 582.686C310.729 581.568 310.723 580.446 310.682 579.328C310.593 576.904 310.476 574.481 310.334 572.059C310.051 567.217 309.722 562.376 309.333 557.541C307.971 540.588 305.235 523.75 303.468 506.835C302.578 498.307 301.969 489.766 301.685 481.198C301.543 476.919 301.518 472.641 301.602 468.36C301.633 466.761 301.725 465.17 301.852 463.583C298.904 470.001 295.808 476.356 292.575 482.624L291.809 484.109C289.76 488.07 287.658 492.047 285.205 495.777L284.784 496.413C283.79 497.928 282.43 500.319 280.64 500.783C279.393 501.106 277.876 500.856 276.601 500.82C275.336 500.784 274.069 500.767 272.805 500.704C271.387 500.635 270.036 500.439 268.668 500.062C268.441 500 268.226 499.933 268.031 499.848C266.629 502.055 264.266 503.725 261.857 504.688C259.928 505.459 257.909 505.981 255.887 506.463L255.173 506.631C253.005 507.14 250.529 507.369 249.29 509.41L249.002 509.883C248.08 511.388 247.198 512.71 245.686 513.781C244.06 514.935 242.139 515.652 240.227 516.206C238.269 516.773 236.267 517.202 234.28 517.664L233.738 517.79C232.427 518.1 231.103 518.383 229.799 518.721C229.243 518.865 228.677 519.013 228.13 519.192C227.491 519.401 227.024 519.733 226.518 520.094C226.051 521.642 224.111 522.466 222.523 522.343C221.689 522.278 220.943 521.993 220.266 521.579C219.067 522.562 217.75 523.44 216.53 524.35C214.82 525.624 213.105 526.889 211.38 528.142C207.823 530.725 204.239 533.273 200.619 535.77C194.194 540.202 187.632 544.427 180.961 548.492C178.179 550.187 175.379 551.879 172.552 553.529L172.851 553.641L173.444 553.868C174.846 554.397 176.405 555.246 176.662 556.862C176.866 558.143 176.131 559.018 174.844 559.162C173.315 559.333 172.137 558.261 171.195 557.239C170.78 556.789 170.314 556.37 169.916 555.906C169.754 555.717 169.63 555.499 169.521 555.271C166.732 556.852 163.913 558.378 161.051 559.803L160.335 560.157C153.238 563.639 146.326 567.463 139.17 570.844C137.303 571.726 135.029 572.678 132.661 573.319C133.265 575.713 133.23 578.333 133.223 580.756C133.216 583.118 129.398 583.07 129.501 580.721L129.55 579.587C129.638 577.679 129.771 575.699 130.249 573.847C123.28 574.915 116.353 572.384 115.066 571.631C113.646 570.802 112.361 569.483 111.294 568.261C109.01 565.645 107.437 562.52 106.045 559.379C103.063 552.651 100.974 545.47 99.4649 538.294C93.9009 511.837 96.6709 483.603 106.355 458.385C108.775 452.084 111.619 445.926 114.868 439.996L115.271 439.263C118.513 433.4 122.109 427.562 126.654 422.589C131.387 417.409 137.204 413.401 143.525 410.307C146.61 408.797 149.782 407.494 153.022 406.342C153.542 406.157 154.066 405.992 154.591 405.834C157.976 403.758 162.079 401.78 166.163 401.898C166.441 401.906 166.664 402.011 166.831 402.169C167.027 402.205 167.224 402.248 167.42 402.306C167.855 402.434 168.31 402.908 168.243 403.389L168.22 403.549C168.208 403.627 168.193 403.702 168.167 403.776C168.313 403.799 168.456 403.834 168.596 403.883C172.515 402.835 176.376 401.213 180.203 399.911L181.074 399.617C184.279 398.548 187.566 397.5 190.208 395.348C192.835 393.206 194.822 390.419 196.268 387.4C198.05 383.679 198.87 379.639 200.34 375.816ZM276.717 573.655C277.496 573.097 278.405 573.762 278.688 574.465C279.617 576.773 279.113 580.34 277.753 582.359C276.345 584.451 273.029 583.589 272.973 581.037C272.914 578.377 274.517 575.233 276.717 573.655ZM285.314 510.266C285.386 509.968 285.858 509.975 285.926 510.272C286.545 512.975 286.502 515.879 286.665 518.646L286.684 518.953C286.882 522.004 287.043 525.064 287.15 528.12C287.36 534.132 287.622 540.145 287.923 546.154C288.072 549.134 288.234 552.113 288.408 555.092C289.046 554.75 289.704 554.45 290.384 554.187C291.404 553.793 292.394 553.757 293.486 553.778C294.815 553.804 295.805 554.963 295.617 556.241C295.412 557.633 294.157 558.219 292.862 558.007C291.428 557.773 289.989 557.417 288.54 557.261C288.68 559.564 288.825 561.867 288.98 564.168C289.185 567.215 289.462 570.259 289.648 573.307C289.666 573.597 289.685 573.889 289.705 574.181C290.574 573.747 291.494 573.53 292.538 573.261L292.809 573.189C294.324 572.777 295.947 572.202 297.336 573.214C298.269 573.895 298.447 575.001 297.66 575.88C296.466 577.212 294.721 576.935 293.091 576.851L292.214 576.811C291.387 576.771 290.624 576.712 289.862 576.499C289.983 578.485 290.038 580.477 289.772 582.43C289.628 583.486 288.21 583.75 287.846 582.668C286.894 579.841 286.721 576.801 286.39 573.846C286.082 571.087 285.905 568.309 285.712 565.538L285.654 564.708C285.219 558.612 284.883 552.515 284.653 546.409C284.423 540.304 284.308 534.202 284.297 528.093C284.292 525.319 284.366 522.536 284.503 519.764L284.546 518.933C284.7 516.082 284.64 513.054 285.314 510.266ZM155.368 572.95C155.41 572.561 155.732 572.08 156.204 572.145C156.639 572.205 157.087 572.182 157.517 572.257C158.085 572.355 158.539 572.689 159.066 572.902C159.922 573.248 160.857 573.431 161.735 573.716C163.384 574.25 164.269 575.97 163.569 577.561C162.833 579.234 161.02 579.598 159.462 578.879C158.235 578.311 157.325 577.415 156.506 576.379L156.274 576.084C155.921 575.639 155.52 575.142 155.375 574.606C155.235 574.083 155.312 573.48 155.368 572.95ZM235.796 565.817C237.859 565.552 239.612 566.261 241.512 566.931L241.666 566.986C243.6 567.662 246.426 568.145 247.402 570.106C247.99 571.288 247.51 572.847 246.095 573.181C243.854 573.711 241.864 572.086 240.026 570.987L239.929 570.93C238.155 569.886 236.321 569.005 235.199 567.222C234.899 566.747 235.171 565.898 235.796 565.817ZM165.416 404.12C164.589 404.294 163.762 404.447 162.937 404.593C159.785 406.215 156.724 407.901 153.472 409.342C150.022 410.871 146.584 412.451 143.303 414.31C136.674 418.064 131.191 422.975 126.643 429.016C118.785 439.45 112.899 451.514 108.653 463.771C107.562 466.92 106.582 470.105 105.711 473.319C107.209 471.983 108.975 471.169 110.954 470.477C111.792 470.184 112.828 470.704 113.244 471.419C113.432 471.74 113.536 472.057 113.513 472.431C113.461 473.258 112.905 474.192 112 474.347C109.889 474.708 107.834 475.432 105.797 476.066C105.488 476.163 105.224 476.123 105.013 476.004C102.917 484.379 101.574 492.935 101.045 501.55C100.598 508.843 100.761 516.199 101.514 523.494C102.149 523.221 102.769 522.965 103.464 522.813C104.364 522.616 105.25 522.374 106.13 522.1C108.667 521.309 109.782 525.424 107.19 526.025C106.226 526.249 105.256 526.433 104.274 526.565C103.419 526.68 102.663 526.619 101.859 526.482C102.431 531.034 103.229 535.555 104.257 540.014L104.484 540.99C105.821 546.685 107.388 552.436 109.681 557.828C110.806 560.473 112.305 562.99 114.164 565.204C115.077 566.292 116.093 567.228 117.203 568.116C118.127 568.855 121.275 570.469 125.022 570.504C128.769 570.54 129.786 570.201 131.683 569.58C135.433 568.351 139.002 566.366 142.525 564.601L142.889 564.419C144.447 563.645 145.999 562.86 147.547 562.068C147.367 560.523 147.72 559.23 148.552 557.812C149.451 556.278 151.635 557.067 151.783 558.646L151.787 558.706C151.809 559.062 151.866 559.425 151.938 559.787C162.29 554.341 172.427 548.503 182.406 542.415C188.835 538.493 195.196 534.452 201.466 530.289C204.6 528.209 207.708 526.09 210.786 523.928C212.398 522.796 214.003 521.655 215.6 520.503C216.266 520.023 216.919 519.519 217.585 519.037C217.426 518.838 217.271 518.638 217.121 518.441C214.679 515.236 213.11 511.427 212.348 507.507C211.888 505.141 211.678 502.688 211.63 500.28L211.609 499.233C211.577 497.468 211.581 495.623 211.928 493.917C211.476 494.156 211.014 494.39 210.553 494.641C208.9 495.54 207.246 496.438 205.588 497.332C202.27 499.12 198.942 500.888 195.572 502.582C189.554 505.61 183.478 508.485 177.241 511.055L174.207 512.307C168.94 514.475 163.632 516.602 158.162 518.198C155.077 519.098 150.454 520.205 147.327 520.885C147.327 520.885 151.054 524.403 148.321 525.575C145.589 526.747 143.378 522.131 143.292 521.713C141.852 521.995 137.74 522.671 137.74 522.671C133.833 523.373 130.037 524.803 126.533 526.644C125.314 527.285 124.989 526.015 126.281 525.145C130.061 522.601 134.455 521.182 138.986 520L139.208 519.942C140.87 519.512 142.53 519.062 144.186 518.596C144.01 517.949 143.912 517.278 143.94 516.539C144.002 514.894 144.166 513.244 144.27 511.6C144.49 508.15 144.761 504.712 145.073 501.269C145.192 499.943 145.325 498.613 145.475 497.284C144.594 496.809 143.836 496.182 142.852 495.868L142.685 495.819C141.632 495.529 142.001 494.195 142.94 494.09C143.791 493.994 144.636 494.05 145.472 494.235C145.602 494.264 145.724 494.296 145.841 494.332C146.007 493.102 146.189 491.875 146.395 490.655C146.938 487.432 147.334 484.034 148.431 480.943C148.512 480.714 148.86 480.635 148.986 480.877C150.512 483.797 150.532 487.36 150.677 490.596L150.695 490.983C150.867 494.514 150.845 498.077 150.745 501.61C150.642 505.251 150.481 508.882 150.28 512.518C150.199 513.983 150.187 515.503 149.92 516.901C159.193 514.036 168.307 510.587 177.052 506.483C183.22 503.589 189.336 500.576 195.384 497.447C198.414 495.879 201.459 494.337 204.486 492.764C205.546 492.212 206.606 491.659 207.666 491.104L209.255 490.272C210.741 489.493 211.984 488.715 213.707 488.676C214.221 488.664 214.679 488.905 215.003 489.266C215.935 488.63 217.009 488.243 218.132 488.263C219.845 485.984 221.583 483.724 223.389 481.514L224.723 479.878C227.033 477.055 229.478 474.191 232.408 472.053C233.716 471.1 235.152 470.388 236.648 469.804C236.298 469.716 235.956 469.544 235.653 469.262C234.242 467.952 234.069 465.541 233.798 463.728C233.515 461.849 233.647 460.171 233.961 458.303C234.083 457.577 235.31 457.437 235.602 458.108C236.219 459.522 236.874 460.877 237.434 462.306L237.599 462.737C238.199 464.346 239.494 466.044 239.391 467.782C239.363 468.258 239.196 468.672 238.942 469.003C240.197 468.607 241.469 468.255 242.722 467.887C246.664 466.731 250.622 465.608 254.638 464.72C255.707 464.484 256.781 464.265 257.859 464.065C258.448 461.439 259.295 458.864 260.288 456.337C259.375 455.867 258.788 455.087 258.005 454.39C257.271 453.738 256.771 452.948 256.147 452.201C255.579 451.522 255.913 450.308 256.945 450.357L257.237 450.372C258.306 450.431 259.34 450.549 260.305 451.049L260.649 451.227C261.12 451.474 261.636 451.755 262.095 452.087C262.711 450.728 263.352 449.381 263.999 448.049L264.839 446.326C267.016 441.842 269.189 437.186 271.909 433.017C273.118 431.163 274.715 430.014 276.993 429.856C279.338 429.692 281.772 429.955 284.118 430.06C286.838 430.181 289.556 430.321 292.273 430.487C291.583 429.763 290.955 428.959 290.262 428.264C289.111 427.112 287.894 426.018 286.614 425.006C284.08 423.002 281.289 421.345 278.387 419.913C275.484 418.481 272.494 417.228 269.773 415.467C268.052 414.352 266.517 412.956 265.118 411.447C264.139 420.867 259.424 429.582 252.403 436.096C245.11 442.862 235.087 446.522 225.301 448.026C215.319 449.56 204.923 448.863 195.422 445.368C190.523 443.566 185.832 441.013 181.657 437.827C181.609 438.1 181.55 438.37 181.439 438.623C181.289 438.963 181.107 439.253 180.898 439.551L180.527 440.074C180.293 440.403 180.054 440.729 179.789 441.034C179.146 441.772 178.243 442.089 177.273 442.076C175.416 442.052 174.027 440.249 174.543 438.484C174.868 437.375 175.546 436.712 176.599 436.287C176.932 436.152 177.271 436.04 177.612 435.93L177.868 435.847C178.213 435.735 178.554 435.628 178.909 435.567C176.934 433.821 175.105 431.926 173.47 429.883C168.342 423.478 163.309 414.528 165.124 406.103C165.156 405.959 165.289 405.869 165.433 405.847C165.539 405.256 165.865 404.686 166.308 404.304C166.013 404.225 165.716 404.163 165.416 404.12ZM217.903 550.575C218.935 550.023 219.984 551.368 219.141 552.184L217.883 553.398C216.715 554.53 215.578 555.674 214.575 556.967L214.332 557.283C212.978 559.058 211.533 561.115 209.336 561.763C206.679 562.545 204.163 559.349 205.719 557.047C207.079 555.034 209.667 554.295 211.9 553.479C214.013 552.707 215.924 551.631 217.903 550.575ZM132.516 540.417C133.127 539.646 134.698 540.07 134.275 541.165C132.901 544.722 132.309 549.583 128.903 551.923C127.805 552.677 126.094 552.309 125.203 551.417C124.192 550.404 124.164 548.991 124.76 547.772C125.486 546.285 127.248 545.219 128.487 544.093L128.598 543.991C129.931 542.742 131.368 541.865 132.516 540.417ZM273.872 545.87C274.954 545.424 277.77 544.563 278.593 545.621C278.631 545.66 278.664 545.702 278.69 545.749C278.891 546.1 278.917 546.591 278.679 546.935C277.696 548.358 276.675 549.418 275.287 550.424L275.131 550.536C273.62 551.606 272.197 552.867 270.364 553.339C267.822 553.993 266.081 550.856 267.879 549.052C269.327 547.598 271.524 546.857 273.433 546.056L273.872 545.87ZM172.26 524.507C171.843 523.75 172.719 522.834 173.499 523.313C175.724 524.679 178.322 525.712 180.83 526.461C181.844 526.764 182.753 527.786 182.667 528.879L182.653 529.045C182.62 529.431 182.562 529.814 182.309 530.133C181.423 531.25 180.166 531.672 178.834 530.993C175.867 529.48 173.846 527.388 172.26 524.507ZM237.706 522.848C237.654 522.531 237.892 522.289 238.22 522.353C240.108 522.723 241.846 523.638 243.461 524.685C244.327 525.247 245.162 525.864 246.025 526.431C247.093 527.131 247.489 527.705 247.636 528.974C247.733 529.811 246.931 530.567 246.2 530.791C244.209 531.401 241.954 529.315 240.621 527.961L240.561 527.9C239.167 526.476 238.021 524.797 237.706 522.848ZM294.543 521.197C294.122 520.049 295.618 519.114 296.584 519.685C297.494 520.223 298.483 520.672 299.34 521.286C300.128 521.851 300.845 522.518 301.6 523.13L301.973 523.426C303.358 524.541 305.635 527.29 303.625 528.852C301.712 530.339 299.213 528.393 297.952 526.975L297.864 526.875C297.139 526.036 296.244 525.123 295.721 524.146C295.229 523.226 294.9 522.172 294.543 521.197ZM276.662 432.427C274.28 432.858 273.283 435.733 272.264 437.604C269.859 442.019 267.642 446.518 265.417 451.022C264.731 452.407 264.064 453.803 263.39 455.197C263.349 455.306 263.296 455.413 263.234 455.519C261.854 458.368 260.435 461.198 258.781 463.9C260.273 463.639 261.773 463.42 263.278 463.25C263.215 461.858 264.202 460.006 264.693 458.84L264.734 458.741C265.346 457.246 265.995 454.888 267.541 454.124C268.056 453.87 268.601 454.2 268.636 454.755C268.736 456.408 267.075 458.283 266.258 459.677C265.764 460.521 265.282 461.368 264.812 462.225C264.636 462.545 264.489 462.861 264.308 463.143C265.084 463.068 265.861 463.002 266.64 462.956L267.148 462.927C270.034 462.767 273.099 462.743 275.693 464.166C278.099 465.486 279.309 468.266 277.956 470.775C276.271 473.9 272.622 474.281 269.414 474.506C265.407 474.785 261.389 475.32 257.409 475.841C253.291 476.38 249.405 477.833 245.347 478.56C244.97 478.627 244.74 478.141 245.087 477.937C248.301 476.056 252.195 475.041 255.778 474.004L256.067 473.92C258.011 473.353 259.911 472.703 261.918 472.39C263.867 472.087 265.828 471.844 267.792 471.665L267.983 471.649C270.145 471.492 275.658 471.605 275.454 468.458C275.32 466.376 271.882 465.984 270.311 465.944C263.108 465.762 255.835 467.572 248.97 469.52L247.437 469.956C244.626 470.758 241.811 471.585 239.051 472.53C235.923 473.602 233.451 475.295 231.159 477.623C228.617 480.205 226.154 482.846 223.518 485.339C221.857 486.911 220.175 488.454 218.479 489.984C218.095 490.463 217.786 490.986 217.569 491.666C217.203 492.815 217.274 493.886 217.397 495.07C217.707 498.062 217.753 501.081 218.149 504.064C218.516 506.827 219.039 509.693 220.18 512.264C220.632 513.282 221.224 514.284 221.899 515.181L222.445 515.892C222.683 516.2 222.949 516.538 223.229 516.857C223.648 516.363 224.252 516.045 224.949 516.133C226.43 516.318 227.597 516.288 229.055 515.967C230.183 515.719 231.304 515.426 232.427 515.156C234.634 514.625 236.861 514.144 239.046 513.531L239.421 513.423C241.05 512.949 242.68 512.352 244.041 511.334C245.623 510.152 246.122 508.429 247.3 506.946C249.814 503.781 255.18 503.899 258.822 503.059C261.917 502.347 264.9 501.204 267.059 499.022L267.184 498.892C267.093 498.498 267.251 498.056 267.625 497.856L267.706 497.812C267.852 497.734 268.008 497.703 268.161 497.707C268.362 497.423 268.556 497.129 268.733 496.816C268.879 496.558 269.234 496.752 269.185 497.008C269.156 497.161 269.116 497.31 269.077 497.459C271.153 496.955 273.425 497.077 275.527 497.098L278.255 497.115C278.727 497.113 279.431 497.097 279.494 497.07L279.558 497.042C279.729 496.971 279.486 497.089 279.606 496.935C279.739 496.765 279.869 496.593 279.997 496.42C280.455 495.803 280.889 495.166 281.314 494.524C276.736 495.624 271.997 496.291 267.327 496.84C262.318 497.429 257.244 497.823 252.195 497.78C250.804 497.768 250.836 495.703 252.215 495.665C257.563 495.515 262.883 495.287 268.2 494.665C270.949 494.342 273.687 493.931 276.411 493.446C277.463 493.259 278.512 493.059 279.559 492.848L280.344 492.687C280.836 492.585 282.225 492.445 282.907 492.005C283.042 491.781 283.177 491.558 283.311 491.335C283.254 490.546 281.213 490.633 280.735 490.627C279.38 490.611 278.024 490.609 276.669 490.6C273.957 490.582 271.247 490.533 268.536 490.486C263.119 490.391 257.683 490.153 252.269 490.329C250.954 490.372 250.284 488.294 251.587 487.762C257.343 485.411 263.712 484.948 269.841 484.267C273.064 483.909 276.289 483.491 279.444 482.734L280.223 482.547C282.205 482.067 284.394 481.481 286.07 480.31C283.577 479.291 280.466 479.375 277.874 479.21L277.675 479.197C274.046 478.943 270.408 478.796 266.77 478.756C259.325 478.675 251.875 478.863 244.436 479.14C244.249 479.146 244.213 478.857 244.395 478.82C252.054 477.253 259.83 476.537 267.653 476.49C271.297 476.468 274.941 476.553 278.579 476.746L279.914 476.82C283.016 476.981 286.46 477.049 289.039 478.916C289.432 479.2 289.637 479.56 289.666 479.94C293.213 473.151 296.496 466.217 299.791 459.329C302.352 453.973 304.821 448.572 307.473 443.259L308.332 441.54C309.482 439.247 310.659 436.953 311.964 434.745C307.172 434.069 302.351 433.585 297.527 433.204C293.131 432.857 278.784 432.043 276.662 432.427ZM273.834 506.346C274.384 506.053 275.22 506.304 275.349 506.968C275.444 507.463 275.611 508.013 275.606 508.518C275.6 509.123 275.374 509.779 275.251 510.37C274.968 511.728 274.625 512.831 273.909 514.037C273.461 514.792 272.566 515.299 271.672 515.27C270.964 515.247 270.339 515.054 269.858 514.511C269.282 513.86 268.891 512.907 269.219 512.041C270.077 509.773 271.636 507.519 273.834 506.346ZM157.801 502.971C159.102 500.779 162.156 498.838 164.802 499.058C168.776 499.389 169.538 504.659 165.676 505.878C163.367 506.607 160.208 505.806 158.207 504.552C157.667 504.214 157.475 503.52 157.801 502.971ZM117.002 495.052C116.715 494.634 117.2 494.164 117.632 494.261C118.591 494.478 119.626 494.578 120.565 494.869C121.526 495.166 122.455 495.653 123.406 495.991C125.4 496.699 127.533 497.065 129.461 497.915C130.232 498.254 130.83 499.361 130.751 500.173L130.731 500.363C130.684 500.765 130.61 501.116 130.377 501.482C129.752 502.465 128.526 502.964 127.377 502.649C125.245 502.065 123.171 500.595 121.36 499.373L121.025 499.15C120.234 498.627 119.383 498.08 118.748 497.411C118.085 496.711 117.543 495.842 117.002 495.052ZM190.543 487.735C190.305 486.862 191.413 486.297 192.05 486.892C193.322 488.08 194.654 489.182 195.9 490.4L195.984 490.483C196.876 491.381 198.17 493.107 196.988 494.246C195.473 495.707 193.404 493.499 192.61 492.351C191.603 490.895 191.004 489.431 190.543 487.735ZM288.862 481.471C286.938 483.435 283.995 484.319 281.404 485.05C278.332 485.915 275.171 486.42 272.007 486.829C268.95 487.225 265.917 487.576 262.907 488.035C265.18 488.084 267.452 488.122 269.72 488.184C272.334 488.255 274.947 488.336 277.561 488.435C279.465 488.508 281.701 488.272 283.504 488.985C283.829 489.113 284.132 489.29 284.396 489.503C285.942 486.86 287.426 484.178 288.862 481.471ZM171.557 461.812C173.551 461.21 175.428 460.404 177.534 460.638C178.093 460.7 178.489 461.24 178.178 461.766C177.163 463.484 175.53 464.444 173.92 465.584L173.778 465.685C172.016 466.947 170.126 468.095 168.214 469.127C164.92 470.903 162.033 465.703 165.356 464.217C167.356 463.323 169.456 462.446 171.557 461.812ZM207.391 457.662C210.43 457.888 213.469 458.05 216.513 458.2C220.039 458.374 218.802 463.698 215.866 462.59C212.965 461.495 210.064 460.414 207.136 459.391C206.245 459.08 206.33 457.637 207.334 457.659L207.391 457.662ZM129.475 447.43C130.263 447.383 131.057 447.559 131.846 447.642L132.685 447.73C134.415 447.916 136.036 448.14 137.681 448.849C140.716 450.156 139.033 454.954 135.976 454.814C133.716 454.711 131.792 453.739 129.893 452.61C128.234 451.623 127.222 450.398 126.109 448.862C125.741 448.354 126.267 447.792 126.775 447.746C127.672 447.665 128.578 447.483 129.475 447.43ZM282.303 439.052C281.77 442.139 280.491 445.025 278.581 447.53C277.621 448.789 275.957 448.821 275.03 447.496C273.719 445.622 274.559 443.497 275.577 441.719L275.878 441.198C276.333 440.417 277.033 439.279 277.827 438.495L277.841 438.415C278.293 435.181 282.853 435.871 282.303 439.052ZM159.48 418.037C160.244 417.373 161.639 417.588 161.875 418.683C162.204 420.216 162.397 421.941 162.157 423.492C162.027 424.332 161.972 425.277 161.628 426.058C161.258 426.898 160.555 427.54 159.893 428.168C158.571 429.421 155.814 428.976 155.482 426.978L155.44 426.733C155.273 425.788 155.057 424.777 155.327 423.844C155.531 423.14 155.978 422.424 156.349 421.773L156.428 421.634C157.171 420.304 158.322 419.042 159.48 418.037ZM266.025 422.305L266.299 422.311C268.415 422.372 272.279 422.915 272.276 425.486C272.275 426.091 271.812 426.715 271.199 426.849C269.931 427.125 269.121 426.382 268.226 425.631C267.495 425.018 266.64 424.525 265.75 424.167C264.79 423.781 264.867 422.293 266.025 422.305Z" fill="black"/>
<path fill-rule="evenodd" clip-rule="evenodd" d="M267.297 319.738C266.684 310.838 267.854 301.526 264.452 293.04C258.515 278.956 241.537 274.118 228.391 268.652C223.119 267.063 205.331 266.679 199.16 264.584C185.194 259.842 181.899 254.318 170.683 262.988C168.79 264.469 167.598 266.087 166.719 268.305L166.755 268.315C166.501 269.241 166.755 270.169 167.3 270.882C162.427 275.695 160.338 282.961 162.753 289.453C170.675 306.363 170.208 315.462 167.432 333.533C163.87 350.395 171.582 356.64 184.364 365.955C183.831 366.951 183.709 368.279 184.384 369.169C199.07 389.907 227.036 400.008 251.176 389.783C260.976 385.598 265.43 375.403 268.004 366.191C270.999 355.877 271.992 344.988 269.735 334.431C268.83 329.55 267.637 324.701 267.297 319.738Z" fill="#EDB98A"/>
<path fill-rule="evenodd" clip-rule="evenodd" d="M160.949 293.495L169.742 299.385L201.729 266.798L191.267 258.527C191.267 258.527 172.011 272.265 168.217 275.903C164.422 279.541 160.949 293.495 160.949 293.495Z" fill="#9FD8E5"/>
<path fill-rule="evenodd" clip-rule="evenodd" d="M182.394 220.386C184.203 220.136 185.557 221.253 186.191 222.815L186.224 222.899C186.428 223.43 186.655 223.947 186.9 224.456C191.441 222.315 197.885 222.937 200.704 227.388C202.715 230.566 201.434 234.303 200.633 237.646L200.107 239.848C201.077 240.47 201.803 241.573 201.758 242.708L201.753 242.795L201.518 245.871C202.176 245.226 202.779 244.523 203.318 243.773C203.691 243.114 204.094 242.467 204.526 241.84C207.067 238.153 212.661 241.432 210.555 245.387C210.151 246.15 209.698 246.872 209.212 247.567C208.662 248.595 208.209 249.652 207.858 250.74C208.832 251.168 209.575 252.107 209.641 253.514C209.794 256.799 208.018 259.522 205.217 261.216C204.393 261.715 203.546 261.805 202.781 261.61C202.644 261.788 202.507 261.966 202.376 262.147C203.478 263.046 204.47 264.068 205.32 265.198C207.914 264.841 210.521 264.686 213.127 264.705C216.325 263.2 220.137 263.268 223.553 263.876C225.753 264.267 227.861 265.008 230.023 265.546C232.303 266.112 234.623 266.154 236.931 266.546C239.841 267.04 242.383 268.389 243.97 270.519C245.734 270.588 247.584 271.317 249.114 272.298C252.676 274.583 256.217 276.899 259.77 279.198C261.133 280.081 261.633 281.474 261.366 283.02L261.348 283.119L261.221 283.76L261.501 284.158C262.58 285.69 263.755 287.295 264.447 288.981C265.739 290.853 266.904 292.814 267.934 294.835C269.321 297.55 270.46 300.425 271.222 303.372C271.412 304.117 271.601 304.868 271.723 305.627C271.898 306.7 271.605 307.527 271.44 308.553C271.234 309.853 271.151 311.171 270.933 312.474C270.786 313.337 270.036 313.755 269.255 313.771C269.527 315.975 269.718 318.193 269.9 320.394C270.155 323.538 270.318 326.69 270.456 329.842C271.308 331.086 273.064 332.08 274.335 332.431C276.096 332.913 277.951 332.425 279.625 331.848C280.677 331.484 281.525 332.791 281.006 333.654C279.374 336.364 275.937 336.32 273.346 335.089C272.25 334.569 271.29 333.822 270.583 332.855C270.618 333.77 270.657 334.684 270.695 335.602L270.731 336.433C271.168 346.138 272.215 356.183 270.273 365.77C266.91 382.376 252.811 394.911 235.726 395.732C226.76 396.163 219.323 393.485 215.627 391.996C211.93 390.506 213.4 387.555 215.968 388.427C220.391 389.93 228.523 392.182 235.827 391.312C253.042 389.262 267.702 380.937 266.551 344.467C266.388 339.296 265.783 334.117 265.691 328.946C265.604 323.891 265.702 318.835 265.524 313.782L265.465 312.058C265.396 310.043 265.321 308.02 265.187 306.002C265.009 305.219 264.864 304.425 264.645 303.656C264.051 301.565 263.269 299.529 262.291 297.585C262.069 297.747 261.822 297.864 261.554 297.907C259.521 298.247 257.619 298.127 255.726 297.276C254.843 296.883 254.066 296.364 253.344 295.723C253 295.422 252.771 295.13 252.592 294.828C251.672 294.834 250.756 294.553 250.186 293.896C249.537 293.148 249.435 292.381 249.699 291.674L249.726 291.604L249.662 291.58C248.868 293.548 247.306 295.272 245.6 296.431C242.904 298.268 239.547 298.774 236.334 298.793C232.785 298.811 229.048 298.238 225.553 297.655C224.629 297.501 223.711 297.328 222.811 297.096C222.776 297.131 222.74 297.171 222.702 297.205C219.67 300.009 215.437 300.697 211.64 299.044C209.446 298.089 207.612 296.567 205.996 294.827C205.964 295.729 205.908 296.632 205.82 297.525L205.784 297.879C205.606 299.543 205.276 301.306 203.987 302.495C201.904 304.422 198.915 303.613 196.545 302.323C196.548 302.384 196.547 302.447 196.547 302.511C197.169 304.669 197.795 306.831 198.421 308.992L198.555 309.452C199.011 310.987 199.512 312.524 199.638 314.127C199.879 317.191 197.782 320.194 194.338 319.134C192.531 318.58 191.094 317.066 189.713 315.851L188.842 315.095C191.043 322.427 192.546 330.012 192.62 337.642C192.625 338.056 192.261 338.365 191.861 338.376C190.927 338.404 189.924 338.213 188.987 337.836C188.935 337.833 188.882 337.829 188.826 337.82C187.225 337.576 185.741 336.992 184.436 336.138C184.729 337.087 184.855 338.104 184.765 339.164C184.742 339.422 184.333 339.508 184.277 339.223C183.554 335.545 179.219 332.73 175.453 333.397C171.41 334.113 168.405 337.504 167.64 341.388C166.819 345.561 168.268 350.409 171.007 353.661C172.267 355.16 173.933 356.417 175.921 356.749C176.83 356.899 177.777 356.859 178.663 356.613C179.04 356.506 179.394 356.356 179.754 356.215C180.278 356.012 180.89 355.986 181.385 355.771C182.509 355.287 183.624 356.313 183.047 357.438C182.544 358.42 182.094 359.081 181.27 359.583C181.926 360.387 182.517 361.504 182.738 361.804C183.863 363.331 185.007 364.774 186.292 366.172C187.6 367.59 189.03 368.888 190.543 370.092L191.179 370.596C192.636 371.757 193.905 372.832 194.925 374.488C195.729 375.794 194.655 377.546 193.125 377.511C188.338 377.399 184.897 373.223 182.452 369.581C182.105 369.06 181.778 368.51 181.475 367.946C181.362 368.121 181.237 368.285 181.097 368.434L181.364 369.16C182.154 371.296 178.648 372.655 177.654 370.658C176.931 369.21 176.089 367.831 175.15 366.526C174.589 366.442 174.043 366.101 173.742 365.665C172.98 364.555 172.124 363.433 171.404 362.252C171.002 361.869 170.589 361.5 170.166 361.14C170.042 361.246 169.914 361.352 169.793 361.464C169.247 362.659 168.576 363.749 167.746 364.774L167.569 364.993C165.98 366.927 163.916 368.902 161.382 369.354C160.608 369.492 159.874 368.539 160.564 367.94C162.35 366.389 164.454 365.342 166.104 363.607C166.916 362.753 167.664 361.81 168.309 360.821L168.456 360.592C168.563 360.422 168.674 360.253 168.787 360.08C168.054 359.578 167.322 359.074 166.589 358.569C164.544 360.258 161.893 361.014 159.635 362.407L159.411 362.548C157.368 363.866 155.258 360.889 156.901 359.281C158.712 357.516 160.229 355.405 161.837 353.439C161.103 352.076 160.764 350.47 160.647 348.849C160.599 348.39 160.563 347.931 160.526 347.471C159.387 347.478 158.245 347.082 157.282 346.411L156.917 346.15C155.736 346.509 154.498 346.676 153.314 346.633C150.531 346.526 149.421 343.382 151.181 341.417C152.978 339.409 156.092 338.996 158.547 340.003C158.627 339.963 158.709 339.921 158.789 339.878C158.677 339.344 158.707 338.862 158.845 338.439L158.809 338.18C158.275 337.356 157.927 336.418 157.802 335.428C157.702 334.645 157.731 333.87 157.922 333.099C157.986 332.842 158.116 332.577 158.215 332.31C158.02 331.81 157.907 331.293 157.876 330.775C157.82 330.709 157.765 330.641 157.713 330.568C156.506 328.865 156.772 326.83 157.949 325.473C157.955 325.386 157.964 325.299 157.977 325.213C157.911 325.061 157.849 324.908 157.794 324.753C156.668 323.613 155.846 322.245 156.018 320.562C156.118 319.572 156.54 318.684 157.173 318.023C157.065 317.699 157.058 317.324 157.195 317.012C156.221 314.386 156.377 311.236 157.124 308.316C156.97 307.869 156.892 307.385 156.915 306.873C157.018 304.701 158.946 302.723 161.207 302.771C161.479 302.776 161.734 302.813 161.978 302.867L161.982 302.815C162.075 302.164 162.263 301.563 162.534 301.025C162.404 300.977 162.283 300.909 162.178 300.819C160.722 301.567 159.183 302.134 157.571 302.515C156.386 302.796 155.188 301.461 155.933 300.375C156.279 299.871 156.659 299.419 157.069 299.007C156.492 299.005 155.907 299.038 155.314 299.107C154.25 299.233 153.07 298.507 152.389 297.534C151.523 298.348 150.655 299.158 149.787 299.969C147.588 302.028 144.31 300.466 143.992 297.721C143.345 297.544 142.742 297.249 142.215 296.83C138.764 298.267 135.059 299.039 131.277 299.156C128.562 299.24 127.006 296.112 128.295 293.926C129.161 292.459 130.231 291.144 131.461 290.004C129.564 290.556 127.607 290.948 125.61 291.192C124.531 291.324 123.015 290.43 122.592 289.451C120.977 285.686 121.156 281.779 123.091 278.15C123.165 278.006 123.249 277.868 123.33 277.729C123.531 277.248 123.75 276.773 123.986 276.306C121.671 273.883 121.503 270.311 122.791 267.335C122.294 266.523 122.109 265.549 122.461 264.673C123.463 262.151 124.895 259.827 126.694 257.837C126.527 257.511 126.38 257.165 126.258 256.794C125.285 253.79 126.479 250.188 128.84 248.125C130.324 246.825 132.023 246.055 133.834 245.568C134.608 244.251 135.597 243.065 136.746 242.069C136.791 241.974 136.836 241.879 136.887 241.784C138.692 238.509 141.94 236.775 145.407 236.4C145.554 235.114 146.447 233.893 147.731 233.506C148.094 232.396 148.63 231.336 149.362 230.377C150.513 228.866 152.408 228.167 154.179 229.182C155.149 229.738 156.077 230.374 156.946 231.077C157.34 230.899 157.787 230.786 158.29 230.753L158.417 230.747L161.315 230.629C162.533 230.112 163.748 229.568 164.966 229.038C165.7 228.452 166.519 227.965 167.409 227.606C168.418 227.202 169.448 226.978 170.48 226.909C171.319 226.648 172.164 226.419 173.024 226.242C175.043 225.827 177.154 225.604 179.245 225.645C179.293 225.112 179.319 224.573 179.32 224.027L179.319 223.753C179.289 222.003 180.72 220.619 182.394 220.386ZM179.032 360.394C178.744 360.452 178.452 360.499 178.161 360.531C178.247 360.746 178.333 360.961 178.417 361.176C178.65 361.308 178.887 361.435 179.124 361.553C179.057 361.158 179.02 360.762 179.032 360.394ZM163.984 355.834L163.785 356.187C163.753 356.244 163.722 356.301 163.69 356.357C164.105 356.329 164.522 356.342 164.933 356.392L164.932 356.349C164.879 356.331 164.826 356.314 164.776 356.29C164.494 356.153 164.231 356 163.984 355.834ZM172.293 339.755C174.89 339.928 177.088 340.342 179.441 341.484L179.643 341.584C181.721 342.625 185.158 344.544 184.841 347.246C184.751 348.014 184.177 348.819 183.285 348.75C180.839 348.562 179.465 346.118 177.822 344.587C176.166 343.043 174.128 341.453 172.114 340.384C171.829 340.233 171.946 339.766 172.258 339.754L172.293 339.755ZM160.849 304.006C160.226 304.02 160.429 304.618 160.754 304.123C160.78 304.083 160.813 304.043 160.849 304.006ZM194.838 264.542C188.94 264.639 182.972 268.012 178.521 271.437C174.649 274.416 171.297 277.971 168.321 281.81C167.547 283.728 166.879 285.687 166.312 287.662C165.938 288.967 165.699 290.286 165.384 291.603L165.287 292.006C165.045 292.441 164.864 292.91 164.731 293.395C165.261 293.929 165.952 294.315 166.715 294.501C166.961 294.562 167.165 294.689 167.325 294.856C167.95 293.85 168.498 292.787 168.822 291.658L168.834 291.606C170.036 289.708 171.338 287.871 172.733 286.098C176.581 281.201 180.809 276.746 185.876 273.053C189.718 270.254 194.004 268.073 198.553 266.673C197.451 265.78 196.197 265.071 194.838 264.542Z" fill="black"/>
<path fill-rule="evenodd" clip-rule="evenodd" d="M245.994 362.983C249.488 363.016 250.963 363.589 253.223 364.923C255.484 366.258 257.898 367.973 258.448 370.513C258.962 372.88 257.885 375.171 255.541 376.05C254.23 376.541 239.167 377.578 236.804 377.71C234.441 377.842 232.19 377.63 230.688 376.07C226.808 372.039 232.298 366.913 235.793 365.035C238.914 363.356 242.5 362.95 245.994 362.983ZM245.16 365.669C242.532 365.644 238.208 367.492 238.2 368.412C238.191 369.332 250.748 368.538 251.025 367.754C251.302 366.969 247.788 365.694 245.16 365.669ZM247.383 344.606C249.593 345.955 252.95 349.083 250.527 352.353C247.685 355.228 243.665 351.862 241.682 350.338C239.842 349.154 237.733 352.134 239.438 353.512C253.767 364.149 259.805 345.071 248.522 343.056C247.279 342.833 246.804 344.19 247.383 344.606ZM222.398 332.333C226.21 329.622 231.853 331.79 232.745 336.097C233.391 336.438 233.738 336.975 233.808 337.756L233.825 337.952V337.952C233.908 338.88 233.06 339.749 232.219 339.986C231.271 340.252 230.525 340.102 229.652 339.7C228.815 339.313 228.533 338.238 228.693 337.424L228.708 337.356C228.942 336.346 228.068 335.356 227.182 334.946C226.183 334.484 225.055 334.757 224.177 335.349C223.202 336.005 222.385 337.136 222.102 338.268L222.074 338.385C221.849 339.363 221.67 341.199 222.632 341.771C222.802 341.872 222.678 342.098 222.501 342.067C220.404 341.693 219.164 340.439 219.173 338.217C219.182 335.864 220.488 333.691 222.398 332.333ZM257.267 331.883C261.06 330.601 265.754 334.186 264.259 338.262C263.277 340.938 259.589 339.826 259.959 337.138L259.971 337.056C260.204 335.658 259.131 334.987 257.804 335.434C255.837 336.097 254.751 339.114 255.653 340.89C255.764 341.108 255.447 341.288 255.317 341.078L255.193 340.878C254.183 339.263 253.258 338.068 253.615 336.021C253.943 334.133 255.431 332.503 257.267 331.883ZM249.691 322.076C249.683 321.896 249.878 321.776 250.043 321.818C251.384 322.163 252.591 323.135 253.809 323.77C255.138 324.462 256.501 325.025 257.948 325.441C259.357 325.847 260.784 326.056 262.253 326.058C263.843 326.06 265.404 325.488 266.963 325.552C269.306 325.647 270.499 329.008 268.18 330.137C264.803 331.781 259.829 330.516 256.573 329.092C253.952 327.945 249.832 325.256 249.691 322.076ZM232.61 322.68C233.851 321.14 236.333 321.07 237.404 322.909C238.511 324.809 237.141 326.69 235.227 327.062C231.724 328.562 228.141 329.7 224.327 330.15L223.811 330.209C220.492 330.574 216.306 330.751 213.324 329.219C213.032 329.069 213.125 328.63 213.42 328.551C215.113 328.092 217.004 328.111 218.744 327.816C220.399 327.536 222.041 327.224 223.654 326.759C226.842 325.841 229.866 324.514 232.61 322.68Z" fill="black"/>
<path fill-rule="evenodd" clip-rule="evenodd" d="M236.088 369.193C236.088 369.193 239.122 364.446 244.04 364.493C248.957 364.54 254.627 367.108 254.218 368.3C253.999 368.936 249.409 370.697 241.781 370.696C239.889 370.695 236.088 369.193 236.088 369.193Z" stroke="#22252B" stroke-width="1.5"/>
<path fill-rule="evenodd" clip-rule="evenodd" d="M279.296 413.95C278.721 413.682 278.214 413.294 277.83 412.83C277.446 412.365 277.2 411.841 277.117 411.314C277.063 410.943 277.096 410.58 277.213 410.247C277.33 409.914 277.53 409.618 277.8 409.376C278.07 409.133 278.405 408.95 278.785 408.838C279.165 408.725 279.582 408.685 280.011 408.719C294.606 409.725 306.802 403.725 311.838 393.062C316.881 382.384 313.76 369.145 303.686 358.505C303.386 358.196 303.152 357.848 302.997 357.483C302.842 357.118 302.769 356.743 302.783 356.38C302.797 356.017 302.898 355.674 303.079 355.371C303.26 355.068 303.518 354.811 303.837 354.615C304.502 354.226 305.367 354.106 306.25 354.282C307.132 354.458 307.963 354.916 308.565 355.558C320.357 368.018 324.023 383.527 318.119 396.028C312.226 408.507 297.934 415.535 280.835 414.359C280.313 414.324 279.786 414.184 279.296 413.95V413.95Z" fill="#FF6363"/>
<path fill-rule="evenodd" clip-rule="evenodd" d="M275.541 402.82C274.988 402.56 274.502 402.183 274.139 401.732C273.776 401.282 273.549 400.775 273.483 400.267C273.396 399.605 273.603 398.985 274.061 398.533C274.318 398.277 274.643 398.08 275.018 397.953C275.392 397.827 275.807 397.774 276.238 397.798C286.165 398.38 294.843 394.248 298.374 386.772C301.907 379.291 299.575 369.95 292.806 362.643C292.527 362.347 292.309 362.017 292.166 361.671C292.022 361.325 291.956 360.97 291.97 360.626C291.985 360.283 292.08 359.958 292.25 359.67C292.42 359.383 292.662 359.138 292.962 358.95C293.395 358.68 293.931 358.535 294.509 358.531C295.088 358.526 295.685 358.663 296.236 358.925C296.716 359.152 297.135 359.459 297.484 359.828C301.592 364.254 304.377 369.366 305.531 374.595C306.685 379.823 306.162 384.962 304.02 389.438C301.928 393.931 298.298 397.596 293.534 400.025C288.771 402.455 283.062 403.553 277.042 403.197C276.536 403.174 276.02 403.044 275.541 402.82V402.82Z" fill="#FF6363"/>
<path fill-rule="evenodd" clip-rule="evenodd" d="M276.144 389.882C275.175 389.424 274.508 388.473 274.459 387.469C274.357 385.967 275.559 384.75 277.134 384.74C280.346 384.739 283.133 383.039 284.421 380.313C285.71 377.584 285.244 374.343 283.209 371.865C282.217 370.651 282.391 368.943 283.6 368.065C284.439 367.458 285.562 367.37 286.545 367.835C286.959 368.03 287.319 368.305 287.608 368.655C291.013 372.802 291.788 378.215 289.634 382.775C287.48 387.336 282.809 390.172 277.45 390.176C277.013 390.175 276.563 390.073 276.144 389.882V389.882Z" fill="#FF6363"/>
</svg>
