<svg width="391" height="780" viewBox="0 0 391 780" fill="none" xmlns="http://www.w3.org/2000/svg">
<path fill-rule="evenodd" clip-rule="evenodd" d="M274.986 693.49C262.998 680.304 245.33 675.659 230.172 667.391L230.503 666.535C229.607 666.026 228.566 665.583 227.581 665.133C227.405 664.897 226.728 664.311 226.53 664.064C241.542 607.867 236.123 557.32 244.204 497.928C251.274 497.568 259.576 498.246 266.464 495.802C276.096 470.312 274.968 447.006 272.339 419.911C272.224 419.294 272.232 419.127 272.701 418.637C278.673 412.014 281.903 396.085 282.318 383.661C282.318 383.662 282.254 382.76 282.254 382.76C282.883 382.292 283.627 381.636 284.209 381.119C288.517 371.659 287.126 362.332 284.814 351.697L284.819 351.695C272.776 298.801 269.41 240.234 249.121 190.338C243.61 177.384 231.4 171.433 217.568 171.412L216.717 171.41C216.031 170.411 215.253 169.34 214.51 168.442C214.595 168.334 214.658 168.209 214.682 168.061C214.962 166.317 213.299 165.291 211.999 164.501C210.57 163.633 208.98 163.028 207.409 162.488C205.945 161.985 204.034 161.35 202.562 162.186C201.929 162.545 201.623 163.485 200.826 163.463C200.784 163.462 200.741 163.454 200.698 163.45C198.34 158.529 198.327 153.185 194.369 148.927C189.899 144.592 184.473 140.647 177.78 140.926C172.974 141.361 162.503 141.669 160.054 146.885C157.67 149.476 156.609 152.861 156.077 156.811L154.837 156.698C154.089 157.37 152.593 158.783 151.811 159.513L151.722 159.295C149.173 161.548 146.589 164.156 143.715 165.893C142.374 166.334 143.527 168.142 143.446 169.205C137.729 170.42 132.051 171.813 126.577 173.926C113.476 175.736 102.712 180.445 96.953 188.857C78.9242 231.965 77.6344 306.857 84.8671 363.931C84.9201 364.359 84.798 365.054 85.2967 365.24C85.8187 369.058 86.2249 372.963 86.6112 376.728C87.4565 382.777 88.9795 388.793 90.3441 394.647L90.7611 393.709C91.608 393.793 93.3445 393.792 94.2104 393.785C91.5458 423.771 86.9392 452.229 81.9617 481.189C81.8398 481.735 82.1355 482.05 82.587 482.056C90.5149 482.804 99.0939 484.117 107.52 485.817C98.9966 530.958 74.1806 594.307 73.566 635.816C73.432 650.262 68.3343 677.106 83.4408 680.874C80.8372 691.39 74.884 700.267 69.07 709.023C64.6347 716.694 66.6529 729.543 74.984 733.495C89.2526 738.337 105.546 741.149 119.87 738.042C122.97 738.761 126.113 737.817 128.851 735.791C143.25 723.048 127.149 701.666 120.273 688.107C118.674 685.636 115.816 681.772 118.582 678.717C119.383 678.708 120.84 678.237 121.125 677.869C120.367 676.723 120.409 676.985 121.203 675.931C154.873 631.599 157.336 565.735 170.026 511.92L173.296 512.159C180.251 572.235 148.557 613.091 180.04 674.117C181.079 677.679 184.276 677.503 186.856 678.455C168.44 685.062 176.677 711.636 193.463 714.612C212.224 719.397 231.76 723.907 250.393 723.478C255.419 723.486 260.449 723.233 265.363 722.789C286.831 723.077 290.669 707.639 274.986 693.49" fill="#8FA7DF"/>
<path fill-rule="evenodd" clip-rule="evenodd" d="M121.208 393.009C123.257 393.044 125.691 390.835 127.58 391.801C128.188 392.263 133.226 402.097 136.754 405.059L136.973 405.26C140.539 408.562 143.543 412.789 142.712 417.964C142.143 419.96 137.778 418.775 136.089 419.104C135.224 427.824 138.588 434.626 127.258 435.895L125.766 436.144C120.168 437.069 109.221 438.669 105.884 435.604C104.43 433.969 104.863 431.63 104.766 429.609C102.348 425.131 102.375 419.86 101.996 414.893C102.445 412.541 96.6618 393.033 99.3592 394.423C106.045 392.542 114.341 393.628 121.208 393.009ZM278.496 387.084C278.853 386.678 279.474 386.626 279.958 386.86C280.179 386.837 280.4 386.82 280.621 386.812C281.016 386.88 280.723 387.268 280.488 387.348C281.358 389.381 275.561 423.528 271.717 414.563C271.594 407.887 270.363 401.349 269.399 394.767C267.944 388.511 274.129 388.096 278.496 387.084ZM158.831 144.415C163.965 135.425 181.454 138.311 189.4 141.695C198.111 145.085 197.218 155.287 199.18 162.965C202.188 163.678 205.139 165.551 206.001 168.712C207.045 171.629 208.007 174.578 208.975 177.522L209.035 177.669C209.536 178.915 210.093 180.798 208.477 181.358C195.588 190.453 173.245 187 160.134 179.951C157.695 178.896 157.91 172.733 157.695 170.616C157.517 168.738 157.31 166.871 157.051 165.014C156.121 163.719 154.697 157.441 156.902 157.143C157.544 152.897 156.915 148.327 158.831 144.415Z" fill="#694D3D"/>
<path fill-rule="evenodd" clip-rule="evenodd" d="M104.497 680.142C108.135 680.291 113.137 678.13 116.057 680.961C116.184 680.871 116.394 680.949 116.46 681.109C117.388 683.359 118.522 685.57 119.591 687.753C123.987 697.588 131.237 706.28 132.489 717.323C133.46 726.08 128.188 738.574 118.133 737.545C104.844 737.419 91.3749 736.483 78.5821 732.571C75.2292 733.497 71.6265 730.084 69.9959 727.438C65.7945 720.619 68.9018 712.256 72.3599 705.896C76.1837 699.338 79.1673 692.359 81.6951 685.189C81.0277 684.365 81.1705 682.718 82.4028 682.53C84.4889 682.367 86.3912 681.599 88.5155 681.702C93.8298 681.057 99.1669 680.586 104.497 680.142ZM226.613 665.563C228.329 661.936 230.573 666.802 231.909 668.273C238.735 673.839 248.579 674.065 255.57 679.606L256.032 679.908C258.769 681.687 261.833 683.544 263.676 686.264L264.378 686.754C272.014 692.091 281.548 699.308 282.881 709.102C283.197 709.516 283.393 710.042 283.45 710.603C283.138 725.787 260.983 720.701 251.166 721.138L249.63 721.071C233.061 720.368 216.119 720.192 200.527 713.675C198.096 714.578 195.144 714.024 192.769 713.032L192.355 712.871C188.895 711.532 185.107 710.39 182.84 707.208C179.433 702.778 178.514 696.716 179.053 691.231L179.119 690.594C179.415 687.622 179.584 684.152 181.833 682.133C185.149 676.459 192.667 677.874 197.956 675.669C206.399 673.466 218.374 664.25 226.613 665.563Z" fill="white"/>
<path fill-rule="evenodd" clip-rule="evenodd" d="M154.67 159.035C156.812 166.79 158.264 174.895 159.318 182.868C160.629 192.789 163.813 224.491 164.665 230.403C167.213 248.083 169.096 265.864 170.411 283.688C171.139 286.874 171.533 290.137 171.734 293.404L171.756 293.781C171.898 296.271 172.048 298.881 171.965 301.46C172.638 306.194 173.176 310.948 173.608 315.694C175.227 333.495 175.584 351.445 175.038 369.309C174.765 378.244 174.311 387.176 173.542 396.083C173.198 400.055 172.806 404.023 172.363 407.985L171.977 411.381C171.61 414.571 171.202 417.777 170.444 420.89C170.266 423.989 170.239 427.107 170.056 430.179C169.378 441.55 168.083 452.886 166.24 464.121C165.315 469.757 164.259 475.374 163.118 480.969C162.636 483.335 162.131 485.696 161.602 488.052L161.336 489.229C160.723 491.921 160.362 495.038 159.096 497.493C158.658 498.343 157.574 498.324 156.977 497.772C156.961 497.806 156.946 497.84 156.927 497.872C156.377 498.834 155.271 498.998 154.345 498.565C149.78 496.45 145.13 494.538 140.422 492.785C132.134 489.697 123.631 487.212 115 485.353C110.65 484.416 106.266 483.632 101.861 483.019C97.4587 482.405 93.0177 482.164 88.6194 481.556C88.2966 481.512 88.0416 481.392 87.843 481.224C86.6558 481.178 85.5011 480.902 84.7421 480.068L84.2896 479.992C84.2142 479.979 84.139 479.966 84.0638 479.953C83.9164 479.925 83.971 479.72 84.0966 479.706C84.2125 479.694 84.3289 479.684 84.4453 479.673C84.2695 479.399 84.1246 479.084 84.0242 478.712C83.5447 476.939 84.4046 475.022 85.2088 473.489C85.6334 472.679 86.1264 471.903 86.6696 471.167C86.8646 470 87.0576 468.834 87.2355 467.664C87.6936 464.657 88.1434 461.648 88.5849 458.638C90.149 447.974 91.5873 437.293 92.9623 426.602C93.9733 418.742 94.8596 410.848 96.1464 403.025C96.0644 401.285 95.9594 399.545 95.8443 397.805C95.7405 396.24 95.3315 395.973 94.6718 394.648C93.9788 394.604 92.124 395.066 91.4443 394.949C90.293 395.226 90.3381 392.897 89.8963 391.355C85.4503 375.835 83.7914 359.463 82.6106 343.396C80.5219 314.974 82.0715 286.465 84.5066 258.122L84.5806 257.263C85.7621 243.607 86.6012 229.857 88.5892 216.291C89.4598 210.349 90.663 204.39 92.8149 198.781L93.0369 198.205C93.523 196.953 94.0444 195.681 94.6718 194.507C95.3073 193.318 96.1392 192.193 96.9305 191.101C98.6844 188.681 100.684 186.545 103.012 184.703C103.04 184.681 103.071 184.665 103.102 184.653C104.079 183.712 105.13 182.84 106.24 182.034C113.708 176.61 122.943 175.131 131.762 173.583C133.963 173.196 134.903 171.414 137.09 170.952C137.09 170.952 142.466 169.833 142.578 169.435C142.636 169.231 142.048 166.415 142.148 165.971C142.595 163.975 144.461 164.216 145.894 163.006C147.897 161.314 149.843 160.09 151.89 158.454C152.353 158.084 153.167 156.545 153.571 156.79C153.571 156.79 154.604 158.797 154.67 159.035ZM202.683 163.565C202.511 162.75 203.059 161.824 204.063 162.147C209.524 163.91 213.926 166.397 217.328 171.002C219.877 171.009 222.432 171.218 224.927 171.753C227.814 172.373 230.497 173.237 233.183 174.464C235.558 175.547 237.853 176.995 239.624 178.968C240.116 179.515 240.549 180.099 240.951 180.707C245.837 184.115 248.929 190.501 251.15 196.011C253.433 201.676 254.948 207.681 256.524 213.581C258.301 220.233 259.907 226.933 261.359 233.667C262.745 240.098 263.984 246.562 265.076 253.052L265.942 258.247C266.69 262.759 267.412 267.307 267.859 271.852C268.825 275.27 269.743 278.689 270.528 282.164C273.929 297.222 277.11 312.353 279.526 327.613C281.932 342.814 283.736 358.114 284.939 373.464C284.992 374.139 284.673 374.579 284.225 374.788C284.171 375.219 284.092 375.646 283.982 376.066C283.118 379.345 280.807 382.049 278.079 383.887C274.943 385.998 271.458 387.368 268.002 388.818C269.073 393.497 269.815 398.251 270.374 403.069C272.128 418.186 272.574 433.391 271.912 448.595C271.581 456.185 270.942 463.757 270.042 471.298C269.598 475.026 269.105 478.751 268.549 482.463C268.3 484.126 268.037 485.787 267.759 487.446L267.591 488.44C267.268 490.329 267.072 492.166 266.154 493.862C265.512 495.047 264.289 495.062 263.438 494.443C261.986 495.043 259.961 495.081 258.753 495.245C255.649 495.665 252.535 496.074 249.411 496.307C246.31 496.537 243.167 496.673 240.063 496.453C238.512 496.343 236.976 496.141 235.445 495.868L235.041 495.795C234.365 495.671 233.676 495.528 233.032 495.303C232.309 495.05 231.65 494.639 230.928 494.378C230.694 494.294 230.623 494.071 230.717 493.847C230.89 493.438 231.077 493.06 231.293 492.672C231.331 492.603 231.438 492.634 231.438 492.712C231.439 493.038 231.425 493.354 231.402 493.673C231.491 493.673 231.581 493.671 231.67 493.669C231.698 492.746 231.588 491.836 231.676 490.909L231.844 489.127C231.873 488.83 231.901 488.533 231.931 488.236C232.107 486.459 232.422 484.68 232.701 482.917C233.297 479.157 233.789 475.38 234.177 471.591C235.549 458.223 235.644 444.755 235.845 431.327L235.881 428.973C235.974 423.089 236.093 417.206 236.387 411.327C236.32 410.401 236.255 409.477 236.189 408.56C235.84 403.73 235.595 398.891 235.3 394.058C234.262 377.043 233.17 360.029 232.283 343.005C232.142 340.289 232.013 337.572 231.9 334.854C230.299 326.984 229.536 318.989 228.734 310.996C227.157 295.269 225.723 279.528 224.408 263.776C223.751 255.9 223.123 248.021 222.489 240.143C222.226 236.877 221.971 233.61 221.732 230.342C221.536 229.286 221.34 228.231 221.134 227.181C218.931 215.954 216.721 204.728 214.519 193.499C213.492 188.267 208.076 173.506 207.059 171.184C206.738 170.45 204.146 166.592 203.058 165.522L202.999 165.463C202.63 165.085 202.085 164.379 202.375 163.833C202.45 163.692 202.56 163.603 202.683 163.565ZM127.806 389.821C124.504 390.712 120.955 392.191 117.6 392.846C113.114 393.722 108.567 392.806 104.013 393.168C101.811 393.342 97.5429 394.236 97.6602 394.648C97.6884 394.747 97.7134 394.848 97.7397 394.949C97.8103 394.947 97.8846 394.995 97.8846 395.081L97.8818 395.519C98.5812 398.536 98.5976 401.849 98.76 404.901L98.7719 405.174L99.1241 408.296C99.7362 413.674 100.409 419.041 101.652 424.296C102.642 428.481 103.855 432.723 105.645 436.63C105.894 437.176 106.159 437.717 106.439 438.25L107.603 438.269L108.185 438.275C110.489 438.291 112.788 438.385 115.093 438.339C119.584 438.247 124.078 437.889 128.52 437.205C130.659 436.875 132.788 436.475 134.903 436.009C135.221 433.421 135.543 430.833 135.866 428.245L136.354 424.365C136.668 421.871 137.209 419.856 139.691 418.877C140.8 418.439 141.947 418.264 143.106 418.232L143.163 417.682C143.472 414.602 143.327 411.76 141.752 409.058C140.642 407.151 139.133 405.553 137.595 404.003L135.754 402.159C132.751 399.137 129.888 395.971 129.356 391.503C128.586 390.788 128.207 390.79 127.806 389.821ZM148.453 429.698C148.874 429.506 148.705 429.073 148.562 429.447L148.552 429.475C148.526 429.55 148.492 429.624 148.453 429.698Z" fill="white"/>
<path fill-rule="evenodd" clip-rule="evenodd" d="M159.675 179.639L161.781 196.56L167.312 250.338L173.02 300.756L175.276 370.439V380.819C175.276 380.819 180.24 380.819 183.288 380.819C186.336 380.819 211.016 384.727 211.016 384.727L234.352 380.819L227.08 294.958L220.656 232.597C220.656 232.597 212.484 182.775 211.016 181.584C209.549 180.393 205.972 186.782 192.065 186.782C178.159 186.782 159.675 179.639 159.675 179.639Z" fill="#9FD8E5"/>
<path fill-rule="evenodd" clip-rule="evenodd" d="M157.598 145.582C157.693 145.331 157.996 145.338 158.092 145.582C158.811 147.406 158.448 150.033 158.203 151.94C157.96 153.833 156.992 158.162 156.822 158.434L156.794 158.476C156.575 158.774 156.392 158.957 156.166 159.075C157.371 164.881 158.449 170.709 159.423 176.561C159.592 177.428 159.755 178.296 159.913 179.165C160.54 179.48 161.227 179.657 161.908 179.922C162.99 180.344 164.05 180.833 165.122 181.28C167.258 182.169 169.394 182.951 171.605 183.62C175.977 184.943 180.463 185.746 185.021 185.936C189.564 186.125 194.114 185.787 198.565 184.828C200.68 184.373 202.815 183.828 204.844 183.056C205.703 182.729 206.559 182.319 207.289 181.745C207.992 181.193 208.471 180.445 209.191 179.914C209.221 179.892 209.252 179.872 209.283 179.855C208.875 178.653 208.451 177.456 208.01 176.264C207.364 174.841 206.751 173.401 206.083 172C205.43 170.63 204.765 169.265 204.093 167.903C204.028 167.896 203.967 167.882 203.912 167.859C201.341 166.804 199.294 164.747 198.204 162.132C197.598 160.678 197.22 159.102 197.138 157.522L197.09 156.679C197.027 155.471 197.013 154.001 197.602 153.111C197.64 153.054 197.718 153.051 197.756 153.111C198.405 154.137 198.299 155.706 198.565 156.89L198.659 157.308C198.931 158.494 199.243 159.69 199.753 160.79C200.385 162.155 201.238 163.434 202.349 164.403L201.946 163.599L201.419 162.554C201.246 162.212 201.308 161.685 201.689 161.501C203.055 160.842 204.373 160.872 205.607 161.516C206.805 161.492 207.996 161.683 209.178 162.164C211.608 163.151 213.593 164.819 215.317 166.801C216.123 167.726 216.873 168.7 217.577 169.711C231.579 169.759 244.541 175.566 250.606 189.581C258.49 205.785 262.309 223.686 265.842 241.308C272.807 277.633 279.361 314.041 286.264 350.379C286.384 350.402 286.504 350.422 286.624 350.447C287.852 350.702 287.645 352.32 286.708 352.726L287.151 355.06L287.251 355.558C288.87 363.734 289.997 373.364 285.899 380.762C286.099 381.167 286.079 381.667 285.652 382.074C285.112 382.589 284.552 383.076 283.977 383.54C284.077 384.948 283.951 386.339 283.608 387.699C283.647 388.939 283.407 390.284 283.342 391.32C282.397 400.899 280.113 412.034 273.991 419.714C274.973 428.261 275.657 436.838 275.787 445.449C275.918 454.142 275.482 462.83 274.31 471.443C273.16 479.892 271.459 488.723 267.974 496.512C267.808 496.883 267.569 497.131 267.293 497.277C267.039 497.699 266.654 498.02 266.166 498.089C259.409 499.055 252.542 499.608 245.682 499.629C243.274 520.832 241.716 542.155 240.421 563.433L240.333 564.883C238.317 597.937 237.685 631.608 228.407 663.579L228.54 663.71L229.206 664.008C230.092 664.407 230.97 664.821 231.798 665.34C232.335 665.677 232.403 666.25 232.219 666.721C235.803 669.096 239.972 670.617 243.942 672.101C255.871 676.457 266.914 683.288 276.102 692.228C292.636 707.523 289.076 724.441 265.367 724.49C243.505 726.529 221.391 723.964 200.277 717.959C199.122 717.634 197.88 717.388 196.827 716.773C195.526 716.744 194.206 716.523 193.104 716.272C183.001 713.939 174.58 704.588 174.744 693.721C174.813 688.152 177.068 681.432 182.242 678.858C180.332 678.293 179.307 676.671 178.561 674.898C177.847 673.482 177.157 672.052 176.494 670.61C172.28 661.493 169.189 651.863 167.093 642.014C158.773 609.362 168.99 576.862 172.773 544.254C172.864 540.222 172.898 536.189 172.814 532.15C172.726 527.871 172.501 523.593 172.199 519.324C172.075 517.555 171.916 515.79 171.775 514.023L171.673 512.697C171.664 512.574 171.654 512.45 171.642 512.325C158.334 567.975 157.492 629.699 122.528 676.958C123.72 678.847 121.181 680.083 119.502 680.31C118.045 682.344 120.717 685.563 121.698 687.231C123.293 689.945 124.794 692.725 126.258 695.515L127.268 697.378C133.796 709.452 142.473 726.471 129.879 737.129C127.099 739.25 123.406 740.495 119.933 739.787C116.03 740.887 111.963 741.213 107.918 741.03C99.9822 740.855 92.0696 739.77 84.3136 738.068L82.9339 737.757C79.9833 737.086 77.0012 736.34 74.2673 735.031C64.9024 730.373 62.7643 717.006 67.6077 708.218C69.2311 705.128 71.4825 702.454 73.3492 699.525C76.7933 694.124 79.5156 688.14 81.3714 681.97C81.2847 681.942 81.1987 681.912 81.1135 681.881C80.7396 682.02 80.2941 682.005 79.8282 681.755C67.4547 674.125 71.6001 648.61 71.9024 635.726C74.4972 602.257 82.5018 569.45 92.4277 537.529C98.5908 521.178 102.421 504.256 105.58 487.163C97.9214 485.659 90.2029 484.49 82.4333 483.75C80.911 483.605 80.0774 482.442 80.322 480.914C81.1644 475.651 82.0427 470.394 82.9274 465.139L83.6941 460.587C87.3038 439.101 90.6651 417.617 92.1094 395.84C92.1175 395.718 92.1329 395.6 92.1549 395.487C92.0371 395.486 91.9193 395.482 91.8015 395.477C91.2586 396.697 89.1949 396.934 88.7897 395.289C87.3914 389.637 86.1624 383.94 85.0925 378.214L84.7961 375.336C84.4986 372.457 84.1914 369.58 83.8166 366.71L83.7455 366.178C83.4804 365.977 83.3183 365.625 83.292 365.251C83.1811 365.22 83.0583 365.221 82.9382 365.251C75.8864 317.053 79.4758 267.967 86.0322 219.912C88.5156 193.134 96.3718 176.929 124.259 172.639C130.097 171.472 136.039 170.757 141.76 169.098L141.735 168.912C141.613 167.97 141.21 166.573 141.527 165.63C141.793 164.837 142.929 164.467 143.554 164.021C144.574 163.292 145.559 162.512 146.515 161.697C148.469 160.034 150.309 158.243 152.263 156.583C152.32 156.535 152.409 156.566 152.434 156.622C152.94 156.148 153.451 155.679 153.968 155.216C154.381 154.846 155.091 154.892 155.353 155.394C155.784 154.142 156.147 152.869 156.461 151.575C156.702 150.576 156.928 149.581 157.087 148.565C157.24 147.579 157.247 146.513 157.598 145.582ZM118.424 680.52C112.136 681.93 105.67 681.455 99.2895 681.242C97.2939 685.101 96.0309 689.355 95.0591 693.581C94.0951 700.042 90.3946 698.075 92.5429 692.65C93.8854 688.435 96.1867 684.661 98.8599 681.228C97.976 681.2 97.0901 681.179 96.2038 681.169C94.7216 681.427 93.2209 681.575 91.7267 681.762C89.8177 681.999 87.9029 682.302 85.9811 682.412C85.2831 682.452 84.5343 682.461 83.7817 682.408C83.2286 682.556 82.6778 682.717 82.1314 682.899C82.0238 692.945 76.918 701.554 71.6127 709.647C67.3218 717.185 69.666 729.356 78.7298 731.689C91.2856 735.871 104.558 736.076 117.594 736.852C117.899 735.535 119.401 735.042 120.603 735.191C123.966 735.78 127.428 733.947 129.395 731.188C137.372 718.39 123.748 702.379 119.885 690.059L119.758 689.754C118.692 687.236 116.543 682.962 118.424 680.52ZM224.546 667.126C223.272 667.391 222.003 667.673 220.738 667.969L220.554 668.027C220.354 668.54 220.012 668.979 219.555 669.224C221.301 670.843 222.999 672.611 224.478 674.502L224.678 674.76C226.249 676.809 228.128 678.603 228.898 681.159C229.15 681.998 228.198 682.668 227.491 682.266C225.177 680.947 223.824 678.521 222.402 676.329C221.012 674.186 219.911 671.808 219.1 669.391C212.479 669.666 206.111 674.908 200.082 677.608C196.723 683.432 196.04 690.235 196.21 696.861C193.717 701.79 190.375 685.92 198.577 678.334L198.288 678.455C193.849 680.289 188.965 681.227 184.286 679.518C184.373 679.695 184.374 680.321 184.024 680.073C183.084 678.916 180.919 683.389 180.655 683.976C174.819 695.973 182.028 709.328 194.517 712.155C195.315 710.124 198.398 710.557 197.419 712.825L197.445 712.871C197.45 712.88 197.456 712.888 197.461 712.897C198.667 713.253 200.572 713.272 201.029 714.627C218.087 719.299 235.831 721.026 253.459 720.883C261.193 720.209 278.433 722.077 281.971 713.586C284.712 703.346 273.366 694.589 266.588 688.824C262.192 685.32 257.438 682.245 252.47 679.664C248.08 677.383 243.187 675.574 238.722 673.172C238.684 673.186 238.643 673.198 238.599 673.206C235.337 673.773 232.389 670.986 229.848 669.295C228.549 668.429 227.163 667.655 225.687 667.149C225.549 667.219 225.41 667.272 225.271 667.294C225.485 667.52 224.981 667.554 225.168 667.301C224.935 667.272 224.73 667.21 224.546 667.126ZM250.707 703.213C247.53 703.446 246.808 696.387 248.574 698.331C248.78 699.073 249.138 699.844 249.625 700.446L249.74 700.584C250.329 701.259 252.323 702.708 250.707 703.213ZM104.465 684.112C104.528 683.994 104.718 684.045 104.714 684.18C104.664 685.803 104.547 687.228 104.944 688.83C105.325 690.368 106.042 691.703 106.901 693.013C107.527 693.964 106.061 694.789 105.421 693.898C103.575 691.328 102.91 687.002 104.465 684.112ZM212.097 671.516C212.141 671.324 212.444 671.317 212.484 671.516C213.52 674.926 213.825 678.528 214.629 682.004C214.767 683.984 218.061 690.46 215.006 690.927C212.172 690.972 211.999 684.123 211.541 681.976L211.5 681.603C211.141 678.244 210.963 674.731 212.097 671.516ZM95.5438 681.545C95.6872 681.545 95.6872 681.773 95.5438 681.773C95.4003 681.773 95.4003 681.545 95.5438 681.545ZM176.291 380.819L176.274 381.536C175.733 403.166 174.569 424.797 172.451 446.32C171.424 456.764 170.194 467.216 168.298 477.536L168.009 479.1C166.879 485.171 165.566 491.471 162.854 496.996L162.702 497.302C161.886 498.918 160.743 500.796 159.123 501.604C157.942 502.194 156.811 501.549 155.663 501.151C154.616 500.788 153.568 500.428 152.518 500.072C150.248 499.301 147.973 498.543 145.691 497.805C141.278 496.377 136.845 495.012 132.39 493.726C124.53 491.457 116.592 489.437 108.587 487.771C108.215 490.206 107.831 492.64 107.433 495.07C104.776 511.41 99.1576 526.877 94.3622 542.635C83.0532 581.454 73.4071 621.874 75.3552 662.653C75.6122 665.79 76.1532 668.914 77.2257 671.874C78.2089 674.587 79.9395 677.021 81.7316 679.233C82.0783 679.66 82.1847 680.147 82.1192 680.591C82.1607 680.713 82.1821 680.843 82.1921 680.977C82.9252 681.133 83.6776 681.207 84.4432 681.223C95.0802 676.97 107.217 680.503 118.136 677.228C118.226 676.094 118.634 674.843 119.096 673.801C128.937 660.168 136.319 644.803 141.826 628.847C153.242 595.992 157.11 561.159 164.064 527.182C171.072 493.396 181.533 459.904 199.112 430.228C199.241 430.008 199.532 430.201 199.438 430.424L198.549 432.607C188.969 456.149 179.727 479.941 173.545 504.681C186.69 557.336 153.36 605.158 177.993 660.997C179.04 663.598 180.172 666.166 181.377 668.694C182.162 670.912 184.784 674.145 184.592 676.308C193.929 678.236 201.719 671.497 209.493 667.395L209.733 667.289C212.391 666.107 217.14 663.498 219.711 664.95C219.758 664.98 219.797 665.016 219.84 665.049C220.069 665 220.299 664.954 220.529 664.908C221.261 664.696 221.994 664.487 222.729 664.285C222.906 664.236 223.084 664.184 223.262 664.131C223.288 662.487 223.803 660.56 224.264 659.255C237.819 609.242 233.699 556.56 240.699 505.49C240.917 503.516 241.147 501.544 241.387 499.572C237.82 499.465 234.261 499.207 230.728 498.781C229.65 498.651 228.308 497.81 228.474 496.476C228.805 493.823 229.116 491.169 229.403 488.511C231.782 466.472 232.643 444.289 232.59 422.123C232.56 409.204 232.19 396.295 231.573 383.397C227.961 384.149 224.304 384.664 220.631 384.97C212.894 385.614 205.124 385.309 197.409 384.53C193.503 384.135 189.622 383.591 185.745 382.961L185.063 382.849C182.222 382.377 179.365 381.823 176.62 380.928L176.291 380.819ZM109.919 642.82C110.065 642.549 110.497 642.735 110.407 643.031C107.293 653.088 104.627 663.286 102.317 673.565C100.97 680.585 96.5603 678.464 98.536 672.261C101.063 662 104.933 652.088 109.919 642.82ZM188.912 645.88C188.899 645.626 189.257 645.6 189.328 645.822C191.313 652.196 193.992 658.422 197.753 663.914C198.925 665.614 200.565 667.19 201.142 669.232C201.413 670.192 200.391 670.819 199.604 670.442C197.616 669.487 196.364 667.166 195.247 665.316L195.185 665.214C191.622 659.379 189.27 652.778 188.912 645.88ZM122.258 659.488C122.522 659.15 122.998 659.583 122.817 659.929L122.735 660.096C121.897 661.809 116.964 672.216 116.29 668.1C117.591 664.87 120.143 662.196 122.258 659.488ZM227.605 665.464C227.566 665.5 227.527 665.538 227.487 665.573C227.859 665.702 228.225 665.851 228.583 666.016C228.26 665.838 227.93 665.655 227.605 665.464ZM153.967 157.594L153.499 157.93C150.837 160.166 148.13 162.344 145.442 164.547C145.149 164.817 144.849 165.08 144.543 165.333C144.194 165.621 143.349 166.612 143.349 166.612C143.629 167.645 143.805 168.746 144.068 169.796L144.15 170.109C144.606 171.785 144.974 173.479 145.354 175.175C146.282 179.304 146.793 183.516 146.805 187.76C146.814 191.081 146.387 194.395 146.07 197.696L145.683 201.726C145.49 203.741 145.299 205.756 145.117 207.771C144.813 211.139 144.515 214.509 144.307 217.885L144.299 218.045C144.265 218.877 144.45 218.783 145.359 219.036L145.414 219.052C146.119 219.252 146.832 219.425 147.55 219.569C149.037 219.867 150.536 220.014 152.049 220.062C153.119 220.096 153.697 221.707 152.628 222.248C150.603 223.271 148.583 224.307 146.573 225.361L145.169 226.099C144.169 226.617 143.097 227.129 142.843 228.357C142.622 229.427 142.9 230.605 143.042 231.669C143.674 236.405 144.004 241.176 144.502 245.929C144.951 250.221 145.531 254.52 146.643 258.691C147.827 263.138 149.646 267.411 151.022 271.802C153.36 279.265 155.48 286.814 157.575 294.359L158.97 299.387C161.554 308.696 163.886 318.098 165.395 327.659C166.132 332.329 166.675 337.032 166.965 341.754L167.021 342.689C167.283 347.159 167.431 351.727 166.671 356.139C166.484 357.225 164.919 356.888 164.878 355.891C164.649 350.328 164.936 344.783 164.493 339.218C164.049 333.629 163.238 328.08 162.187 322.578C160.391 313.181 157.908 303.939 155.273 294.757L155.053 293.992C152.403 284.786 149.998 275.48 146.833 266.439L146.552 265.642C145.082 261.509 143.841 257.465 143.136 253.113C142.527 249.35 142.155 245.554 141.804 241.758L141.629 239.861C141.428 237.69 141.224 235.519 140.963 233.355C140.732 231.43 140.149 229.297 140.721 227.384C141.341 225.31 143.277 224.459 145.014 223.547C145.726 223.172 146.44 222.8 147.155 222.43C147.3 222.355 147.385 221.918 147.214 221.885C147.08 221.859 146.364 221.71 146.364 221.71C145.044 221.437 142.976 221.147 142.257 219.875C141.912 219.264 141.974 218.557 142.014 217.885C142.072 216.921 142.144 215.957 142.212 214.993C142.359 212.905 142.52 210.819 142.693 208.733C142.983 205.212 143.302 201.694 143.618 198.174C143.928 194.717 144.365 191.236 144.36 187.76C144.352 183.215 143.682 178.858 142.702 174.456C142.355 172.898 142.076 171.345 141.851 169.771C122.294 179.28 98.4905 175.187 92.1345 204.172C83.3288 256.286 79.0476 310.438 86.1787 363.064C92.4368 360.684 99.0443 359.398 105.728 359.227C107.259 359.188 107.253 361.618 105.728 361.657C99.1434 361.825 92.6683 363.141 86.5209 365.518C87.8923 375.157 89.6521 384.742 91.8414 394.252C92.3098 394.152 92.7756 394.038 93.2404 393.92C93.6666 393.664 94.1657 393.542 94.6521 393.553C95.9433 393.216 97.2393 392.895 98.5738 392.746C98.5249 392.524 98.8683 392.465 98.8647 392.702C109.505 391.102 121.05 392.972 130.686 387.121C128.688 376.597 126.447 366.112 123.989 355.681C113.093 315.662 136.582 276.777 132.071 236.707C132.045 236.5 132.375 236.464 132.422 236.659C141.438 277.456 115.95 318.073 128.877 358.765C130.055 363.836 131.313 368.888 132.357 373.99L132.408 374.214C133.024 377.016 135.858 392.131 131.966 390.801C131.215 391.294 130.373 391.671 129.535 392.004C130.754 396.793 134.811 400.056 137.909 403.496L138.017 403.617L138.578 404.196C144.175 408.604 150.259 424.339 137.354 420.468C135.667 422.427 136.893 425.672 137.045 427.984C137.687 433.394 135.195 437.674 129.686 438.365C124.661 439.044 119.548 439.013 114.498 439.446L114.487 439.56C114.295 439.596 114.104 439.631 113.913 439.669L113.949 439.481L112.736 439.574C109.749 439.79 106.679 439.784 104.967 436.779C100.85 429.267 99.8408 419.87 99.3763 410.594L99.2989 409.973C98.9389 407.091 98.5979 404.207 98.2777 401.32C98.1677 400.329 98.0705 399.337 97.9716 398.345L97.8527 397.174C97.7731 396.42 97.6627 395.618 97.2296 395.073C97.0571 395.086 96.8846 395.1 96.7122 395.116C96.7613 395.334 96.7797 395.576 96.7615 395.84C96.2949 402.654 95.6776 409.454 94.9053 416.238C92.5264 437.14 88.6338 457.794 85.1432 478.518L85.8126 479.637C89.7536 480.094 93.6838 480.649 97.5988 481.299L98.4375 481.439C118.268 484.8 137.664 490.506 156.673 497.128L158.388 496.643C158.419 496.597 158.449 496.55 158.479 496.503C158.699 496.157 158.901 495.8 159.093 495.437C159.285 495.075 159.462 494.706 159.634 494.334L159.966 493.604C160.032 493.455 160.023 493.455 160.213 492.962C161.153 490.517 161.87 487.983 162.507 485.44C164.327 478.178 165.501 470.745 166.518 463.327C169.315 442.93 170.708 422.312 171.688 401.751C172.758 379.295 173.248 356.81 172.917 334.329C172.776 324.798 172.506 315.266 171.907 305.752C170.927 290.184 169.087 274.693 167.131 259.226L166.71 255.912C165.635 247.466 164.5 239.027 163.677 230.55C162.878 222.333 162.27 214.099 161.558 205.874C161.161 201.295 160.728 196.725 160.224 192.168C159.428 187.709 158.586 183.257 157.851 178.784C156.772 172.209 155.583 165.649 154.327 159.106L153.967 157.594ZM213.332 168.083L213.105 167.815C210.708 165.027 207.344 162.187 203.587 162.443C203.456 162.452 203.415 163.03 203.415 163.03C203.982 164.059 204.537 165.095 205.081 166.137C205.149 166.228 205.203 166.33 205.24 166.442C205.956 167.822 206.654 169.211 207.337 170.611L207.906 171.781C209.36 174.758 210.941 177.753 211.671 181.006C211.684 181.062 211.689 181.115 211.687 181.166C217.439 196.369 219.759 213.007 221.559 229.042C223.879 249.708 225.894 270.422 227.956 291.118L228.282 294.385C230.53 316.883 232.64 339.398 234.192 361.959C235.75 384.598 236.819 407.297 236.816 429.996C236.814 451.238 235.782 472.503 233.325 493.6L233.48 494.472C243.877 495.528 254.238 495.572 264.63 494.155L264.959 494.109C265.435 492.338 265.951 490.586 266.461 488.821C271.224 472.309 272.264 454.996 271.488 437.873C270.714 420.793 268.299 403.884 265.645 387.023L265.383 385.364C262.685 368.313 260.236 351.263 258.37 334.098L258.204 332.551C255.587 335.205 252.427 337.212 248.936 338.496C247.509 339.021 246.891 336.729 248.259 336.171L248.305 336.153C252.041 334.778 255.29 332.429 257.869 329.355C256.223 313.511 254.749 297.647 253.321 281.781C252.955 278.454 252.706 275.109 252.408 271.783C252.151 268.911 251.908 266.037 251.676 263.164C250.441 248.732 249.324 234.294 248.462 219.831C248.425 219.222 249.63 219.007 249.73 219.467C250.152 221.399 250.345 223.384 250.569 225.35C250.851 227.827 251.059 230.323 251.259 232.808C251.669 237.888 252.055 242.971 252.436 248.053C253.793 259.288 255.046 270.535 256.294 281.784C258.39 300.687 260.182 319.625 262.321 338.523C264.149 354.664 266.698 370.671 269.228 386.701C274.124 384.897 278.52 381.964 282.134 378.157C285.16 372.278 284.773 364.064 283.415 357.719C283.089 355.887 282.76 354.057 282.432 352.226C279.906 351.938 277.362 351.888 274.812 352.073C273.284 352.184 273.296 349.754 274.812 349.644C277.211 349.469 279.606 349.508 281.987 349.742C278.357 329.58 274.563 309.449 270.856 289.301C265.797 262.81 261.989 235.968 254.481 210.043L254.098 208.736C249.931 194.572 244.299 178.141 229.062 173.586C225.7 172.496 222.21 171.827 218.683 171.385C220.686 174.571 222.318 178.033 223.865 181.425C226.549 187.307 229.513 193.069 232.367 198.868L232.87 199.892C235.883 206.049 240.34 216.102 235.943 222.401C235.858 222.523 235.861 223.08 235.988 223.134C238.435 224.164 240.456 226.272 241.614 228.722L241.664 228.829C243.635 233.107 243.428 237.975 243.404 242.597L243.394 246.245C243.343 264.107 243.217 281.97 242.448 299.817C242.042 309.269 241.462 318.714 240.628 328.137L240.524 329.303C239.723 338.252 238.789 347.281 236.874 356.053C236.676 356.963 235.203 356.765 235.278 355.832C236.09 345.714 237.401 335.646 238.207 325.524C239.646 307.443 240.136 289.31 240.384 271.176C240.495 263.11 240.54 255.044 240.572 246.977L240.584 243.953C240.599 239.763 240.962 235.299 239.638 231.265C238.6 228.107 235.952 225.169 232.493 225.249C231.091 225.282 230.71 223.373 231.806 222.655C235.598 220.169 235.429 215.147 234.497 211.161C233.388 206.42 231.053 202.144 228.935 197.817L228.806 197.552C226.127 192.048 223.364 186.581 220.721 181.061L220.236 180.043C218.259 175.874 216.3 171.621 213.332 168.083ZM245.816 487.248C245.974 487.248 245.974 487.499 245.816 487.499C245.659 487.499 245.659 487.248 245.816 487.248ZM127.257 392.847C118.196 395.69 108.573 394.708 99.2328 395.011L99.2739 395.246C99.6468 395.83 99.9052 396.5 100.004 397.059C100.557 400.209 100.888 403.43 101.251 406.608C101.884 412.155 102.64 417.672 102.896 423.24C103.422 425.846 104.084 428.421 104.953 430.949L105.066 431.269C106.901 436.42 107.992 437.746 113.664 436.808C118.171 436.472 122.681 436.179 127.186 435.828L127.804 435.777C129.759 435.607 131.983 435.287 133.292 433.696C136.151 429.81 132.838 424.646 134.4 420.421C136.679 415.286 139.068 419.798 141.996 418.212C143.85 416.928 141.768 412.833 141.035 411.425C138.03 406.3 132.927 402.813 129.693 397.804L129.565 397.62C128.676 396.336 127.532 394.564 127.257 392.847ZM279.497 386.465C276.442 388.048 273.102 389.03 269.645 389.331L270.189 392.793C271.361 400.276 272.51 407.78 273.46 415.306C278.057 407.487 279.906 397.965 280.392 388.901C280.25 388.363 280.091 387.832 279.892 387.324C279.697 387.455 279.5 387.582 279.301 387.705L279.351 387.357L279.447 386.66L279.601 386.668C279.567 386.6 279.534 386.531 279.497 386.465ZM281.451 382.45L281.427 382.327L281.222 382.35C280.843 382.678 280.457 382.995 280.066 383.307L280.114 383.35C280.569 383.065 281.015 382.765 281.451 382.45ZM160.132 180.393L160.212 180.849C162.941 196.507 164.096 212.409 165.817 228.219C167.97 248 171.275 267.632 173.44 287.414C176.353 314.025 176.893 340.785 176.538 367.54C176.485 371.562 176.413 375.584 176.319 379.607C180.037 379.501 183.766 380.002 187.458 380.393L188.775 380.531C202.975 382.002 217.358 382.942 231.392 379.779C230.962 371.403 230.432 363.031 229.826 354.665C228.205 332.249 226.094 309.872 223.967 287.502C221.931 266.103 220.513 244.624 218.217 223.253C216.724 209.35 214.344 195.624 210.135 182.444C208.833 184.64 205.353 185.701 202.875 186.352L201.689 186.658C194.026 188.658 185.995 188.948 178.208 187.567C174.284 186.872 170.454 185.756 166.808 184.112C164.935 183.268 163.165 182.208 161.403 181.147C161.041 180.93 160.571 180.686 160.132 180.393ZM125.863 333.821C124.466 333.192 125.676 331.1 127.062 331.723C135.598 335.563 144.84 337.59 154.16 337.73C155.689 337.753 155.689 340.183 154.16 340.16C144.397 340.013 134.798 337.84 125.863 333.821Z" fill="black"/>
<path fill-rule="evenodd" clip-rule="evenodd" d="M160.372 57.7987C196.293 56.0321 220.665 84.3625 221.713 95.6598C222.441 103.502 221.947 113.961 221.947 120.968C221.947 124.545 223.752 135.417 221.713 140.631C217.176 152.235 212.049 161.324 197.845 161.324C183.641 161.324 161.986 153.961 154.551 144.465C153.193 142.731 136.323 130.039 136.323 120.062C136.323 98.7777 134.742 59.0593 160.372 57.7987Z" fill="#694D3D"/>
<path fill-rule="evenodd" clip-rule="evenodd" d="M135.868 34.8099C137.915 34.17 139.221 35.0913 140.153 36.5185C140.359 36.4785 140.558 36.4811 140.779 36.5344C140.834 36.5477 140.966 36.5977 141.067 36.6371C141.144 36.6695 141.214 36.7089 141.281 36.7506L141.321 36.7295V36.7295C141.475 36.5619 141.636 36.409 141.81 36.2858C142.202 36.009 142.605 35.9284 142.988 35.9853L143.165 35.9201V35.9201C144.681 35.392 146.323 35.6371 147.351 36.9426C147.55 37.1947 147.71 37.4756 147.848 37.7719C148.156 37.8728 148.445 38.0188 148.694 38.1985C148.869 38.1162 149.054 38.047 149.251 37.9961C150.369 37.7093 151.544 37.9799 152.455 38.6654C152.898 38.9989 153.225 39.4165 153.472 39.8933C153.754 39.9595 154.032 40.0784 154.293 40.2382C154.518 40.1265 154.745 40.0218 154.979 39.95C155.832 39.6878 156.748 39.5914 157.636 39.6575C159.55 39.7995 161.401 41.9858 160.122 43.8633L160.082 43.9201C159.92 44.1465 159.778 44.3804 159.648 44.6181C160.106 44.8175 160.547 45.0841 160.955 45.4183C162.948 47.0525 163.128 49.5719 162.755 51.9485L162.739 52.0474H162.744C163.803 52.148 164.718 53.2546 164.092 54.2953L164.062 54.3441C163.214 55.6531 162.488 57.0991 161.679 58.4766C159.439 59.2841 157.279 60.2786 155.246 61.4835C153.979 62.5932 152.773 63.7664 151.712 65.0716C151.182 65.7234 150.696 66.4133 150.249 67.1286C150.606 67.3005 151.049 67.2917 151.422 66.9457C154.744 63.8667 158.758 61.7058 163.032 60.2577C163.34 60.1532 163.542 59.9565 163.655 59.7237C165.552 59.1831 167.483 58.7638 169.433 58.4671C169.971 57.9549 170.534 57.4653 171.069 56.9552C171.752 56.3044 172.608 56.3139 173.247 56.7227C173.565 56.5779 173.89 56.4501 174.219 56.3353L174.424 56.2655C174.509 56.2375 174.591 56.2051 174.675 56.1795C176.963 55.48 179.055 55.7397 181.306 56.3144L181.594 56.3895C182.643 56.6678 183.303 56.6233 184.319 56.3671L184.434 56.3378C185.513 56.0562 186.668 55.8477 187.771 56.1442C188.926 56.4545 189.692 57.1446 190.478 57.9784L190.557 58.0623C190.924 58.4549 191.136 58.4977 191.616 58.4881L192.131 58.4729C194.073 58.4197 195.974 58.5016 197.429 60.0036C197.966 60.5591 198.543 61.3453 198.89 62.0628L198.94 62.1699C198.956 62.2047 198.97 62.2339 198.983 62.26C199.192 62.2263 199.517 62.0943 199.671 62.0642C201.788 61.6537 203.553 62.2863 204.912 63.9541C205.21 64.3191 205.659 65.0358 205.97 65.4297C206.079 65.5222 206.182 65.6212 206.279 65.7253C206.789 66.0512 207.512 66.0306 208.085 66.1448C209.644 66.4553 211.31 67.0483 212.103 68.5322C212.434 69.1515 212.557 69.8291 212.697 70.506C213.221 70.8504 213.631 71.3467 213.95 71.884C214.338 72.5363 214.503 73.3352 214.95 73.9512C215.274 74.3987 215.769 74.6376 216.241 74.9111L216.421 75.0168C217.818 75.8487 218.911 76.7719 219.371 78.4018L219.411 78.5468C219.486 78.7964 219.748 79.509 219.519 79.402C219.716 79.5103 220.05 79.5484 220.229 79.6077C221.198 79.9284 222.04 80.4465 222.556 81.3563C222.949 82.0489 223.021 82.7707 223.133 83.5341L223.181 83.8424C223.193 83.9169 223.208 84.0035 223.223 84.0875L223.238 84.1701L223.241 84.172C223.417 84.2479 223.589 84.3301 223.758 84.4187C224.561 84.8916 225.11 85.7124 225.11 86.6625C225.11 87.1237 224.966 87.4831 224.757 87.8037C224.926 88.0606 225.058 88.3344 225.157 88.6394C225.352 89.235 225.365 89.8863 225.3 90.5026C225.221 91.242 225.031 91.9154 224.808 92.6217C224.722 92.8942 224.687 93.2751 224.557 93.5353C224.796 93.8404 224.939 94.2132 224.895 94.581C224.832 95.1072 224.591 95.7222 224.115 96.0173C223.882 97.1668 223.38 98.3414 222.887 99.2812C222.83 99.3902 222.761 99.4874 222.685 99.568C222.754 103.32 222.479 107.098 222.46 110.845C222.439 114.924 222.524 119.005 222.666 123.079C222.906 129.832 223.761 136.814 221.768 143.398C220.138 148.788 216.872 153.414 212.493 156.922C208.009 160.51 202.603 162.587 196.863 162.912C193.943 163.075 190.974 162.743 188.149 161.987L187.847 161.905C185.114 161.154 181.948 160.007 179.937 157.998C178.876 156.936 179.949 154.687 181.506 155.306C183.049 155.92 184.433 156.827 185.964 157.467C187.331 158.038 188.758 158.477 190.204 158.799C193.102 159.451 196.176 159.593 199.122 159.188C209.758 157.733 218.045 148.899 219.68 138.426C220.133 135.525 220.125 132.577 220.094 129.646L220.06 126.435C220.034 123.748 220.025 121.06 220.124 118.375C220.249 114.919 220.493 111.466 220.82 108.025L220.991 106.234C221.193 104.139 221.421 102.028 221.813 99.9614C221.492 99.9782 218.954 95.6371 217.546 93.2113C217.032 92.8037 216.598 92.2972 216.431 91.6419C216.396 91.5051 216.378 91.3672 216.367 91.229C216.061 90.7486 215.739 90.2805 215.398 89.8264L215.324 89.7932C215.267 89.7671 215.222 89.7453 215.196 89.7306C214.454 89.3095 213.833 88.6714 213.409 87.932C213.266 87.6826 213.149 87.4224 213.053 87.1562C212.448 86.562 211.814 85.9951 211.149 85.4635C211.083 85.4113 211.016 85.3625 210.95 85.3111C210.103 84.9949 209.359 84.5185 208.817 83.8324C208.59 83.6921 208.362 83.5546 208.132 83.42C207.441 83.4136 206.744 83.2527 206.065 82.9737C204.823 82.4637 203.831 81.4557 202.584 80.9885C201.264 80.4948 199.875 81.6168 198.473 81.4144C198.115 81.3627 197.76 81.254 197.43 81.0961C196.641 81.9323 195.803 82.7206 194.88 83.4105C193.539 84.4121 192.168 84.8698 190.614 85.3222C189.844 86.0529 188.982 86.7614 187.942 86.8654C185.536 88.789 182.963 90.4115 180.255 91.918C179.819 92.1602 179.386 92.2695 178.975 92.2723C178.126 92.8056 177.199 93.2159 176.22 93.4998C175.913 93.5887 175.596 93.6074 175.285 93.5692L174.435 94.2615V94.2615C173.844 94.7431 173.213 94.9733 172.609 94.9882C172.242 95.2695 171.861 95.5357 171.47 95.7917C171.05 96.0664 170.506 96.1801 169.959 96.147C169.123 96.9642 168.04 97.05 167.133 96.6736C167.008 96.7466 166.88 96.8158 166.736 96.8838C166.54 96.9765 166.336 97.0547 166.127 97.118C165.181 98.1376 163.797 98.6723 162.409 98.5325C161.373 99.1672 160.167 99.4973 158.988 99.4231C158.808 100.327 158.659 101.233 158.533 102.143L158.52 102.81C158.519 102.918 158.519 103.002 158.52 103.058L158.521 103.079C158.636 106.002 158.699 108.925 158.813 111.848L158.824 112.078C158.954 114.632 159.582 119.287 155.829 119.186C154.431 119.148 153.043 118.118 151.954 117.271L151.801 117.151C151.717 117.087 151.632 117.02 151.546 116.952C150.732 116.846 149.929 116.649 149.108 116.618C148.093 116.583 147.027 116.687 146.039 116.917C144.294 117.322 142.607 118.117 141.469 119.555C141.37 119.681 141.278 119.813 141.19 119.946C141.109 120.219 140.972 120.47 140.789 120.688C139.713 123.108 140.335 126.305 141.524 128.519C142.941 131.155 145.184 132.978 148.004 133.896L148.145 133.942C150.072 134.544 150.809 135.71 151.857 137.331C152.838 138.852 153.963 140.27 155.172 141.616C157.511 144.221 160.794 146.371 162.154 149.667C162.429 150.331 161.642 150.956 161.033 150.786C158.646 150.115 156.973 148.416 155.238 146.726C154.038 145.556 152.883 144.338 151.8 143.06C151.573 143.165 151.323 143.235 151.062 143.267C149.913 143.407 148.727 143.349 147.721 142.73C147.257 142.772 146.774 142.611 146.415 142.282C146.086 141.98 145.802 141.653 145.562 141.304C145.198 141.336 144.84 141.346 144.499 141.29C144.334 141.274 144.174 141.231 144.028 141.16C143.757 141.052 143.499 140.887 143.263 140.633C142.783 140.119 142.6 139.392 142.688 138.701C142.593 138.681 142.499 138.657 142.406 138.626C141.768 138.41 141.277 137.981 140.963 137.397C140.402 137.082 139.897 136.655 139.514 136.202C139.048 135.65 138.696 135.028 138.489 134.34C138.276 134.241 138.068 134.126 137.87 133.992C136.447 133.029 135.632 131.221 136.191 129.549L136.21 129.497C136.238 129.421 136.29 129.293 136.352 129.148C136.343 129.03 136.334 128.913 136.328 128.795L136.308 128.439V128.439L136.023 128.318V128.318C134.601 127.752 133.64 126.989 133.469 125.389C133.433 125.058 133.562 124.72 133.764 124.438L133.763 124.349V124.349C133.671 124.302 133.583 124.253 133.505 124.203C132.73 123.708 132.254 122.821 132.307 121.903C132.356 121.067 132.82 120.4 133.341 119.783L133.489 119.61C133.502 119.596 133.516 119.58 133.53 119.564L133.186 119.455C132.963 119.384 132.758 119.313 132.611 119.231C132.041 118.912 131.558 118.48 131.26 117.931C131.217 117.863 131.173 117.797 131.133 117.724C130.748 117.022 130.698 116.123 130.946 115.37C130.975 115.281 131.013 115.197 131.052 115.114C130.005 114.745 129.198 113.981 129.101 112.575C129.063 112.022 129.184 111.471 129.447 110.999C129.389 110.681 129.377 110.352 129.415 110.026C129.046 109.678 128.76 109.258 128.632 108.746C128.39 107.78 128.833 106.86 129.491 106.016C129.247 105.349 129.235 104.597 129.513 103.925C129.406 103.59 129.345 103.236 129.342 102.872C129.334 102.067 129.583 101.394 129.983 100.821C129.42 100.133 129.152 99.2172 129.485 98.3594C129.722 97.7499 129.993 97.1922 130.304 96.6755C130.141 96.2825 130.045 95.8424 130.045 95.3497C130.045 94.4632 130.378 93.761 130.886 93.1862C130.665 92.1365 131.114 90.8581 132.092 90.3959C132.46 90.2215 132.954 90.0394 133.497 89.8977C133.701 89.2602 133.915 88.6252 134.139 87.9948C134.494 87.0024 134.875 86.0238 135.279 85.0565C135.046 85.2601 134.802 85.45 134.55 85.6221C133.753 86.636 132.695 87.5143 131.807 88.0398C130.046 89.0817 128.031 88.4636 127.162 86.7204C126.345 87.3304 125.364 87.6916 124.318 87.5681C123.131 87.4281 122.047 86.6597 121.75 85.4611C121.707 85.2876 121.682 85.1002 121.679 84.9115C120.999 85.3959 120.287 85.8418 119.506 86.097C118.511 86.4222 117.496 85.6422 117.365 84.6705C117.313 84.2853 117.385 83.945 117.538 83.6575L117.441 83.6193C117.425 83.6125 117.409 83.6055 117.393 83.598C116.871 83.3536 116.466 82.9057 116.274 82.389C115.144 82.826 113.851 82.3139 113.493 81.0717C113.066 79.5951 113.041 78.0996 113.374 76.6612C112.178 75.7913 111.398 74.329 111.265 72.8003C111.168 71.7029 111.43 70.6899 111.892 69.7533C110.76 69.33 110.371 67.8463 110.909 66.7774C110.194 66.3683 109.728 65.5011 109.718 64.6569C109.399 64.1734 109.296 63.5507 109.561 62.853C109.91 61.9336 110.621 61.1645 111.435 60.5613C111.08 59.9432 110.816 59.2691 110.653 58.5726C109.978 58.3751 109.434 57.8295 109.323 57.0102C109.184 55.983 109.86 55.1122 110.77 54.8823C110.871 54.5695 110.994 54.2635 111.147 53.9696C110.697 52.9031 110.763 51.5545 111.343 50.3884C111.858 49.3574 112.694 48.7269 113.702 48.2908C113.446 47.4139 113.784 46.5393 114.638 45.8876C115.679 45.091 116.821 44.4821 118.022 44.0519C117.915 42.6244 118.512 41.1625 119.922 40.6648C120.299 40.5318 120.692 40.4828 121.091 40.4844C121.38 39.8547 121.863 39.3428 122.494 38.8896C123.448 38.2042 125.232 38.6229 125.761 39.6978L125.787 39.753C125.814 39.8139 125.843 39.8696 125.871 39.9286C125.977 39.4067 126.227 38.9138 126.627 38.5097C127.629 37.4993 128.687 37.4803 129.705 37.9124C129.891 37.4493 130.117 37.0089 130.392 36.6062C131.39 35.1453 133.039 34.9593 134.246 35.7504C134.73 35.325 135.27 34.9969 135.868 34.8099ZM143.003 122.662C145.012 121.875 147.451 122.108 149.437 122.864L149.582 122.92C151.336 123.614 154.186 125.157 154.529 127.13C154.707 128.152 153.736 129.035 152.75 128.498C151.892 128.031 151.411 127.09 150.728 126.407C150.053 125.732 149.297 125.189 148.472 124.712C146.752 123.719 144.943 123.333 143.003 123.046C142.785 123.016 142.844 122.724 143.003 122.662Z" fill="black"/>
<path fill-rule="evenodd" clip-rule="evenodd" d="M197.519 143.847C195.923 143.197 194.498 142.113 193.457 140.728C193.095 140.247 193.001 139.738 193.077 139.273C193.162 138.75 193.472 138.277 193.895 137.959C194.319 137.64 194.849 137.483 195.362 137.563C195.808 137.632 196.251 137.876 196.603 138.381L196.676 138.482C197.295 139.318 198.102 140.004 199.021 140.446C199.907 140.872 200.898 141.071 201.924 140.955C203.877 140.735 205.223 139.681 206.654 138.249C206.831 138.069 207.008 137.882 207.187 137.693C207.299 137.521 207.456 137.411 207.629 137.353C207.822 137.289 208.04 137.292 208.239 137.362C208.432 137.429 208.604 137.556 208.719 137.725C208.829 137.886 208.891 138.084 208.871 138.313C208.74 139.796 207.963 141.12 206.859 142.16C205.633 143.314 204.008 144.113 202.478 144.393C200.792 144.702 199.075 144.481 197.519 143.847V143.847ZM203.273 120.962C205.066 122.05 207.799 124.587 205.87 127.284C203.599 129.662 200.329 126.935 198.718 125.702C197.224 124.746 195.545 127.204 196.932 128.32C208.574 136.922 213.299 121.246 204.18 119.683C203.176 119.51 202.803 120.625 203.273 120.962ZM182.409 110.955C182.608 108.5 186.353 107.943 186.726 110.372C187.06 112.548 186.667 114.546 185.685 116.505C184.747 118.377 182.388 117.504 182.21 115.8C181.971 113.515 182.286 112.482 182.409 110.955ZM210.923 109.868C211.446 109.186 212.2 108.72 213.103 108.983C215.926 109.806 215.094 113.805 214.102 115.752C213.564 116.809 211.823 117.077 211.036 116.146C209.753 114.628 209.139 111.597 210.77 110.102C210.814 110.025 210.863 109.947 210.923 109.868ZM185.645 100.215L186.091 100.137C187.47 99.8986 189.185 99.6699 190.161 100.777C190.679 101.363 190.857 102.454 190.161 103.016C188.938 104.004 187.585 103.621 186.119 103.705C184.91 103.774 183.749 103.974 182.585 104.306C180.031 105.034 177.951 106.364 175.77 107.824C175.484 108.015 175.192 107.65 175.328 107.383C176.587 104.922 179.027 102.9 181.471 101.668C182.775 101.01 184.202 100.465 185.645 100.215ZM208.35 99.1123L208.692 99.182C212.405 99.9567 217.23 101.504 218.989 105.145C219.056 105.659 218.985 105.77 218.927 105.842L218.908 105.866C218.861 105.927 218.823 106.012 218.599 106.082C218.537 106.067 218.475 106.052 218.411 106.035C217.605 105.824 216.967 105.534 216.35 105.233L215.68 104.903C214.904 104.523 214.12 104.157 213.29 103.887C211.518 103.31 209.695 102.903 207.844 102.686C207.442 102.639 207.056 102.504 206.751 102.273C206.462 102.053 206.241 101.749 206.14 101.344C206.01 100.82 206.047 100.424 206.329 99.9517C206.54 99.597 206.843 99.3511 207.191 99.2099C207.545 99.066 207.949 99.0321 208.35 99.1123Z" fill="black"/>
<path fill-rule="evenodd" clip-rule="evenodd" d="M212.185 115.688C210.086 113.514 207.98 111.309 205.295 109.807C205.413 109.164 205.153 108.424 204.386 108.116C196.955 105.343 192.23 113.324 186.848 116.89C185.591 117.564 184.329 118.342 182.925 118.606C179.939 119.476 177.405 121.277 175.605 123.644C174.632 124.577 172.917 126.133 172.44 127.401C172.149 127.919 146.013 115.51 140.064 114.129C137.248 113.188 135.731 115.846 139.301 117.21C148.683 120.794 167.052 128.816 171.153 131.128C170.365 133.555 170.129 136.771 170.897 139.171C170.252 142.906 171.504 146.329 173.979 149.011C174.504 149.772 175.305 150.321 175.827 150.982C177.723 155.926 182.271 158.318 187.594 160.681C196.063 164.442 203.446 165.195 208.087 163.548C220.136 158.958 227.129 145.469 224.876 133.179C222.757 124.522 223.194 116.927 212.185 115.688Z" fill="#9DDADB"/>
<path fill-rule="evenodd" clip-rule="evenodd" d="M186.047 115.632C193.294 111.594 194.518 103.366 205.029 107.549C208.313 108.873 209.467 110.833 211.658 113.281C212.792 114.31 214.221 114.822 215.63 115.37C220.991 117.146 224.135 122.192 225.334 127.493C228.471 138.495 225.186 151.385 217.169 159.392C217.282 159.594 217.26 159.887 217.015 160.022C216.565 160.269 216.117 160.523 215.671 160.781C212.867 163.199 207.178 166.378 202.96 166.378C193.556 166.378 184.472 162.571 178.921 157.684C171.815 151.965 167.334 140.032 169.64 131.444C156.428 125.237 144.189 120.522 139.073 118.477C139.073 118.477 137.179 116.495 139.038 117.019C151.05 120.406 174.701 131.419 174.986 131.431C175.155 131.438 175.775 130.085 175.897 129.504C175.344 129.444 142.72 115.399 138.657 114.096L138.442 114.027C136.509 113.418 136.992 112.944 138.477 113.03C141.488 113.206 167.017 125.032 171.984 126.217C174.204 121.24 180.508 118.656 186.047 115.632ZM201.872 108.576C197.837 107.391 194.871 110.313 192.713 113.377C187.622 119.677 178.336 119.876 174.501 127.361L174.387 127.59L175.905 128.045L175.946 127.977C176.066 127.791 176.422 127.319 176.724 127.748C178.294 129.432 175.836 135.021 174.546 132.56L174.507 132.483L172.4 131.904C168.592 147.301 183.12 161.164 197.737 163.512C197.737 163.512 203.835 163.61 206.279 163.021C208.081 162.587 209.638 161.747 211.301 160.913C212.954 160.085 214.32 158.802 215.921 157.926C220.496 153.398 223.505 147.183 224.323 140.735C225.124 133.004 224.374 123.161 217.652 118.258C215.438 116.858 212.71 116.481 210.686 114.749C208.272 112.086 205.446 109.378 201.872 108.576ZM194.615 144.744C194.548 144.633 194.704 144.527 194.793 144.61C196.207 145.931 197.575 147.307 198.896 148.723C198.966 148.701 199.045 148.68 199.147 148.655C199.632 148.537 200.051 149.043 199.817 149.489L199.761 149.588C199.408 150.188 198.596 150.716 198.113 149.993C196.883 148.289 195.713 146.537 194.615 144.744ZM177.132 147.914L177.131 147.862C177.104 147.347 176.684 146.048 177.537 146.247C178.523 146.82 178.888 148.317 178.944 149.38C179.005 150.547 177.065 150.562 177.116 149.38C177.136 148.891 177.175 148.402 177.132 147.914ZM218.087 144.322C218.224 144.297 218.297 144.468 218.178 144.546C216.615 145.422 216.746 147.189 216.493 148.662C214.698 149.856 214.881 144.74 218.087 144.322ZM173.231 138.07C188.285 139.585 204.48 144.07 219.876 139.51C220.809 139.257 221.18 140.697 220.249 140.946C204.73 144.872 188.25 142.527 173.231 138.07ZM214.059 131.865C214.525 131.757 214.964 134.052 215.683 134.479C216.04 135.196 218.875 135.828 217.68 136.708C215.642 137.133 213.407 133.694 214.059 131.865ZM200.833 132.408C201.182 132.401 201.422 132.669 201.536 132.973C201.849 133.867 200.512 133.724 200.014 134.022C197.907 135.469 195.475 136.637 192.886 136.691C192.725 136.694 192.723 136.481 192.855 136.429L193.307 136.253C194.731 135.694 196.103 135.121 197.412 134.293C198.473 133.624 199.493 132.378 200.833 132.408ZM192.881 116.676C192.525 114.116 200.628 107.653 203.112 110.432C203.754 111.147 202.911 112.209 202.064 111.758C198.603 110.851 195.292 114.617 192.881 116.676Z" fill="black"/>
</svg>
