<svg width="414" height="896" viewBox="0 0 414 896" fill="none" xmlns="http://www.w3.org/2000/svg">
<path fill-rule="evenodd" clip-rule="evenodd" d="M291.818 460.664C290.917 458.16 292.291 455.684 293.063 453.277C295.804 444.93 288.726 423.744 283.638 423.387C281.822 418.635 276.872 416.625 272.987 413.861C268.575 411.097 264.288 407.929 259.696 405.499C259.461 403.241 256.684 402.656 254.967 404.253C250.322 401.352 244.714 401.829 239.723 399.909C235.974 393.827 235.749 387.467 234.797 381.624C234.382 379.077 234.872 376.629 233.126 374.345C227.266 366.08 203.837 362.298 195.14 367.08C190.51 364.181 190.349 369.349 189.579 372.533C188.741 374.121 188.279 375.925 188.399 377.831C186.151 382.336 184.228 387.978 179.563 391.314C173.643 395.547 164.583 397.091 158.832 399.14C157.558 397.912 157.182 396.15 157.182 396.15C148.28 397.964 139.627 401.218 132.135 406.357C123.656 408.707 117.637 415.409 113.262 422.616C112.78 423.375 112.661 424.153 112.793 424.87C99.3697 443.821 92.8324 466.6 91.7253 489.658C83.1621 494.6 95.2956 539.841 98.131 549.237C98.134 549.236 98.1369 549.235 98.1399 549.233C100.006 552.553 102.07 561.993 106.826 561.31C110.048 564.96 115.246 564.298 119.663 564.618C118.917 567.325 119.241 570.434 120.073 573.124C121.056 576.326 126.028 576.482 126.766 573.008C170.702 581.832 215.928 575.555 260.427 577.24C273.296 577.452 286.16 577.966 298.99 578.989C300.797 579.133 302.647 577.335 302.541 575.565C300.055 546.676 297.824 508.683 295.009 480.074C294.339 473.549 293.823 466.954 291.818 460.664Z" fill="#EDB98A"/>
<path fill-rule="evenodd" clip-rule="evenodd" d="M157.226 396.342C157.21 396.279 157.195 396.215 157.182 396.15C148.281 397.964 139.628 401.218 132.135 406.357C123.657 408.707 117.637 415.409 113.262 422.616L113.204 422.711C112.771 423.44 112.667 424.183 112.793 424.87C99.3698 443.821 92.8326 466.6 91.7255 489.658C83.1623 494.6 95.2958 539.842 98.1312 549.237L98.1401 549.233C98.605 550.06 99.0823 551.268 99.6105 552.604C101.202 556.629 103.255 561.823 106.826 561.31C109.446 564.278 113.371 564.395 117.121 564.507C117.984 564.533 118.837 564.558 119.663 564.618C118.917 567.325 119.225 572.17 120.056 574.86C121.039 578.062 261.607 582 298.99 578.989C300.796 578.844 302.647 577.335 302.541 575.565C301.497 563.433 300.498 549.694 299.482 535.72C298.078 516.419 296.642 496.668 295.009 480.074C294.945 479.449 294.883 478.825 294.82 478.199C294.227 472.29 293.631 466.352 291.818 460.664C291.099 458.665 291.83 456.683 292.547 454.74C292.728 454.25 292.908 453.762 293.063 453.277C295.804 444.93 289.224 423.799 284.366 423.44L283.639 423.387C282.243 419.737 278.999 417.705 275.809 415.706C274.942 415.162 274.078 414.621 273.257 414.051L272.987 413.861C271.484 412.919 269.994 411.93 268.502 410.939C265.617 409.023 262.723 407.101 259.696 405.499C259.461 403.241 256.684 402.656 254.968 404.253C254.229 403.791 253.465 403.415 252.684 403.101L252.333 407.297C246.844 426.678 231.982 437.349 207.747 439.311C171.394 442.253 155.363 406.321 155.397 402.705C155.412 401.12 155.965 399.123 157.054 396.716L157.226 396.342ZM208.392 481.875L205.149 483.892C205.149 483.892 205.088 490.308 205.767 497.394C206.445 504.479 212.197 512.437 212.197 512.437C212.197 512.437 229.412 507.964 232.782 507.37C235.308 506.924 237.468 503.776 239.064 501.448C239.596 500.671 240.066 499.986 240.466 499.523C241.466 498.366 244.211 497.874 247.26 497.327C249.089 496.999 251.027 496.651 252.764 496.129C257.397 494.736 259.26 488.847 259.26 488.847C259.26 488.847 269.378 486.801 272.638 486.117C275.897 485.433 272.672 482.487 272.672 482.487L247.469 481.38C247.469 481.38 262.593 478.353 265.83 477.947C269.067 477.542 277.777 474.974 277.797 472.921C277.816 470.94 264.997 470.823 257.876 470.758C257.617 470.755 257.366 470.753 257.124 470.751C250.198 470.685 234.84 471.817 234.84 471.817L240.756 469.102C240.756 469.102 260.721 465.498 263.378 465.524C266.035 465.549 267.18 461.651 267.18 461.651C267.18 461.651 266.063 459.036 264.176 457.569C262.288 456.102 247.326 458.858 236.447 461.359C225.569 463.86 221.259 468.257 221.259 468.257L208.392 481.875Z" fill="#04154A"/>
<path fill-rule="evenodd" clip-rule="evenodd" d="M247.86 457.895L261.072 429.216C261.072 429.216 263.073 424.342 266.392 424.373C269.712 424.405 299.802 425.617 299.802 425.617C299.802 425.617 305.954 426.448 303.935 429.624C301.916 432.8 271.775 491.971 271.775 491.971L259.231 491.851L259.26 488.848L273.261 485.143C273.261 485.143 275.828 482.517 271.865 482.479C267.902 482.442 244.855 481.355 244.855 481.355L266.869 478.394L277.783 474.387L276.204 472.211L266.941 470.821L236.723 471.836L244.97 469.181L263.378 465.524C263.378 465.524 267.015 463.058 267.038 460.605C267.062 458.153 257.391 457.117 257.391 457.117L247.86 457.895Z" fill="#FDE546"/>
<path fill-rule="evenodd" clip-rule="evenodd" d="M190.34 368.816C190.47 368.478 190.984 368.528 190.99 368.908C191.115 377.026 188.965 386.923 182.306 392.342C178.888 395.123 174.391 396.368 170.259 397.809L169.793 397.973L162.492 400.568C160.556 401.256 158.464 402.323 156.769 401.308C158.116 404.683 159.241 408.148 160.89 411.404C162.943 415.457 165.436 419.17 168.498 422.556C180.629 435.968 199.99 440.208 217.436 436.478C226.42 434.557 235.179 430.838 241.361 423.962C246.06 418.736 248.797 411.687 249.493 404.715C249.309 404.742 249.116 404.739 248.918 404.695C246.72 404.201 244.508 403.02 242.58 401.863L242.395 401.752C240.54 400.63 238.608 399.348 237.286 397.62C235.973 395.905 234.631 390.339 234.631 390.339C234.271 388.248 233.954 384.087 234.035 381.978C234.043 381.779 234.942 381.67 235.036 381.877C235.85 383.676 236.081 387.614 236.704 389.484L236.83 389.858C237.496 391.811 238.06 394.187 239.464 395.774C242.1 398.754 246.107 400.043 249.681 401.559C249.97 398.222 255.397 398.351 255.295 401.834C255.289 402.023 255.279 402.211 255.27 402.399C255.696 402.634 256.105 402.903 256.488 403.162L256.861 403.416C258.273 404.379 259.696 405.296 261.202 406.116C264.116 407.705 267.206 408.972 270.194 410.417C273.217 411.879 276.041 413.614 278.673 415.683C279.91 416.654 281.094 417.688 282.216 418.785L282.521 419.085C283.589 420.151 284.981 421.344 285.582 422.737C285.714 423.044 286.386 423.762 286.753 423.789C292.453 424.211 298.139 424.784 303.799 425.616C305.264 425.831 305.837 426.58 305.283 427.776C303.38 431.889 295.927 448.315 293.945 452.723C294.14 455.978 293.798 459.803 293.971 463.058C294.225 467.808 294.571 472.557 294.995 477.296C296.511 494.246 298.894 511.121 301.032 528.003C302.102 536.452 303.07 544.912 304.025 553.374C304.507 557.65 304.91 561.93 305.211 566.222C305.336 568.011 305.448 569.801 305.545 571.591L305.628 573.179C305.744 575.178 306.037 577.088 304.763 578.791C304.185 579.563 302.879 579.988 302.138 579.098C301.206 577.978 300.864 577.145 300.787 575.686C300.729 574.568 300.723 573.446 300.682 572.328C300.593 569.904 300.476 567.481 300.334 565.059C300.051 560.217 299.722 555.376 299.333 550.541C297.971 533.588 295.235 516.75 293.468 499.835C292.578 491.307 291.969 482.766 291.685 474.198C291.543 469.919 291.518 465.641 291.602 461.36C291.633 459.761 291.725 458.17 291.852 456.583C288.904 463.001 285.808 469.356 282.575 475.624L281.809 477.109C279.76 481.07 277.658 485.047 275.205 488.777L274.784 489.413C273.79 490.928 272.43 493.319 270.64 493.783C269.393 494.106 267.876 493.856 266.601 493.82C265.336 493.784 264.069 493.767 262.805 493.704C261.387 493.635 260.036 493.439 258.668 493.062C258.441 493 258.226 492.933 258.031 492.848C256.629 495.055 254.266 496.725 251.857 497.688C249.928 498.459 247.909 498.981 245.887 499.463L245.173 499.631C243.005 500.14 240.529 500.369 239.29 502.41L239.002 502.883C238.08 504.388 237.198 505.71 235.686 506.781C234.06 507.935 232.139 508.652 230.227 509.206C228.269 509.773 226.267 510.202 224.28 510.664L223.738 510.79C222.427 511.1 221.103 511.383 219.799 511.721C219.243 511.865 218.677 512.013 218.13 512.192C217.491 512.401 217.024 512.733 216.518 513.094C216.051 514.642 214.111 515.466 212.523 515.343C211.689 515.278 210.943 514.993 210.266 514.579C209.067 515.562 207.75 516.44 206.53 517.35C204.82 518.624 203.105 519.889 201.38 521.142C197.823 523.725 194.239 526.273 190.619 528.77C184.194 533.202 177.632 537.427 170.961 541.492C168.179 543.187 165.379 544.879 162.552 546.529L162.851 546.641L163.444 546.868C164.846 547.397 166.405 548.246 166.662 549.862C166.866 551.143 166.131 552.018 164.844 552.162C163.315 552.333 162.137 551.261 161.195 550.239C160.78 549.789 160.314 549.37 159.916 548.906C159.754 548.717 159.63 548.499 159.521 548.271C156.732 549.852 153.913 551.378 151.051 552.803L150.335 553.157C143.238 556.639 136.326 560.463 129.17 563.844C127.303 564.726 125.029 565.678 122.661 566.319C123.265 568.713 123.23 571.333 123.223 573.756C123.216 576.118 119.398 576.07 119.501 573.721L119.55 572.587C119.638 570.679 119.771 568.699 120.249 566.847C113.28 567.915 106.353 565.384 105.066 564.631C103.646 563.802 102.361 562.483 101.294 561.261C99.0096 558.645 97.4368 555.52 96.0449 552.379C93.0634 545.651 90.9741 538.47 89.4649 531.294C83.9009 504.837 86.6709 476.603 96.3554 451.385C98.775 445.084 101.619 438.926 104.868 432.996L105.271 432.263C108.513 426.4 112.109 420.562 116.654 415.589C121.387 410.409 127.204 406.401 133.525 403.307C136.61 401.797 139.782 400.494 143.022 399.342C143.542 399.157 144.066 398.992 144.591 398.834C147.976 396.758 152.079 394.78 156.163 394.898C156.441 394.906 156.664 395.011 156.831 395.169C157.027 395.205 157.224 395.248 157.42 395.306C157.855 395.434 158.31 395.908 158.243 396.389L158.22 396.549C158.208 396.627 158.193 396.702 158.167 396.776C158.313 396.799 158.456 396.834 158.596 396.883C162.515 395.835 166.376 394.213 170.203 392.911L171.074 392.617C174.279 391.548 177.566 390.5 180.208 388.348C182.835 386.206 184.822 383.419 186.268 380.4C188.05 376.679 188.87 372.639 190.34 368.816ZM266.717 566.655C267.496 566.097 268.405 566.762 268.688 567.465C269.617 569.773 269.113 573.34 267.753 575.359C266.345 577.451 263.029 576.589 262.973 574.037C262.914 571.377 264.517 568.233 266.717 566.655ZM275.314 503.266C275.386 502.968 275.858 502.975 275.926 503.272C276.545 505.975 276.502 508.879 276.665 511.646L276.684 511.953C276.882 515.004 277.043 518.064 277.15 521.12C277.36 527.132 277.622 533.145 277.923 539.154C278.072 542.134 278.234 545.113 278.408 548.092C279.046 547.75 279.704 547.45 280.384 547.187C281.404 546.793 282.394 546.757 283.486 546.778C284.815 546.804 285.805 547.963 285.617 549.241C285.412 550.633 284.157 551.219 282.862 551.007C281.428 550.773 279.989 550.417 278.54 550.261C278.68 552.564 278.825 554.867 278.98 557.168C279.185 560.215 279.462 563.259 279.648 566.307C279.666 566.597 279.685 566.889 279.705 567.181C280.574 566.747 281.494 566.53 282.538 566.261L282.809 566.189C284.324 565.777 285.947 565.202 287.336 566.214C288.269 566.895 288.447 568.001 287.66 568.88C286.466 570.212 284.721 569.935 283.091 569.851L282.214 569.811C281.387 569.771 280.624 569.712 279.862 569.499C279.983 571.485 280.038 573.477 279.772 575.43C279.628 576.486 278.21 576.75 277.846 575.668C276.894 572.841 276.721 569.801 276.39 566.846C276.082 564.087 275.905 561.309 275.712 558.538L275.654 557.708C275.219 551.612 274.883 545.515 274.653 539.409C274.423 533.304 274.308 527.202 274.297 521.093C274.292 518.319 274.366 515.536 274.503 512.764L274.546 511.933C274.7 509.082 274.64 506.054 275.314 503.266ZM145.368 565.95C145.41 565.561 145.732 565.08 146.204 565.145C146.639 565.205 147.087 565.182 147.517 565.257C148.085 565.355 148.539 565.689 149.066 565.902C149.922 566.248 150.857 566.431 151.735 566.716C153.384 567.25 154.269 568.97 153.569 570.561C152.833 572.234 151.02 572.598 149.462 571.879C148.235 571.311 147.325 570.415 146.506 569.379L146.274 569.084C145.921 568.639 145.52 568.142 145.375 567.606C145.235 567.083 145.312 566.48 145.368 565.95ZM225.796 558.817C227.859 558.552 229.612 559.261 231.512 559.931L231.666 559.986C233.6 560.662 236.426 561.145 237.402 563.106C237.99 564.288 237.51 565.847 236.095 566.181C233.854 566.711 231.864 565.086 230.026 563.987L229.929 563.93C228.155 562.886 226.321 562.005 225.199 560.222C224.899 559.747 225.171 558.898 225.796 558.817ZM155.416 397.12C154.589 397.294 153.762 397.447 152.937 397.593C149.785 399.215 146.724 400.901 143.472 402.342C140.022 403.871 136.584 405.451 133.303 407.31C126.674 411.064 121.191 415.975 116.643 422.016C108.785 432.45 102.899 444.514 98.6527 456.771C97.5615 459.92 96.5816 463.105 95.711 466.319C97.209 464.983 98.9753 464.169 100.954 463.477C101.792 463.184 102.828 463.704 103.244 464.419C103.432 464.74 103.536 465.057 103.513 465.431C103.461 466.258 102.905 467.192 102 467.347C99.8894 467.708 97.8341 468.432 95.7967 469.066C95.4879 469.163 95.2236 469.123 95.0134 469.004C92.917 477.379 91.574 485.935 91.0452 494.55C90.5979 501.843 90.761 509.199 91.5141 516.494C92.1487 516.221 92.7693 515.965 93.4636 515.813C94.3642 515.616 95.2505 515.374 96.1297 515.1C98.6669 514.309 99.7817 518.424 97.1903 519.025C96.2259 519.249 95.256 519.433 94.2742 519.565C93.4186 519.68 92.6633 519.619 91.8589 519.482C92.4311 524.034 93.2288 528.555 94.2573 533.014L94.4843 533.99C95.8212 539.685 97.3877 545.436 99.681 550.828C100.806 553.473 102.305 555.99 104.164 558.204C105.077 559.292 106.093 560.228 107.203 561.116C108.127 561.855 111.275 563.469 115.022 563.504C118.769 563.54 119.786 563.201 121.683 562.58C125.433 561.351 129.002 559.366 132.525 557.601L132.889 557.419C134.447 556.645 135.999 555.86 137.547 555.068C137.367 553.523 137.72 552.23 138.552 550.812C139.451 549.278 141.635 550.067 141.783 551.646L141.787 551.706C141.809 552.062 141.866 552.425 141.938 552.787C152.29 547.341 162.427 541.503 172.406 535.415C178.835 531.493 185.196 527.452 191.466 523.289C194.6 521.209 197.708 519.09 200.786 516.928C202.398 515.796 204.003 514.655 205.6 513.503C206.266 513.023 206.919 512.519 207.585 512.037C207.426 511.838 207.271 511.638 207.121 511.441C204.679 508.236 203.11 504.427 202.348 500.507C201.888 498.141 201.678 495.688 201.63 493.28L201.609 492.233C201.577 490.468 201.581 488.623 201.928 486.917C201.476 487.156 201.014 487.39 200.553 487.641C198.9 488.54 197.246 489.438 195.588 490.332C192.27 492.12 188.942 493.888 185.572 495.582C179.554 498.61 173.478 501.485 167.241 504.055L164.207 505.307C158.94 507.475 153.632 509.602 148.162 511.198C145.077 512.098 140.454 513.205 137.327 513.885C137.327 513.885 141.054 517.403 138.321 518.575C135.589 519.747 133.378 515.131 133.292 514.713C131.852 514.995 127.74 515.671 127.74 515.671C123.833 516.373 120.037 517.803 116.533 519.644C115.314 520.285 114.989 519.015 116.281 518.145C120.061 515.601 124.455 514.182 128.986 513L129.208 512.942C130.87 512.512 132.53 512.062 134.186 511.596C134.01 510.949 133.912 510.278 133.94 509.539C134.002 507.894 134.166 506.244 134.27 504.6C134.49 501.15 134.761 497.712 135.073 494.269C135.192 492.943 135.325 491.613 135.475 490.284C134.594 489.809 133.836 489.182 132.852 488.868L132.685 488.819C131.632 488.529 132.001 487.195 132.94 487.09C133.791 486.994 134.636 487.05 135.472 487.235C135.602 487.264 135.724 487.296 135.841 487.332C136.007 486.102 136.189 484.875 136.395 483.655C136.938 480.432 137.334 477.034 138.431 473.943C138.512 473.714 138.86 473.635 138.986 473.877C140.512 476.797 140.532 480.36 140.677 483.596L140.695 483.983C140.867 487.514 140.845 491.077 140.745 494.61C140.642 498.251 140.481 501.882 140.28 505.518C140.199 506.983 140.187 508.503 139.92 509.901C149.193 507.036 158.307 503.587 167.052 499.483C173.22 496.589 179.336 493.576 185.384 490.447C188.414 488.879 191.459 487.337 194.486 485.764C195.546 485.212 196.606 484.659 197.666 484.104L199.255 483.272C200.741 482.493 201.984 481.715 203.707 481.676C204.221 481.664 204.679 481.905 205.003 482.266C205.935 481.63 207.009 481.243 208.132 481.263C209.845 478.984 211.583 476.724 213.389 474.514L214.723 472.878C217.033 470.055 219.478 467.191 222.408 465.053C223.716 464.1 225.152 463.388 226.648 462.804C226.298 462.716 225.956 462.544 225.653 462.262C224.242 460.952 224.069 458.541 223.798 456.728C223.515 454.849 223.647 453.171 223.961 451.303C224.083 450.577 225.31 450.437 225.602 451.108C226.219 452.522 226.874 453.877 227.434 455.306L227.599 455.737C228.199 457.346 229.494 459.044 229.391 460.782C229.363 461.258 229.196 461.672 228.942 462.003C230.197 461.607 231.469 461.255 232.722 460.887C236.664 459.731 240.622 458.608 244.638 457.72C245.707 457.484 246.781 457.265 247.859 457.065C248.448 454.439 249.295 451.864 250.288 449.337C249.375 448.867 248.788 448.087 248.005 447.39C247.271 446.738 246.771 445.948 246.147 445.201C245.579 444.522 245.913 443.308 246.945 443.357L247.237 443.372C248.306 443.431 249.34 443.549 250.305 444.049L250.649 444.227C251.12 444.474 251.636 444.755 252.095 445.087C252.711 443.728 253.352 442.381 253.999 441.049L254.839 439.326C257.016 434.842 259.189 430.186 261.909 426.017C263.118 424.163 264.715 423.014 266.993 422.856C269.338 422.692 271.772 422.955 274.118 423.06C276.838 423.181 279.556 423.321 282.273 423.487C281.583 422.763 280.955 421.959 280.262 421.264C279.111 420.112 277.894 419.018 276.614 418.006C274.08 416.002 271.289 414.345 268.387 412.913C265.484 411.481 262.494 410.228 259.773 408.467C258.052 407.352 256.517 405.956 255.118 404.447C254.139 413.867 249.424 422.582 242.403 429.096C235.11 435.862 225.087 439.522 215.301 441.026C205.319 442.56 194.923 441.863 185.422 438.368C180.523 436.566 175.832 434.013 171.657 430.827C171.609 431.1 171.55 431.37 171.439 431.623C171.289 431.963 171.107 432.253 170.898 432.551L170.527 433.074C170.293 433.403 170.054 433.729 169.789 434.034C169.146 434.772 168.243 435.089 167.273 435.076C165.416 435.052 164.027 433.249 164.543 431.484C164.868 430.375 165.546 429.712 166.599 429.287C166.932 429.152 167.271 429.04 167.612 428.93L167.868 428.847C168.213 428.735 168.554 428.628 168.909 428.567C166.934 426.821 165.105 424.926 163.47 422.883C158.342 416.478 153.309 407.528 155.124 399.103C155.156 398.959 155.289 398.869 155.433 398.847C155.539 398.256 155.865 397.686 156.308 397.304C156.013 397.225 155.716 397.163 155.416 397.12ZM207.903 543.575C208.935 543.023 209.984 544.368 209.141 545.184L207.883 546.398C206.715 547.53 205.578 548.674 204.575 549.967L204.332 550.283C202.978 552.058 201.533 554.115 199.336 554.763C196.679 555.545 194.163 552.349 195.719 550.047C197.079 548.034 199.667 547.295 201.9 546.479C204.013 545.707 205.924 544.631 207.903 543.575ZM122.516 533.417C123.127 532.646 124.698 533.07 124.275 534.165C122.901 537.722 122.309 542.583 118.903 544.923C117.805 545.677 116.094 545.309 115.203 544.417C114.192 543.404 114.164 541.991 114.76 540.772C115.486 539.285 117.248 538.219 118.487 537.093L118.598 536.991C119.931 535.742 121.368 534.865 122.516 533.417ZM263.872 538.87C264.954 538.424 267.77 537.563 268.593 538.621C268.631 538.66 268.664 538.702 268.69 538.749C268.891 539.1 268.917 539.591 268.679 539.935C267.696 541.358 266.675 542.418 265.287 543.424L265.131 543.536C263.62 544.606 262.197 545.867 260.364 546.339C257.822 546.993 256.081 543.856 257.879 542.052C259.327 540.598 261.524 539.857 263.433 539.056L263.872 538.87ZM162.26 517.507C161.843 516.75 162.719 515.834 163.499 516.313C165.724 517.679 168.322 518.712 170.83 519.461C171.844 519.764 172.753 520.786 172.667 521.879L172.653 522.045C172.62 522.431 172.562 522.814 172.309 523.133C171.423 524.25 170.166 524.672 168.834 523.993C165.867 522.48 163.846 520.388 162.26 517.507ZM227.706 515.848C227.654 515.531 227.892 515.289 228.22 515.353C230.108 515.723 231.846 516.638 233.461 517.685C234.327 518.247 235.162 518.864 236.025 519.431C237.093 520.131 237.489 520.705 237.636 521.974C237.733 522.811 236.931 523.567 236.2 523.791C234.209 524.401 231.954 522.315 230.621 520.961L230.561 520.9C229.167 519.476 228.021 517.797 227.706 515.848ZM284.543 514.197C284.122 513.049 285.618 512.114 286.584 512.685C287.494 513.223 288.483 513.672 289.34 514.286C290.128 514.851 290.845 515.518 291.6 516.13L291.973 516.426C293.358 517.541 295.635 520.29 293.625 521.852C291.712 523.339 289.213 521.393 287.952 519.975L287.864 519.875C287.139 519.036 286.244 518.123 285.721 517.146C285.229 516.226 284.9 515.172 284.543 514.197ZM266.662 425.427C264.28 425.858 263.283 428.733 262.264 430.604C259.859 435.019 257.642 439.518 255.417 444.022C254.731 445.407 254.064 446.803 253.39 448.197C253.349 448.306 253.296 448.413 253.234 448.519C251.854 451.368 250.435 454.198 248.781 456.9C250.273 456.639 251.773 456.42 253.278 456.25C253.215 454.858 254.202 453.006 254.693 451.84L254.734 451.741C255.346 450.246 255.995 447.888 257.541 447.124C258.056 446.87 258.601 447.2 258.636 447.755C258.736 449.408 257.075 451.283 256.258 452.677C255.764 453.521 255.282 454.368 254.812 455.225C254.636 455.545 254.489 455.861 254.308 456.143C255.084 456.068 255.861 456.002 256.64 455.956L257.148 455.927C260.034 455.767 263.099 455.743 265.693 457.166C268.099 458.486 269.309 461.266 267.956 463.775C266.271 466.9 262.622 467.281 259.414 467.506C255.407 467.785 251.389 468.32 247.409 468.841C243.291 469.38 239.405 470.833 235.347 471.56C234.97 471.627 234.74 471.141 235.087 470.937C238.301 469.056 242.195 468.041 245.778 467.004L246.067 466.92C248.011 466.353 249.911 465.703 251.918 465.39C253.867 465.087 255.828 464.844 257.792 464.665L257.983 464.649C260.145 464.492 265.658 464.605 265.454 461.458C265.32 459.376 261.882 458.984 260.311 458.944C253.108 458.762 245.835 460.572 238.97 462.52L237.437 462.956C234.626 463.758 231.811 464.585 229.051 465.53C225.923 466.602 223.451 468.295 221.159 470.623C218.617 473.205 216.154 475.846 213.518 478.339C211.857 479.911 210.175 481.454 208.479 482.984C208.095 483.463 207.786 483.986 207.569 484.666C207.203 485.815 207.274 486.886 207.397 488.07C207.707 491.062 207.753 494.081 208.149 497.064C208.516 499.827 209.039 502.693 210.18 505.264C210.632 506.282 211.224 507.284 211.899 508.181L212.445 508.892C212.683 509.2 212.949 509.538 213.229 509.857C213.648 509.363 214.252 509.045 214.949 509.133C216.43 509.318 217.597 509.288 219.055 508.967C220.183 508.719 221.304 508.426 222.427 508.156C224.634 507.625 226.861 507.144 229.046 506.531L229.421 506.423C231.05 505.949 232.68 505.352 234.041 504.334C235.623 503.152 236.122 501.429 237.3 499.946C239.814 496.781 245.18 496.899 248.822 496.059C251.917 495.347 254.9 494.204 257.059 492.022L257.184 491.892C257.093 491.498 257.251 491.056 257.625 490.856L257.706 490.812C257.852 490.734 258.008 490.703 258.161 490.707C258.362 490.423 258.556 490.129 258.733 489.816C258.879 489.558 259.234 489.752 259.185 490.008C259.156 490.161 259.116 490.31 259.077 490.459C261.153 489.955 263.425 490.077 265.527 490.098L268.255 490.115C268.727 490.113 269.431 490.097 269.494 490.07L269.558 490.042C269.729 489.971 269.486 490.089 269.606 489.935C269.739 489.765 269.869 489.593 269.997 489.42C270.455 488.803 270.889 488.166 271.314 487.524C266.736 488.624 261.997 489.291 257.327 489.84C252.318 490.429 247.244 490.823 242.195 490.78C240.804 490.768 240.836 488.703 242.215 488.665C247.563 488.515 252.883 488.287 258.2 487.665C260.949 487.342 263.687 486.931 266.411 486.446C267.463 486.259 268.512 486.059 269.559 485.848L270.344 485.687C270.836 485.585 272.225 485.445 272.907 485.005C273.042 484.781 273.177 484.558 273.311 484.335C273.254 483.546 271.213 483.633 270.735 483.627C269.38 483.611 268.024 483.609 266.669 483.6C263.957 483.582 261.247 483.533 258.536 483.486C253.119 483.391 247.683 483.153 242.269 483.329C240.954 483.372 240.284 481.294 241.587 480.762C247.343 478.411 253.712 477.948 259.841 477.267C263.064 476.909 266.289 476.491 269.444 475.734L270.223 475.547C272.205 475.067 274.394 474.481 276.07 473.31C273.577 472.291 270.466 472.375 267.874 472.21L267.675 472.197C264.046 471.943 260.408 471.796 256.77 471.756C249.325 471.675 241.875 471.863 234.436 472.14C234.249 472.146 234.213 471.857 234.395 471.82C242.054 470.253 249.83 469.537 257.653 469.49C261.297 469.468 264.941 469.553 268.579 469.746L269.914 469.82C273.016 469.981 276.46 470.049 279.039 471.916C279.432 472.2 279.637 472.56 279.666 472.94C283.213 466.151 286.496 459.217 289.791 452.329C292.352 446.973 294.821 441.572 297.473 436.259L298.332 434.54C299.482 432.247 300.659 429.953 301.964 427.745C297.172 427.069 292.351 426.585 287.527 426.204C283.131 425.857 268.784 425.043 266.662 425.427ZM263.834 499.346C264.384 499.053 265.22 499.304 265.349 499.968C265.444 500.463 265.611 501.013 265.606 501.518C265.6 502.123 265.374 502.779 265.251 503.37C264.968 504.728 264.625 505.831 263.909 507.037C263.461 507.792 262.566 508.299 261.672 508.27C260.964 508.247 260.339 508.054 259.858 507.511C259.282 506.86 258.891 505.907 259.219 505.041C260.077 502.773 261.636 500.519 263.834 499.346ZM147.801 495.971C149.102 493.779 152.156 491.838 154.802 492.058C158.776 492.389 159.538 497.659 155.676 498.878C153.367 499.607 150.208 498.806 148.207 497.552C147.667 497.214 147.475 496.52 147.801 495.971ZM107.002 488.052C106.715 487.634 107.2 487.164 107.632 487.261C108.591 487.478 109.626 487.578 110.565 487.869C111.526 488.166 112.455 488.653 113.406 488.991C115.4 489.699 117.533 490.065 119.461 490.915C120.232 491.254 120.83 492.361 120.751 493.173L120.731 493.363C120.684 493.765 120.61 494.116 120.377 494.482C119.752 495.465 118.526 495.964 117.377 495.649C115.245 495.065 113.171 493.595 111.36 492.373L111.025 492.15C110.234 491.627 109.383 491.08 108.748 490.411C108.085 489.711 107.543 488.842 107.002 488.052ZM180.543 480.735C180.305 479.862 181.413 479.297 182.05 479.892C183.322 481.08 184.654 482.182 185.9 483.4L185.984 483.483C186.876 484.381 188.17 486.107 186.988 487.246C185.473 488.707 183.404 486.499 182.61 485.351C181.603 483.895 181.004 482.431 180.543 480.735ZM278.862 474.471C276.938 476.435 273.995 477.319 271.404 478.05C268.332 478.915 265.171 479.42 262.007 479.829C258.95 480.225 255.917 480.576 252.907 481.035C255.18 481.084 257.452 481.122 259.72 481.184C262.334 481.255 264.947 481.336 267.561 481.435C269.465 481.508 271.701 481.272 273.504 481.985C273.829 482.113 274.132 482.29 274.396 482.503C275.942 479.86 277.426 477.178 278.862 474.471ZM161.557 454.812C163.551 454.21 165.428 453.404 167.534 453.638C168.093 453.7 168.489 454.24 168.178 454.766C167.163 456.484 165.53 457.444 163.92 458.584L163.778 458.685C162.016 459.947 160.126 461.095 158.214 462.127C154.92 463.903 152.033 458.703 155.356 457.217C157.356 456.323 159.456 455.446 161.557 454.812ZM197.391 450.662C200.43 450.888 203.469 451.05 206.513 451.2C210.039 451.374 208.802 456.698 205.866 455.59C202.965 454.495 200.064 453.414 197.136 452.391C196.245 452.08 196.33 450.637 197.334 450.659L197.391 450.662ZM119.475 440.43C120.263 440.383 121.057 440.559 121.846 440.642L122.685 440.73C124.415 440.916 126.036 441.14 127.681 441.849C130.716 443.156 129.033 447.954 125.976 447.814C123.716 447.711 121.792 446.739 119.893 445.61C118.234 444.623 117.222 443.398 116.109 441.862C115.741 441.354 116.267 440.792 116.775 440.746C117.672 440.665 118.578 440.483 119.475 440.43ZM149.48 411.037C150.244 410.373 151.639 410.588 151.875 411.683C152.204 413.216 152.397 414.941 152.157 416.492C152.027 417.332 151.972 418.277 151.628 419.058C151.258 419.898 150.555 420.54 149.893 421.168C148.571 422.421 145.814 421.976 145.482 419.978L145.44 419.733C145.273 418.788 145.057 417.777 145.327 416.844C145.531 416.14 145.978 415.424 146.349 414.773L146.428 414.634C147.171 413.304 148.322 412.042 149.48 411.037ZM256.025 415.305L256.299 415.311C258.415 415.372 262.279 415.915 262.276 418.486C262.275 419.091 261.812 419.715 261.199 419.849C259.931 420.125 259.121 419.382 258.226 418.631C257.495 418.018 256.64 417.525 255.75 417.167C254.79 416.781 254.867 415.293 256.025 415.305Z" fill="black"/>
<path fill-rule="evenodd" clip-rule="evenodd" d="M257.297 312.738C256.684 303.838 257.854 294.526 254.452 286.04C248.515 271.956 231.537 267.118 218.391 261.652C213.119 260.063 195.331 259.679 189.16 257.584C175.194 252.842 171.899 247.318 160.683 255.988C158.79 257.469 157.598 259.087 156.719 261.305L156.755 261.315C156.501 262.241 156.755 263.169 157.3 263.882C152.427 268.695 150.338 275.961 152.753 282.453C160.675 299.363 160.208 308.462 157.432 326.533C153.87 343.395 161.582 349.64 174.364 358.955C173.831 359.951 173.709 361.279 174.384 362.169C189.07 382.907 217.036 393.008 241.176 382.783C250.976 378.598 255.43 368.403 258.004 359.191C260.999 348.877 261.992 337.988 259.735 327.431C258.83 322.55 257.637 317.701 257.297 312.738Z" fill="#EDB98A"/>
<path fill-rule="evenodd" clip-rule="evenodd" d="M150.949 286.495L159.742 292.385L191.729 259.798L181.267 251.527C181.267 251.527 162.011 265.265 158.217 268.903C154.422 272.541 150.949 286.495 150.949 286.495Z" fill="#9FD8E5"/>
<path fill-rule="evenodd" clip-rule="evenodd" d="M172.394 213.386C174.203 213.136 175.557 214.253 176.191 215.815L176.224 215.899C176.428 216.43 176.655 216.947 176.9 217.456C181.441 215.315 187.885 215.937 190.704 220.388C192.715 223.566 191.434 227.303 190.633 230.646L190.107 232.848C191.077 233.47 191.803 234.573 191.758 235.708L191.753 235.795L191.518 238.871C192.176 238.226 192.779 237.523 193.318 236.773C193.691 236.114 194.094 235.467 194.526 234.84C197.067 231.153 202.661 234.432 200.555 238.387C200.151 239.15 199.698 239.872 199.212 240.567C198.662 241.595 198.209 242.652 197.858 243.74C198.832 244.168 199.575 245.107 199.641 246.514C199.794 249.799 198.018 252.522 195.217 254.216C194.393 254.715 193.546 254.805 192.781 254.61C192.644 254.788 192.507 254.966 192.376 255.147C193.478 256.046 194.47 257.068 195.32 258.198C197.914 257.841 200.521 257.686 203.127 257.705C206.325 256.2 210.137 256.268 213.553 256.876C215.753 257.267 217.861 258.008 220.023 258.546C222.303 259.112 224.623 259.154 226.931 259.546C229.841 260.04 232.383 261.389 233.97 263.519C235.734 263.588 237.584 264.317 239.114 265.298C242.676 267.583 246.217 269.899 249.77 272.198C251.133 273.081 251.633 274.474 251.366 276.02L251.348 276.119L251.221 276.76L251.501 277.158C252.58 278.69 253.755 280.295 254.447 281.981C255.739 283.853 256.904 285.814 257.934 287.835C259.321 290.55 260.46 293.425 261.222 296.372C261.412 297.117 261.601 297.868 261.723 298.627C261.898 299.7 261.605 300.527 261.44 301.553C261.234 302.853 261.151 304.171 260.933 305.474C260.786 306.337 260.036 306.755 259.255 306.771C259.527 308.975 259.718 311.193 259.9 313.394C260.155 316.538 260.318 319.69 260.456 322.842C261.308 324.086 263.064 325.08 264.335 325.431C266.096 325.913 267.951 325.425 269.625 324.848C270.677 324.484 271.525 325.791 271.006 326.654C269.374 329.364 265.937 329.32 263.346 328.089C262.25 327.569 261.29 326.822 260.583 325.855C260.618 326.77 260.657 327.684 260.695 328.602L260.731 329.433C261.168 339.138 262.215 349.183 260.273 358.77C256.91 375.376 242.811 387.911 225.726 388.732C216.76 389.163 209.323 386.485 205.627 384.996C201.93 383.506 203.4 380.555 205.968 381.427C210.391 382.93 218.523 385.182 225.827 384.312C243.042 382.262 257.702 373.937 256.551 337.467C256.388 332.296 255.783 327.117 255.691 321.946C255.604 316.891 255.702 311.835 255.524 306.782L255.465 305.058C255.396 303.043 255.321 301.02 255.187 299.002C255.009 298.219 254.864 297.425 254.645 296.656C254.051 294.565 253.269 292.529 252.291 290.585C252.069 290.747 251.822 290.864 251.554 290.907C249.521 291.247 247.619 291.127 245.726 290.276C244.843 289.883 244.066 289.364 243.344 288.723C243 288.422 242.771 288.13 242.592 287.828C241.672 287.834 240.756 287.553 240.186 286.896C239.537 286.148 239.435 285.381 239.699 284.674L239.726 284.604L239.662 284.58C238.868 286.548 237.306 288.272 235.6 289.431C232.904 291.268 229.547 291.774 226.334 291.793C222.785 291.811 219.048 291.238 215.553 290.655C214.629 290.501 213.711 290.328 212.811 290.096C212.776 290.131 212.74 290.171 212.702 290.205C209.67 293.009 205.437 293.697 201.64 292.044C199.446 291.089 197.612 289.567 195.996 287.827C195.964 288.729 195.908 289.632 195.82 290.525L195.784 290.879C195.606 292.543 195.276 294.306 193.987 295.495C191.904 297.422 188.915 296.613 186.545 295.323C186.548 295.384 186.547 295.447 186.547 295.511C187.169 297.669 187.795 299.831 188.421 301.992L188.555 302.452C189.011 303.987 189.512 305.524 189.638 307.127C189.879 310.191 187.782 313.194 184.338 312.134C182.531 311.58 181.094 310.066 179.713 308.851L178.842 308.095C181.043 315.427 182.546 323.012 182.62 330.642C182.625 331.056 182.261 331.365 181.861 331.376C180.927 331.404 179.924 331.213 178.987 330.836C178.935 330.833 178.882 330.829 178.826 330.82C177.225 330.576 175.741 329.992 174.436 329.138C174.729 330.087 174.855 331.104 174.765 332.164C174.742 332.422 174.333 332.508 174.277 332.223C173.554 328.545 169.219 325.73 165.453 326.397C161.41 327.113 158.405 330.504 157.64 334.388C156.819 338.561 158.268 343.409 161.007 346.661C162.267 348.16 163.933 349.417 165.921 349.749C166.83 349.899 167.777 349.859 168.663 349.613C169.04 349.506 169.394 349.356 169.754 349.215C170.278 349.012 170.89 348.986 171.385 348.771C172.509 348.287 173.624 349.313 173.047 350.438C172.544 351.42 172.094 352.081 171.27 352.583C171.926 353.387 172.517 354.504 172.738 354.804C173.863 356.331 175.007 357.774 176.292 359.172C177.6 360.59 179.03 361.888 180.543 363.092L181.179 363.596C182.636 364.757 183.905 365.832 184.925 367.488C185.729 368.794 184.655 370.546 183.125 370.511C178.338 370.399 174.897 366.223 172.452 362.581C172.105 362.06 171.778 361.51 171.475 360.946C171.362 361.121 171.237 361.285 171.097 361.434L171.364 362.16C172.154 364.296 168.648 365.655 167.654 363.658C166.931 362.21 166.089 360.831 165.15 359.526C164.589 359.442 164.043 359.101 163.742 358.665C162.98 357.555 162.124 356.433 161.404 355.252C161.002 354.869 160.589 354.5 160.166 354.14C160.042 354.246 159.914 354.352 159.793 354.464C159.247 355.659 158.576 356.749 157.746 357.774L157.569 357.993C155.98 359.927 153.916 361.902 151.382 362.354C150.608 362.492 149.874 361.539 150.564 360.94C152.35 359.389 154.454 358.342 156.104 356.607C156.916 355.753 157.664 354.81 158.309 353.821L158.456 353.592C158.563 353.422 158.674 353.253 158.787 353.08C158.054 352.578 157.322 352.074 156.589 351.569C154.544 353.258 151.893 354.014 149.635 355.407L149.411 355.548C147.368 356.866 145.258 353.889 146.901 352.281C148.712 350.516 150.229 348.405 151.837 346.439C151.103 345.076 150.764 343.47 150.647 341.849C150.599 341.39 150.563 340.931 150.526 340.471C149.387 340.478 148.245 340.082 147.282 339.411L146.917 339.15C145.736 339.509 144.498 339.676 143.314 339.633C140.531 339.526 139.421 336.382 141.181 334.417C142.978 332.409 146.092 331.996 148.547 333.003C148.627 332.963 148.709 332.921 148.789 332.878C148.677 332.344 148.707 331.862 148.845 331.439L148.809 331.18C148.275 330.356 147.927 329.418 147.802 328.428C147.702 327.645 147.731 326.87 147.922 326.099C147.986 325.842 148.116 325.577 148.215 325.31C148.02 324.81 147.907 324.293 147.876 323.775C147.82 323.709 147.765 323.641 147.713 323.568C146.506 321.865 146.772 319.83 147.949 318.473C147.955 318.386 147.964 318.299 147.977 318.213C147.911 318.061 147.849 317.908 147.794 317.753C146.668 316.613 145.846 315.245 146.018 313.562C146.118 312.572 146.54 311.684 147.173 311.023C147.065 310.699 147.058 310.324 147.195 310.012C146.221 307.386 146.377 304.236 147.124 301.316C146.97 300.869 146.892 300.385 146.915 299.873C147.018 297.701 148.946 295.723 151.207 295.771C151.479 295.776 151.734 295.813 151.978 295.867L151.982 295.815C152.075 295.164 152.263 294.563 152.534 294.025C152.404 293.977 152.283 293.909 152.178 293.819C150.722 294.567 149.183 295.134 147.571 295.515C146.386 295.796 145.188 294.461 145.933 293.375C146.279 292.871 146.659 292.419 147.069 292.007C146.492 292.005 145.907 292.038 145.314 292.107C144.25 292.233 143.07 291.507 142.389 290.534C141.523 291.348 140.655 292.158 139.787 292.969C137.588 295.028 134.31 293.466 133.992 290.721C133.345 290.544 132.742 290.249 132.215 289.83C128.764 291.267 125.059 292.039 121.277 292.156C118.562 292.24 117.006 289.112 118.295 286.926C119.161 285.459 120.231 284.144 121.461 283.004C119.564 283.556 117.607 283.948 115.61 284.192C114.531 284.324 113.015 283.43 112.592 282.451C110.977 278.686 111.156 274.779 113.091 271.15C113.165 271.006 113.249 270.868 113.33 270.729C113.531 270.248 113.75 269.773 113.986 269.306C111.671 266.883 111.503 263.311 112.791 260.335C112.294 259.523 112.109 258.549 112.461 257.673C113.463 255.151 114.895 252.827 116.694 250.837C116.527 250.511 116.38 250.165 116.258 249.794C115.285 246.79 116.479 243.188 118.84 241.125C120.324 239.825 122.023 239.055 123.834 238.568C124.608 237.251 125.597 236.065 126.746 235.069C126.791 234.974 126.836 234.879 126.887 234.784C128.692 231.509 131.94 229.775 135.407 229.4C135.554 228.114 136.447 226.893 137.731 226.506C138.094 225.396 138.63 224.336 139.362 223.377C140.513 221.866 142.408 221.167 144.179 222.182C145.149 222.738 146.077 223.374 146.946 224.077C147.34 223.899 147.787 223.786 148.29 223.753L148.417 223.747L151.315 223.629C152.533 223.112 153.748 222.568 154.966 222.038C155.7 221.452 156.519 220.965 157.409 220.606C158.418 220.202 159.448 219.978 160.48 219.909C161.319 219.648 162.164 219.419 163.024 219.242C165.043 218.827 167.154 218.604 169.245 218.645C169.293 218.112 169.319 217.573 169.32 217.027L169.319 216.753C169.289 215.003 170.72 213.619 172.394 213.386ZM169.032 353.394C168.744 353.452 168.452 353.499 168.161 353.531C168.247 353.746 168.333 353.961 168.417 354.176C168.65 354.308 168.887 354.435 169.124 354.553C169.057 354.158 169.02 353.762 169.032 353.394ZM153.984 348.834L153.785 349.187C153.753 349.244 153.722 349.301 153.69 349.357C154.105 349.329 154.522 349.342 154.933 349.392L154.932 349.349C154.879 349.331 154.826 349.314 154.776 349.29C154.494 349.153 154.231 349 153.984 348.834ZM162.293 332.755C164.89 332.928 167.088 333.342 169.441 334.484L169.643 334.584C171.721 335.625 175.158 337.544 174.841 340.246C174.751 341.014 174.177 341.819 173.285 341.75C170.839 341.562 169.465 339.118 167.822 337.587C166.166 336.043 164.128 334.453 162.114 333.384C161.829 333.233 161.946 332.766 162.258 332.754L162.293 332.755ZM150.849 297.006C150.226 297.02 150.429 297.618 150.754 297.123C150.78 297.083 150.813 297.043 150.849 297.006ZM184.838 257.542C178.94 257.639 172.972 261.012 168.521 264.437C164.649 267.416 161.297 270.971 158.321 274.81C157.547 276.728 156.879 278.687 156.312 280.662C155.938 281.967 155.699 283.286 155.384 284.603L155.287 285.006C155.045 285.441 154.864 285.91 154.731 286.395C155.261 286.929 155.952 287.315 156.715 287.501C156.961 287.562 157.165 287.689 157.325 287.856C157.95 286.85 158.498 285.787 158.822 284.658L158.834 284.606C160.036 282.708 161.338 280.871 162.733 279.098C166.581 274.201 170.809 269.746 175.876 266.053C179.718 263.254 184.004 261.073 188.553 259.673C187.451 258.78 186.197 258.071 184.838 257.542Z" fill="black"/>
<path fill-rule="evenodd" clip-rule="evenodd" d="M237.383 337.606C239.593 338.955 242.95 342.083 240.527 345.353C237.685 348.228 233.665 344.862 231.682 343.338C229.842 342.154 227.733 345.134 229.438 346.512C243.767 357.149 249.805 338.071 238.522 336.056C237.279 335.833 236.804 337.19 237.383 337.606ZM212.398 325.333C216.21 322.622 221.853 324.79 222.745 329.097C223.391 329.438 223.738 329.975 223.808 330.756L223.825 330.952V330.952C223.908 331.88 223.06 332.749 222.219 332.986C221.271 333.252 220.525 333.102 219.652 332.7C218.815 332.313 218.533 331.238 218.693 330.424L218.708 330.356C218.942 329.346 218.068 328.356 217.182 327.946C216.183 327.484 215.055 327.757 214.177 328.349C213.202 329.005 212.385 330.136 212.102 331.268L212.074 331.385C211.849 332.363 211.67 334.199 212.632 334.771C212.802 334.872 212.678 335.098 212.501 335.067C210.404 334.693 209.164 333.439 209.173 331.217C209.182 328.864 210.488 326.691 212.398 325.333ZM247.267 324.883C251.06 323.601 255.754 327.186 254.259 331.262C253.277 333.938 249.589 332.826 249.959 330.138L249.971 330.056C250.204 328.658 249.131 327.987 247.804 328.434C245.837 329.097 244.751 332.114 245.653 333.89C245.764 334.108 245.447 334.288 245.317 334.078L245.193 333.878C244.183 332.263 243.258 331.068 243.615 329.021C243.943 327.133 245.431 325.503 247.267 324.883ZM239.691 315.076C239.683 314.896 239.878 314.776 240.043 314.818C241.384 315.163 242.591 316.135 243.809 316.77C245.138 317.462 246.501 318.025 247.948 318.441C249.357 318.847 250.784 319.056 252.253 319.058C253.843 319.06 255.404 318.488 256.963 318.552C259.306 318.647 260.499 322.008 258.18 323.137C254.803 324.781 249.829 323.516 246.573 322.092C243.952 320.945 239.832 318.256 239.691 315.076ZM222.61 315.68C223.851 314.14 226.333 314.07 227.404 315.909C228.511 317.809 227.141 319.69 225.227 320.062C221.724 321.562 218.141 322.7 214.327 323.15L213.811 323.209C210.492 323.574 206.306 323.751 203.324 322.219C203.032 322.069 203.125 321.63 203.42 321.551C205.113 321.092 207.004 321.111 208.744 320.816C210.399 320.536 212.041 320.224 213.654 319.759C216.842 318.841 219.866 317.514 222.61 315.68Z" fill="black"/>
<path fill-rule="evenodd" clip-rule="evenodd" d="M232.636 367.244C230.621 366.425 228.824 365.058 227.511 363.313C227.054 362.706 226.935 362.065 227.031 361.479C227.139 360.82 227.53 360.222 228.063 359.821C228.598 359.42 229.267 359.221 229.914 359.322C230.477 359.41 231.036 359.717 231.479 360.354L231.572 360.481C232.353 361.535 233.37 362.399 234.53 362.956C235.648 363.494 236.898 363.744 238.192 363.598C240.656 363.321 242.354 361.992 244.159 360.188C244.383 359.96 244.607 359.725 244.832 359.486C244.974 359.27 245.171 359.131 245.39 359.058C245.633 358.977 245.908 358.981 246.16 359.069C246.403 359.154 246.62 359.314 246.766 359.527C246.904 359.729 246.982 359.98 246.957 360.268C246.792 362.138 245.811 363.807 244.419 365.117C242.872 366.572 240.822 367.579 238.891 367.932C236.765 368.321 234.598 368.043 232.636 367.244V367.244Z" fill="#231F20"/>
</svg>
