<svg width="414" height="896" viewBox="0 0 414 896" fill="none" xmlns="http://www.w3.org/2000/svg">
<g clip-path="url(#clip0)">
<rect x="116.015" y="223.373" width="166.914" height="311.101" rx="12.7426" transform="rotate(10.7355 116.015 223.373)" fill="black"/>
<rect x="124.979" y="251.838" width="138.696" height="258.506" rx="12.7426" transform="rotate(10.7355 124.979 251.838)" fill="white"/>
<circle cx="150.453" cy="499.359" r="13.34" transform="rotate(23.7359 150.453 499.359)" fill="black"/>
<rect x="138.938" y="275.146" width="101.451" height="13.9932" transform="rotate(9.43588 138.938 275.146)" fill="#C4C4C4"/>
<rect x="134.391" y="304.224" width="39.3095" height="11.782" transform="rotate(9.43588 134.391 304.224)" fill="#C4C4C4"/>
<path d="M110.619 389.398C108.872 389.067 107.097 390.601 106.674 392.832C106.251 395.059 107.321 397.136 109.088 397.471C110.835 397.802 112.61 396.268 113.033 394.038C113.456 391.808 112.366 389.73 110.619 389.398Z" fill="#FDE546"/>
<path d="M116.401 404.433C118.158 404.766 120.419 400.618 121.452 395.169C122.486 389.72 121.9 385.033 120.144 384.7C118.388 384.367 116.126 388.514 115.093 393.963C114.06 399.412 114.645 404.1 116.401 404.433Z" fill="#FDE546"/>
<path d="M129.839 379.105C128.084 378.772 125.174 386.333 123.342 395.992C121.51 405.652 121.45 413.753 123.204 414.086C124.959 414.419 127.869 406.858 129.701 397.198C131.521 387.536 131.593 379.438 129.839 379.105Z" fill="#FDE546"/>
<path d="M139.629 375.387C137.87 375.053 134.507 385.024 132.111 397.656C129.716 410.287 129.195 420.798 130.953 421.131C132.712 421.465 136.075 411.493 138.471 398.862C140.867 386.228 141.387 375.72 139.629 375.387Z" fill="#FDE546"/>
<path d="M150.717 362.442C148.961 362.109 144.687 376.872 141.171 395.41C137.655 413.952 136.228 429.25 137.984 429.583C139.74 429.916 144.015 415.154 147.53 396.616C151.046 378.078 152.473 362.775 150.717 362.442Z" fill="#FDE546"/>
<path d="M155.957 380.341C154.201 380.008 151.025 388.975 148.865 400.368C146.704 411.761 146.376 421.268 148.132 421.601C149.888 421.934 153.063 412.967 155.224 401.574C157.385 390.179 157.713 380.674 155.957 380.341Z" fill="#FDE546"/>
<path d="M163.951 383.716C162.194 383.383 159.172 391.546 157.199 401.949C155.226 412.352 155.05 421.055 156.806 421.388C158.562 421.721 161.585 413.558 163.558 403.155C165.531 392.752 165.707 384.049 163.951 383.716Z" fill="#FDE546"/>
<path d="M175.22 369.817C173.464 369.484 169.246 383.949 165.799 402.126C162.352 420.303 160.981 435.308 162.737 435.641C164.493 435.974 168.711 421.509 172.158 403.332C175.606 385.155 176.977 370.15 175.22 369.817Z" fill="#FDE546"/>
<path d="M185.905 360.933C185.803 360.913 185.283 361.049 185.074 361.457C183.258 364.993 177.883 383.931 173.557 406.744C169.077 430.365 167.514 450.186 167.965 452.681C168.012 452.9 168.193 453.042 168.266 453.056C168.336 453.069 168.543 453.001 168.667 452.814C170.341 450.722 176.217 431.318 180.7 407.68C185.026 384.896 186.945 365.653 186.487 361.725C186.433 361.266 186.008 360.952 185.905 360.933Z" fill="#FDE546"/>
<path d="M190.51 384.107C188.754 383.774 185.312 394.147 182.822 407.274C180.333 420.402 179.738 431.312 181.494 431.645C183.25 431.978 186.692 421.605 189.181 408.48C191.671 395.353 192.266 384.44 190.51 384.107Z" fill="#FDE546"/>
<path d="M198.829 387.933C197.86 387.749 193.464 396.684 191.258 408.318C189.052 419.952 189.871 429.877 190.84 430.06C191.808 430.244 195.411 421.158 197.617 409.524C199.824 397.89 199.798 388.116 198.829 387.933Z" fill="#FDE546"/>
<path d="M205.987 393.546C204.231 393.213 201.323 400.774 199.49 410.435C197.659 420.094 197.597 428.194 199.353 428.527C201.109 428.86 204.018 421.3 205.85 411.641C207.682 401.98 207.743 393.879 205.987 393.546Z" fill="#FDE546"/>
<path d="M212.961 402.303C211.203 401.969 208.905 406.319 207.825 412.015C206.744 417.713 207.291 422.599 209.048 422.933C210.806 423.266 213.104 418.916 214.184 413.221C215.276 407.527 214.718 402.636 212.961 402.303Z" fill="#FDE546"/>
<path d="M220.274 409.265C218.527 408.934 216.714 410.669 216.244 413.147C215.775 415.622 216.807 417.9 218.573 418.235C220.32 418.566 222.133 416.831 222.603 414.353C223.073 411.875 222.021 409.596 220.274 409.265Z" fill="#FDE546"/>
</g>
<defs>
<clipPath id="clip0">
<rect width="414" height="896" fill="white"/>
</clipPath>
</defs>
</svg>
