<svg width="414" height="896" viewBox="0 0 414 896" fill="none" xmlns="http://www.w3.org/2000/svg">
<path fill-rule="evenodd" clip-rule="evenodd" d="M301.818 537.664C300.917 535.16 302.291 532.684 303.063 530.277C305.804 521.93 298.726 500.744 293.638 500.387C291.822 495.635 286.872 493.625 282.987 490.861C278.575 488.097 274.288 484.929 269.696 482.499C269.461 480.241 266.684 479.656 264.967 481.253C260.322 478.352 254.714 478.829 249.723 476.909C245.974 470.827 245.749 464.467 244.797 458.624C244.382 456.077 244.872 453.629 243.126 451.345C237.266 443.08 213.836 439.298 205.139 444.08C200.51 441.181 200.349 446.349 199.579 449.533C198.741 451.121 198.279 452.925 198.399 454.831C196.151 459.336 194.228 464.978 189.563 468.314C183.643 472.547 174.583 474.091 168.832 476.14C167.558 474.912 167.181 473.15 167.181 473.15C158.28 474.964 149.627 478.218 142.135 483.357C133.656 485.707 127.637 492.409 123.262 499.616C122.78 500.375 122.661 501.153 122.793 501.87C109.37 520.821 102.832 543.6 101.725 566.658C93.162 571.6 105.296 616.841 108.131 626.237C108.134 626.236 108.137 626.235 108.14 626.233C110.006 629.553 112.07 638.993 116.825 638.31C120.048 641.96 125.245 641.298 129.663 641.618C128.917 644.325 129.241 647.434 130.073 650.124C131.056 653.326 136.028 653.482 136.766 650.008C180.702 658.832 225.928 652.555 270.427 654.24C283.296 654.452 296.16 654.966 308.99 655.989C310.797 656.133 312.647 654.335 312.541 652.565C310.055 623.676 307.824 585.683 305.009 557.074C304.339 550.549 303.823 543.954 301.818 537.664Z" fill="#EDB98A"/>
<path fill-rule="evenodd" clip-rule="evenodd" d="M167.225 473.342C167.21 473.279 167.195 473.215 167.181 473.15C158.28 474.964 149.627 478.218 142.135 483.357C133.656 485.707 127.637 492.409 123.262 499.616L123.204 499.711C122.771 500.44 122.666 501.183 122.793 501.87C109.369 520.821 102.832 543.6 101.725 566.658C93.1619 571.6 105.295 616.842 108.131 626.237L108.14 626.233C108.605 627.06 109.082 628.268 109.61 629.604C111.202 633.629 113.255 638.823 116.825 638.31C119.445 641.278 123.371 641.395 127.121 641.507C127.983 641.533 128.837 641.558 129.663 641.618C128.917 644.325 129.225 649.17 130.056 651.86C131.039 655.062 271.607 659 308.99 655.989C310.795 655.844 312.647 654.335 312.541 652.565C311.497 640.433 310.498 626.694 309.482 612.72C308.078 593.419 306.642 573.668 305.009 557.074C304.945 556.449 304.882 555.825 304.82 555.199C304.227 549.29 303.631 543.352 301.818 537.664C301.098 535.665 301.829 533.683 302.546 531.74C302.727 531.25 302.907 530.762 303.063 530.277C305.804 521.93 299.224 500.799 294.366 500.44L293.638 500.387C292.243 496.737 288.999 494.705 285.809 492.706C284.941 492.162 284.078 491.621 283.257 491.051L282.987 490.861C281.483 489.919 279.994 488.93 278.502 487.939C275.617 486.023 272.723 484.101 269.696 482.499C269.461 480.241 266.684 479.656 264.967 481.253C264.228 480.791 263.465 480.415 262.683 480.101L262.333 484.297C256.844 503.678 241.981 514.349 217.746 516.311C181.394 519.253 165.363 483.321 165.397 479.705C165.412 478.12 165.964 476.123 167.054 473.716L167.225 473.342ZM218.391 558.875L215.149 560.892C215.149 560.892 215.088 567.308 215.766 574.394C216.445 581.479 222.197 589.437 222.197 589.437C222.197 589.437 239.412 584.964 242.781 584.37C245.308 583.924 247.467 580.776 249.064 578.448C249.596 577.671 250.066 576.986 250.466 576.523C251.465 575.366 254.21 574.874 257.26 574.327C259.089 573.999 261.027 573.651 262.763 573.129C267.397 571.736 269.26 565.847 269.26 565.847C269.26 565.847 279.378 563.801 282.637 563.117C285.897 562.433 282.672 559.487 282.672 559.487L257.469 558.38C257.469 558.38 272.593 555.353 275.83 554.947C279.067 554.542 287.777 551.974 287.796 549.921C287.815 547.94 274.996 547.823 267.875 547.758C267.617 547.755 267.366 547.753 267.124 547.751C260.198 547.685 244.84 548.817 244.84 548.817L250.755 546.102C250.755 546.102 270.72 542.498 273.378 542.524C276.035 542.549 277.18 538.651 277.18 538.651C277.18 538.651 276.062 536.036 274.175 534.569C272.288 533.102 257.325 535.858 246.447 538.359C235.569 540.86 231.259 545.257 231.259 545.257L218.391 558.875Z" fill="#04154A"/>
<path fill-rule="evenodd" clip-rule="evenodd" d="M257.86 534.895L271.071 506.216C271.071 506.216 273.073 501.342 276.392 501.373C279.712 501.405 309.802 502.617 309.802 502.617C309.802 502.617 315.954 503.448 313.935 506.624C311.916 509.8 281.775 568.971 281.775 568.971L269.231 568.851L269.26 565.848L283.261 562.143C283.261 562.143 285.828 559.517 281.865 559.479C277.902 559.442 254.855 558.355 254.855 558.355L276.869 555.394L287.783 551.387L286.204 549.211L276.941 547.821L246.723 548.836L254.97 546.181L273.378 542.524C273.378 542.524 277.015 540.058 277.038 537.605C277.061 535.153 267.391 534.117 267.391 534.117L257.86 534.895Z" fill="#FDE546"/>
<path fill-rule="evenodd" clip-rule="evenodd" d="M200.34 445.816C200.469 445.478 200.983 445.528 200.989 445.908C201.115 454.026 198.965 463.923 192.306 469.342C188.887 472.123 184.391 473.368 180.259 474.809L179.793 474.973L172.492 477.568C170.556 478.256 168.464 479.323 166.769 478.308C168.116 481.683 169.241 485.148 170.89 488.404C172.943 492.457 175.436 496.17 178.498 499.556C190.629 512.968 209.99 517.208 227.436 513.478C236.42 511.557 245.179 507.838 251.361 500.962C256.059 495.736 258.797 488.687 259.493 481.715C259.309 481.742 259.116 481.739 258.918 481.695C256.72 481.201 254.507 480.02 252.58 478.863L252.394 478.752C250.54 477.63 248.608 476.348 247.286 474.62C245.973 472.905 244.631 467.339 244.631 467.339C244.271 465.248 243.954 461.087 244.035 458.978C244.042 458.779 244.942 458.67 245.036 458.877C245.849 460.676 246.08 464.614 246.704 466.484L246.829 466.858C247.495 468.811 248.06 471.187 249.464 472.774C252.1 475.754 256.107 477.043 259.681 478.559C259.97 475.222 265.397 475.351 265.295 478.834C265.289 479.023 265.279 479.211 265.27 479.399C265.696 479.634 266.105 479.903 266.488 480.162L266.861 480.416C268.273 481.379 269.696 482.296 271.202 483.116C274.116 484.705 277.206 485.972 280.194 487.417C283.217 488.879 286.041 490.614 288.673 492.683C289.909 493.654 291.094 494.688 292.216 495.785L292.521 496.085C293.589 497.151 294.98 498.344 295.581 499.737C295.714 500.044 296.385 500.762 296.753 500.789C302.453 501.211 308.139 501.784 313.799 502.616C315.264 502.831 315.837 503.58 315.283 504.776C313.38 508.889 305.927 525.315 303.944 529.723C304.14 532.978 303.798 536.803 303.971 540.058C304.225 544.808 304.571 549.557 304.994 554.296C306.511 571.246 308.894 588.121 311.032 605.003C312.102 613.452 313.07 621.912 314.025 630.374C314.507 634.65 314.91 638.93 315.211 643.222C315.336 645.011 315.448 646.801 315.544 648.591L315.627 650.179C315.744 652.178 316.037 654.088 314.763 655.791C314.185 656.563 312.879 656.988 312.138 656.098C311.206 654.978 310.863 654.145 310.787 652.686C310.729 651.568 310.723 650.446 310.682 649.328C310.593 646.904 310.476 644.481 310.334 642.059C310.051 637.217 309.722 632.376 309.333 627.541C307.97 610.588 305.234 593.75 303.468 576.835C302.578 568.307 301.969 559.766 301.685 551.198C301.543 546.919 301.518 542.641 301.601 538.36C301.633 536.761 301.725 535.17 301.852 533.583C298.903 540.001 295.808 546.356 292.575 552.624L291.809 554.109C289.76 558.07 287.657 562.047 285.205 565.777L284.784 566.413C283.79 567.928 282.43 570.319 280.64 570.783C279.393 571.106 277.875 570.856 276.601 570.82C275.335 570.784 274.069 570.767 272.805 570.704C271.387 570.635 270.035 570.439 268.668 570.062C268.441 570 268.226 569.933 268.03 569.848C266.628 572.055 264.266 573.725 261.857 574.688C259.928 575.459 257.909 575.981 255.887 576.463L255.173 576.631C253.005 577.14 250.529 577.369 249.289 579.41L249.001 579.883C248.08 581.388 247.198 582.71 245.686 583.781C244.06 584.935 242.138 585.652 240.226 586.206C238.268 586.773 236.266 587.202 234.279 587.664L233.738 587.79C232.426 588.1 231.103 588.383 229.799 588.721C229.243 588.865 228.676 589.013 228.13 589.192C227.49 589.401 227.024 589.733 226.517 590.094C226.051 591.642 224.11 592.466 222.522 592.343C221.689 592.278 220.943 591.993 220.266 591.579C219.067 592.562 217.75 593.44 216.529 594.35C214.82 595.624 213.104 596.889 211.379 598.142C207.822 600.725 204.239 603.273 200.619 605.77C194.194 610.202 187.632 614.427 180.961 618.492C178.179 620.187 175.379 621.879 172.552 623.529L172.851 623.641L173.444 623.868C174.845 624.397 176.405 625.246 176.662 626.862C176.866 628.143 176.13 629.018 174.844 629.162C173.315 629.333 172.136 628.261 171.195 627.239C170.78 626.789 170.314 626.37 169.916 625.906C169.754 625.717 169.63 625.499 169.521 625.271C166.732 626.852 163.913 628.378 161.051 629.803L160.335 630.157C153.238 633.639 146.326 637.463 139.17 640.844C137.303 641.726 135.028 642.678 132.661 643.319C133.265 645.713 133.23 648.333 133.223 650.756C133.215 653.118 129.398 653.07 129.501 650.721L129.55 649.587C129.638 647.679 129.77 645.699 130.249 643.847C123.28 644.915 116.353 642.384 115.066 641.631C113.645 640.802 112.361 639.483 111.294 638.261C109.009 635.645 107.437 632.52 106.045 629.379C103.063 622.651 100.974 615.47 99.4646 608.294C93.9006 581.837 96.6707 553.603 106.355 528.385C108.775 522.084 111.619 515.926 114.868 509.996L115.271 509.263C118.513 503.4 122.109 497.562 126.653 492.589C131.387 487.409 137.204 483.401 143.525 480.307C146.61 478.797 149.782 477.494 153.022 476.342C153.542 476.157 154.066 475.992 154.591 475.834C157.976 473.758 162.078 471.78 166.163 471.898C166.44 471.906 166.664 472.011 166.83 472.169C167.027 472.205 167.224 472.248 167.42 472.306C167.854 472.434 168.31 472.908 168.243 473.389L168.22 473.549C168.208 473.627 168.192 473.702 168.167 473.776C168.313 473.799 168.456 473.834 168.596 473.883C172.514 472.835 176.376 471.213 180.202 469.911L181.074 469.617C184.279 468.548 187.566 467.5 190.207 465.348C192.835 463.206 194.822 460.419 196.268 457.4C198.049 453.679 198.87 449.639 200.34 445.816ZM276.716 643.655C277.496 643.097 278.405 643.762 278.687 644.465C279.616 646.773 279.113 650.34 277.753 652.359C276.344 654.451 273.028 653.589 272.972 651.037C272.914 648.377 274.517 645.233 276.716 643.655ZM285.314 580.266C285.386 579.968 285.858 579.975 285.926 580.272C286.544 582.975 286.502 585.879 286.665 588.646L286.684 588.953C286.882 592.004 287.043 595.064 287.15 598.12C287.36 604.132 287.622 610.145 287.922 616.154C288.071 619.134 288.233 622.113 288.408 625.092C289.046 624.75 289.703 624.45 290.384 624.187C291.404 623.793 292.394 623.757 293.485 623.778C294.815 623.804 295.805 624.963 295.617 626.241C295.411 627.633 294.157 628.219 292.862 628.007C291.428 627.773 289.988 627.417 288.54 627.261C288.679 629.564 288.824 631.867 288.979 634.168C289.185 637.215 289.462 640.259 289.648 643.307C289.666 643.597 289.685 643.889 289.705 644.181C290.574 643.747 291.494 643.53 292.538 643.261L292.809 643.189C294.324 642.777 295.946 642.202 297.336 643.214C298.269 643.895 298.446 645.001 297.659 645.88C296.466 647.212 294.721 646.935 293.09 646.851L292.213 646.811C291.387 646.771 290.624 646.712 289.862 646.499C289.983 648.485 290.038 650.477 289.772 652.43C289.628 653.486 288.21 653.75 287.845 652.668C286.894 649.841 286.72 646.801 286.39 643.846C286.082 641.087 285.905 638.309 285.712 635.538L285.654 634.708C285.219 628.612 284.883 622.515 284.653 616.409C284.423 610.304 284.308 604.202 284.297 598.093C284.292 595.319 284.365 592.536 284.502 589.764L284.545 588.933C284.7 586.082 284.639 583.054 285.314 580.266ZM155.368 642.95C155.409 642.561 155.732 642.08 156.204 642.145C156.638 642.205 157.087 642.182 157.517 642.257C158.085 642.355 158.539 642.689 159.065 642.902C159.921 643.248 160.856 643.431 161.735 643.716C163.384 644.25 164.269 645.97 163.569 647.561C162.833 649.234 161.019 649.598 159.462 648.879C158.235 648.311 157.325 647.415 156.505 646.379L156.273 646.084C155.92 645.639 155.52 645.142 155.375 644.606C155.234 644.083 155.312 643.48 155.368 642.95ZM235.796 635.817C237.859 635.552 239.611 636.261 241.511 636.931L241.666 636.986C243.599 637.662 246.426 638.145 247.401 640.106C247.99 641.288 247.509 642.847 246.094 643.181C243.853 643.711 241.864 642.086 240.026 640.987L239.929 640.93C238.155 639.886 236.321 639.005 235.199 637.222C234.899 636.747 235.171 635.898 235.796 635.817ZM165.416 474.12C164.589 474.294 163.762 474.447 162.936 474.593C159.784 476.215 156.724 477.901 153.472 479.342C150.022 480.871 146.584 482.451 143.302 484.31C136.673 488.064 131.191 492.975 126.642 499.016C118.785 509.45 112.899 521.514 108.652 533.771C107.561 536.92 106.581 540.105 105.711 543.319C107.209 541.983 108.975 541.169 110.954 540.477C111.792 540.184 112.827 540.704 113.244 541.419C113.432 541.74 113.536 542.057 113.513 542.431C113.461 543.258 112.905 544.192 111.999 544.347C109.889 544.708 107.834 545.432 105.796 546.066C105.488 546.163 105.223 546.123 105.013 546.004C102.917 554.379 101.574 562.935 101.045 571.55C100.598 578.843 100.761 586.199 101.514 593.494C102.148 593.221 102.769 592.965 103.463 592.813C104.364 592.616 105.25 592.374 106.129 592.1C108.667 591.309 109.781 595.424 107.19 596.025C106.226 596.249 105.256 596.433 104.274 596.565C103.418 596.68 102.663 596.619 101.859 596.482C102.431 601.034 103.229 605.555 104.257 610.014L104.484 610.99C105.821 616.685 107.387 622.436 109.681 627.828C110.806 630.473 112.304 632.99 114.163 635.204C115.077 636.292 116.093 637.228 117.203 638.116C118.126 638.855 121.275 640.469 125.022 640.504C128.768 640.54 129.786 640.201 131.683 639.58C135.433 638.351 139.001 636.366 142.524 634.601L142.889 634.419C144.447 633.645 145.999 632.86 147.546 632.068C147.367 630.523 147.719 629.23 148.551 627.812C149.45 626.278 151.635 627.067 151.783 628.646L151.787 628.706C151.809 629.062 151.866 629.425 151.938 629.787C162.289 624.341 172.427 618.503 182.406 612.415C188.834 608.493 195.196 604.452 201.466 600.289C204.6 598.209 207.708 596.09 210.785 593.928C212.398 592.796 214.002 591.655 215.6 590.503C216.265 590.023 216.918 589.519 217.585 589.037C217.426 588.838 217.271 588.638 217.121 588.441C214.678 585.236 213.11 581.427 212.348 577.507C211.888 575.141 211.678 572.688 211.63 570.28L211.608 569.233C211.576 567.468 211.581 565.623 211.928 563.917C211.476 564.156 211.014 564.39 210.553 564.641C208.9 565.54 207.245 566.438 205.588 567.332C202.269 569.12 198.941 570.888 195.572 572.582C189.553 575.61 183.478 578.485 177.241 581.055L174.207 582.307C168.94 584.475 163.631 586.602 158.162 588.198C155.077 589.098 150.454 590.205 147.327 590.885C147.327 590.885 151.054 594.403 148.321 595.575C145.588 596.747 143.377 592.131 143.292 591.713C141.852 591.995 137.74 592.671 137.74 592.671C133.832 593.373 130.037 594.803 126.532 596.644C125.314 597.285 124.988 596.015 126.281 595.145C130.061 592.601 134.454 591.182 138.985 590L139.208 589.942C140.87 589.512 142.53 589.062 144.186 588.596C144.01 587.949 143.912 587.278 143.94 586.539C144.002 584.894 144.166 583.244 144.27 581.6C144.49 578.15 144.761 574.712 145.072 571.269C145.192 569.943 145.325 568.613 145.475 567.284C144.594 566.809 143.836 566.182 142.851 565.868L142.685 565.819C141.632 565.529 142.001 564.195 142.94 564.09C143.791 563.994 144.636 564.05 145.472 564.235C145.601 564.264 145.724 564.296 145.841 564.332C146.006 563.102 146.189 561.875 146.394 560.655C146.938 557.432 147.333 554.034 148.431 550.943C148.512 550.714 148.86 550.635 148.986 550.877C150.512 553.797 150.532 557.36 150.676 560.596L150.694 560.983C150.867 564.514 150.845 568.077 150.745 571.61C150.642 575.251 150.481 578.882 150.28 582.518C150.199 583.983 150.187 585.503 149.92 586.901C159.192 584.036 168.307 580.587 177.051 576.483C183.219 573.589 189.336 570.576 195.384 567.447C198.414 565.879 201.458 564.337 204.486 562.764C205.546 562.212 206.606 561.659 207.665 561.104L209.254 560.272C210.741 559.493 211.983 558.715 213.707 558.676C214.221 558.664 214.679 558.905 215.003 559.266C215.935 558.63 217.009 558.243 218.132 558.263C219.844 555.984 221.583 553.724 223.389 551.514L224.723 549.878C227.032 547.055 229.477 544.191 232.408 542.053C233.716 541.1 235.152 540.388 236.647 539.804C236.298 539.716 235.956 539.544 235.653 539.262C234.242 537.952 234.069 535.541 233.797 533.728C233.515 531.849 233.647 530.171 233.961 528.303C234.083 527.577 235.309 527.437 235.602 528.108C236.219 529.522 236.873 530.877 237.433 532.306L237.598 532.737C238.199 534.346 239.493 536.044 239.39 537.782C239.362 538.258 239.196 538.672 238.942 539.003C240.196 538.607 241.469 538.255 242.721 537.887C246.664 536.731 250.622 535.608 254.637 534.72C255.706 534.484 256.781 534.265 257.859 534.065C258.448 531.439 259.294 528.864 260.287 526.337C259.374 525.867 258.788 525.087 258.004 524.39C257.271 523.738 256.771 522.948 256.147 522.201C255.579 521.522 255.913 520.308 256.945 520.357L257.237 520.372C258.306 520.431 259.34 520.549 260.305 521.049L260.648 521.227C261.12 521.474 261.636 521.755 262.094 522.087C262.711 520.728 263.351 519.381 263.999 518.049L264.838 516.326C267.016 511.842 269.189 507.186 271.909 503.017C273.118 501.163 274.715 500.014 276.992 499.856C279.338 499.692 281.772 499.955 284.118 500.06C286.837 500.181 289.556 500.321 292.272 500.487C291.583 499.763 290.954 498.959 290.261 498.264C289.111 497.112 287.894 496.018 286.614 495.006C284.08 493.002 281.289 491.345 278.387 489.913C275.484 488.481 272.494 487.228 269.773 485.467C268.051 484.352 266.516 482.956 265.118 481.447C264.139 490.867 259.424 499.582 252.403 506.096C245.11 512.862 235.086 516.522 225.3 518.026C215.319 519.56 204.923 518.863 195.421 515.368C190.523 513.566 185.832 511.013 181.657 507.827C181.608 508.1 181.55 508.37 181.438 508.623C181.289 508.963 181.107 509.253 180.898 509.551L180.527 510.074C180.292 510.403 180.054 510.729 179.788 511.034C179.146 511.772 178.242 512.089 177.272 512.076C175.416 512.052 174.026 510.249 174.543 508.484C174.868 507.375 175.546 506.712 176.599 506.287C176.932 506.152 177.271 506.04 177.612 505.93L177.868 505.847C178.212 505.735 178.554 505.628 178.908 505.567C176.934 503.821 175.105 501.926 173.47 499.883C168.342 493.478 163.309 484.528 165.124 476.103C165.155 475.959 165.289 475.869 165.432 475.847C165.539 475.256 165.865 474.686 166.308 474.304C166.013 474.225 165.715 474.163 165.416 474.12ZM217.902 620.575C218.935 620.023 219.984 621.368 219.141 622.184L217.883 623.398C216.715 624.53 215.578 625.674 214.575 626.967L214.332 627.283C212.978 629.058 211.533 631.115 209.336 631.763C206.678 632.545 204.162 629.349 205.719 627.047C207.078 625.034 209.667 624.295 211.9 623.479C214.012 622.707 215.924 621.631 217.902 620.575ZM132.516 610.417C133.127 609.646 134.697 610.07 134.275 611.165C132.901 614.722 132.309 619.583 128.903 621.923C127.804 622.677 126.093 622.309 125.203 621.417C124.192 620.404 124.164 618.991 124.76 617.772C125.486 616.285 127.248 615.219 128.487 614.093L128.598 613.991C129.931 612.742 131.368 611.865 132.516 610.417ZM273.872 615.87C274.953 615.424 277.77 614.563 278.592 615.621C278.631 615.66 278.664 615.702 278.69 615.749C278.891 616.1 278.916 616.591 278.679 616.935C277.695 618.358 276.675 619.418 275.287 620.424L275.131 620.536C273.619 621.606 272.197 622.867 270.363 623.339C267.822 623.993 266.081 620.856 267.879 619.052C269.327 617.598 271.524 616.857 273.432 616.056L273.872 615.87ZM172.26 594.507C171.843 593.75 172.718 592.834 173.499 593.313C175.724 594.679 178.322 595.712 180.829 596.461C181.844 596.764 182.752 597.786 182.666 598.879L182.653 599.045C182.619 599.431 182.562 599.814 182.309 600.133C181.422 601.25 180.165 601.672 178.834 600.993C175.867 599.48 173.846 597.388 172.26 594.507ZM237.706 592.848C237.654 592.531 237.892 592.289 238.219 592.353C240.108 592.723 241.846 593.638 243.461 594.685C244.327 595.247 245.161 595.864 246.025 596.431C247.092 597.131 247.489 597.705 247.636 598.974C247.732 599.811 246.931 600.567 246.2 600.791C244.209 601.401 241.953 599.315 240.621 597.961L240.561 597.9C239.166 596.476 238.021 594.797 237.706 592.848ZM294.542 591.197C294.122 590.049 295.617 589.114 296.584 589.685C297.494 590.223 298.482 590.672 299.34 591.286C300.128 591.851 300.845 592.518 301.6 593.13L301.973 593.426C303.358 594.541 305.635 597.29 303.625 598.852C301.712 600.339 299.213 598.393 297.952 596.975L297.864 596.875C297.139 596.036 296.244 595.123 295.721 594.146C295.229 593.226 294.899 592.172 294.542 591.197ZM276.662 502.427C274.28 502.858 273.283 505.733 272.264 507.604C269.859 512.019 267.642 516.518 265.416 521.022C264.731 522.407 264.064 523.803 263.39 525.197C263.349 525.306 263.296 525.413 263.234 525.519C261.854 528.368 260.434 531.198 258.781 533.9C260.273 533.639 261.773 533.42 263.278 533.25C263.215 531.858 264.202 530.006 264.693 528.84L264.733 528.741C265.345 527.246 265.994 524.888 267.541 524.124C268.056 523.87 268.601 524.2 268.635 524.755C268.736 526.408 267.074 528.283 266.257 529.677C265.763 530.521 265.282 531.368 264.812 532.225C264.636 532.545 264.488 532.861 264.308 533.143C265.084 533.068 265.861 533.002 266.64 532.956L267.147 532.927C270.034 532.767 273.099 532.743 275.692 534.166C278.098 535.486 279.308 538.266 277.956 540.775C276.271 543.9 272.622 544.281 269.414 544.506C265.407 544.785 261.389 545.32 257.409 545.841C253.291 546.38 249.405 547.833 245.347 548.56C244.97 548.627 244.74 548.141 245.087 547.937C248.301 546.056 252.195 545.041 255.777 544.004L256.067 543.92C258.01 543.353 259.91 542.703 261.918 542.39C263.867 542.087 265.827 541.844 267.792 541.665L267.983 541.649C270.145 541.492 275.657 541.605 275.454 538.458C275.32 536.376 271.881 535.984 270.31 535.944C263.108 535.762 255.835 537.572 248.97 539.52L247.437 539.956C244.626 540.758 241.81 541.585 239.051 542.53C235.923 543.602 233.451 545.295 231.159 547.623C228.617 550.205 226.153 552.846 223.518 555.339C221.857 556.911 220.175 558.454 218.479 559.984C218.095 560.463 217.786 560.986 217.569 561.666C217.202 562.815 217.274 563.886 217.397 565.07C217.707 568.062 217.753 571.081 218.149 574.064C218.516 576.827 219.039 579.693 220.18 582.264C220.632 583.282 221.223 584.284 221.899 585.181L222.445 585.892C222.683 586.2 222.949 586.538 223.228 586.857C223.648 586.363 224.252 586.045 224.949 586.133C226.43 586.318 227.596 586.288 229.055 585.967C230.183 585.719 231.303 585.426 232.427 585.156C234.634 584.625 236.86 584.144 239.045 583.531L239.421 583.423C241.049 582.949 242.68 582.352 244.041 581.334C245.623 580.152 246.122 578.429 247.299 576.946C249.813 573.781 255.18 573.899 258.822 573.059C261.917 572.347 264.9 571.204 267.058 569.022L267.184 568.892C267.093 568.498 267.251 568.056 267.624 567.856L267.706 567.812C267.851 567.734 268.008 567.703 268.161 567.707C268.362 567.423 268.556 567.129 268.733 566.816C268.878 566.558 269.234 566.752 269.185 567.008C269.156 567.161 269.115 567.31 269.077 567.459C271.152 566.955 273.425 567.077 275.527 567.098L278.255 567.115C278.727 567.113 279.43 567.097 279.493 567.07L279.558 567.042C279.728 566.971 279.486 567.089 279.606 566.935C279.739 566.765 279.869 566.593 279.997 566.42C280.455 565.803 280.889 565.166 281.314 564.524C276.735 565.624 271.997 566.291 267.327 566.84C262.317 567.429 257.244 567.823 252.195 567.78C250.803 567.768 250.836 565.703 252.215 565.665C257.563 565.515 262.883 565.287 268.199 564.665C270.949 564.342 273.687 563.931 276.411 563.446C277.463 563.259 278.512 563.059 279.559 562.848L280.343 562.687C280.836 562.585 282.225 562.445 282.906 562.005C283.041 561.781 283.177 561.558 283.311 561.335C283.253 560.546 281.213 560.633 280.735 560.627C279.38 560.611 278.024 560.609 276.668 560.6C273.957 560.582 271.247 560.533 268.535 560.486C263.119 560.391 257.683 560.153 252.268 560.329C250.954 560.372 250.283 558.294 251.587 557.762C257.343 555.411 263.712 554.948 269.841 554.267C273.064 553.909 276.289 553.491 279.443 552.734L280.223 552.547C282.205 552.067 284.394 551.481 286.07 550.31C283.577 549.291 280.466 549.375 277.874 549.21L277.675 549.197C274.045 548.943 270.408 548.796 266.77 548.756C259.325 548.675 251.875 548.863 244.435 549.14C244.249 549.146 244.213 548.857 244.394 548.82C252.054 547.253 259.83 546.537 267.653 546.49C271.296 546.468 274.941 546.553 278.579 546.746L279.914 546.82C283.016 546.981 286.459 547.049 289.038 548.916C289.432 549.2 289.637 549.56 289.666 549.94C293.213 543.151 296.496 536.217 299.791 529.329C302.352 523.973 304.82 518.572 307.473 513.259L308.332 511.54C309.482 509.247 310.659 506.953 311.963 504.745C307.171 504.069 302.351 503.585 297.526 503.204C293.13 502.857 278.784 502.043 276.662 502.427ZM273.834 576.346C274.384 576.053 275.22 576.304 275.349 576.968C275.444 577.463 275.61 578.013 275.606 578.518C275.6 579.123 275.373 579.779 275.25 580.37C274.967 581.728 274.625 582.831 273.909 584.037C273.461 584.792 272.566 585.299 271.672 585.27C270.964 585.247 270.338 585.054 269.858 584.511C269.282 583.86 268.891 582.907 269.219 582.041C270.077 579.773 271.636 577.519 273.834 576.346ZM157.801 572.971C159.102 570.779 162.155 568.838 164.802 569.058C168.776 569.389 169.537 574.659 165.675 575.878C163.367 576.607 160.208 575.806 158.206 574.552C157.667 574.214 157.474 573.52 157.801 572.971ZM117.001 565.052C116.714 564.634 117.2 564.164 117.632 564.261C118.591 564.478 119.626 564.578 120.565 564.869C121.526 565.166 122.454 565.653 123.406 565.991C125.4 566.699 127.533 567.065 129.461 567.915C130.232 568.254 130.83 569.361 130.751 570.173L130.731 570.363C130.684 570.765 130.61 571.116 130.377 571.482C129.751 572.465 128.526 572.964 127.377 572.649C125.245 572.065 123.17 570.595 121.36 569.373L121.025 569.15C120.234 568.627 119.383 568.08 118.748 567.411C118.085 566.711 117.542 565.842 117.001 565.052ZM190.543 557.735C190.305 556.862 191.413 556.297 192.049 556.892C193.322 558.08 194.654 559.182 195.9 560.4L195.984 560.483C196.876 561.381 198.169 563.107 196.987 564.246C195.473 565.707 193.404 563.499 192.61 562.351C191.603 560.895 191.004 559.431 190.543 557.735ZM288.862 551.471C286.938 553.435 283.995 554.319 281.404 555.05C278.332 555.915 275.171 556.42 272.007 556.829C268.95 557.225 265.916 557.576 262.907 558.035C265.18 558.084 267.452 558.122 269.719 558.184C272.334 558.255 274.947 558.336 277.561 558.435C279.464 558.508 281.701 558.272 283.503 558.985C283.828 559.113 284.131 559.29 284.395 559.503C285.942 556.86 287.425 554.178 288.862 551.471ZM171.557 531.812C173.551 531.21 175.428 530.404 177.533 530.638C178.093 530.7 178.489 531.24 178.178 531.766C177.163 533.484 175.53 534.444 173.92 535.584L173.778 535.685C172.016 536.947 170.126 538.095 168.213 539.127C164.92 540.903 162.033 535.703 165.356 534.217C167.356 533.323 169.456 532.446 171.557 531.812ZM207.391 527.662C210.43 527.888 213.468 528.05 216.512 528.2C220.038 528.374 218.802 533.698 215.865 532.59C212.965 531.495 210.063 530.414 207.136 529.391C206.244 529.08 206.33 527.637 207.334 527.659L207.391 527.662ZM129.474 517.43C130.263 517.383 131.057 517.559 131.845 517.642L132.684 517.73C134.414 517.916 136.036 518.14 137.681 518.849C140.715 520.156 139.033 524.954 135.976 524.814C133.715 524.711 131.791 523.739 129.893 522.61C128.233 521.623 127.222 520.398 126.109 518.862C125.741 518.354 126.266 517.792 126.775 517.746C127.671 517.665 128.578 517.483 129.474 517.43ZM282.303 509.052C281.77 512.139 280.49 515.025 278.581 517.53C277.621 518.789 275.957 518.821 275.03 517.496C273.719 515.622 274.558 513.497 275.576 511.719L275.877 511.198C276.333 510.417 277.032 509.279 277.827 508.495L277.841 508.415C278.293 505.181 282.853 505.871 282.303 509.052ZM159.48 488.037C160.244 487.373 161.639 487.588 161.874 488.683C162.204 490.216 162.397 491.941 162.157 493.492C162.027 494.332 161.972 495.277 161.628 496.058C161.258 496.898 160.555 497.54 159.893 498.168C158.571 499.421 155.814 498.976 155.482 496.978L155.44 496.733C155.272 495.788 155.056 494.777 155.327 493.844C155.531 493.14 155.978 492.424 156.349 491.773L156.427 491.634C157.171 490.304 158.321 489.042 159.48 488.037ZM266.025 492.305L266.299 492.311C268.415 492.372 272.279 492.915 272.275 495.486C272.275 496.091 271.812 496.715 271.199 496.849C269.931 497.125 269.12 496.382 268.226 495.631C267.494 495.018 266.639 494.525 265.75 494.167C264.789 493.781 264.867 492.293 266.025 492.305Z" fill="black"/>
<path fill-rule="evenodd" clip-rule="evenodd" d="M267.297 389.738C266.683 380.838 267.854 371.526 264.452 363.04C258.515 348.956 241.537 344.118 228.391 338.652C223.119 337.063 205.331 336.679 199.16 334.584C185.194 329.842 181.899 324.318 170.683 332.988C168.789 334.469 167.598 336.087 166.719 338.305L166.755 338.315C166.501 339.241 166.755 340.169 167.3 340.882C162.427 345.695 160.337 352.961 162.752 359.453C170.674 376.363 170.208 385.462 167.432 403.533C163.87 420.395 171.582 426.64 184.364 435.955C183.831 436.951 183.709 438.279 184.384 439.169C199.07 459.907 227.036 470.008 251.176 459.783C260.976 455.598 265.43 445.403 268.004 436.191C270.999 425.877 271.992 414.988 269.735 404.431C268.83 399.55 267.637 394.701 267.297 389.738Z" fill="#EDB98A"/>
<path fill-rule="evenodd" clip-rule="evenodd" d="M160.949 363.495L169.742 369.385L201.729 336.798L191.266 328.527C191.266 328.527 172.011 342.265 168.216 345.903C164.421 349.541 160.949 363.495 160.949 363.495Z" fill="#9FD8E5"/>
<path fill-rule="evenodd" clip-rule="evenodd" d="M182.394 290.386C184.203 290.136 185.557 291.253 186.191 292.815L186.224 292.899C186.427 293.43 186.655 293.947 186.899 294.456C191.44 292.315 197.885 292.937 200.704 297.388C202.715 300.566 201.434 304.303 200.633 307.646L200.106 309.848C201.077 310.47 201.803 311.573 201.758 312.708L201.753 312.795L201.518 315.871C202.176 315.226 202.779 314.523 203.318 313.773C203.691 313.114 204.094 312.467 204.526 311.84C207.067 308.153 212.66 311.432 210.555 315.387C210.151 316.15 209.698 316.872 209.212 317.567C208.662 318.595 208.208 319.652 207.857 320.74C208.831 321.168 209.575 322.107 209.64 323.514C209.794 326.799 208.018 329.522 205.217 331.216C204.393 331.715 203.546 331.805 202.781 331.61C202.644 331.788 202.507 331.966 202.376 332.147C203.478 333.046 204.47 334.068 205.32 335.198C207.914 334.841 210.521 334.686 213.126 334.705C216.325 333.2 220.137 333.268 223.553 333.876C225.753 334.267 227.86 335.008 230.023 335.546C232.303 336.112 234.623 336.154 236.931 336.546C239.84 337.04 242.383 338.389 243.97 340.519C245.734 340.588 247.584 341.317 249.114 342.298C252.676 344.583 256.217 346.899 259.77 349.198C261.133 350.081 261.633 351.474 261.366 353.02L261.348 353.119L261.221 353.76L261.5 354.158C262.58 355.69 263.755 357.295 264.447 358.981C265.739 360.853 266.904 362.814 267.934 364.835C269.321 367.55 270.46 370.425 271.222 373.372C271.411 374.117 271.601 374.868 271.723 375.627C271.898 376.7 271.605 377.527 271.44 378.553C271.233 379.853 271.15 381.171 270.932 382.474C270.786 383.337 270.036 383.755 269.255 383.771C269.527 385.975 269.718 388.193 269.899 390.394C270.154 393.538 270.318 396.69 270.456 399.842C271.308 401.086 273.064 402.08 274.335 402.431C276.096 402.913 277.951 402.425 279.625 401.848C280.677 401.484 281.525 402.791 281.006 403.654C279.373 406.364 275.937 406.32 273.346 405.089C272.25 404.569 271.29 403.822 270.583 402.855C270.618 403.77 270.656 404.684 270.695 405.602L270.731 406.433C271.167 416.138 272.214 426.183 270.273 435.77C266.91 452.376 252.811 464.911 235.726 465.732C226.76 466.163 219.323 463.485 215.626 461.996C211.93 460.506 213.4 457.555 215.968 458.427C220.391 459.93 228.522 462.182 235.827 461.312C253.042 459.262 267.702 450.937 266.551 414.467C266.388 409.296 265.783 404.117 265.691 398.946C265.604 393.891 265.702 388.835 265.524 383.782L265.465 382.058C265.396 380.043 265.321 378.02 265.187 376.002C265.009 375.219 264.864 374.425 264.645 373.656C264.051 371.565 263.269 369.529 262.291 367.585C262.069 367.747 261.822 367.864 261.554 367.907C259.521 368.247 257.619 368.127 255.726 367.276C254.843 366.883 254.066 366.364 253.344 365.723C253 365.422 252.771 365.13 252.592 364.828C251.672 364.834 250.756 364.553 250.186 363.896C249.536 363.148 249.435 362.381 249.699 361.674L249.726 361.604L249.662 361.58C248.868 363.548 247.306 365.272 245.6 366.431C242.904 368.268 239.547 368.774 236.334 368.793C232.785 368.811 229.048 368.238 225.552 367.655C224.629 367.501 223.711 367.328 222.811 367.096C222.776 367.131 222.74 367.171 222.702 367.205C219.67 370.009 215.436 370.697 211.639 369.044C209.446 368.089 207.612 366.567 205.996 364.827C205.964 365.729 205.908 366.632 205.82 367.525L205.784 367.879C205.606 369.543 205.276 371.306 203.987 372.495C201.904 374.422 198.915 373.613 196.545 372.323C196.548 372.384 196.547 372.447 196.546 372.511C197.169 374.669 197.795 376.831 198.421 378.992L198.555 379.452C199.011 380.987 199.511 382.524 199.638 384.127C199.879 387.191 197.782 390.194 194.338 389.134C192.531 388.58 191.094 387.066 189.713 385.851L188.842 385.095C191.043 392.427 192.545 400.012 192.62 407.642C192.625 408.056 192.26 408.365 191.861 408.376C190.926 408.404 189.924 408.213 188.987 407.836C188.934 407.833 188.882 407.829 188.826 407.82C187.224 407.576 185.741 406.992 184.436 406.138C184.729 407.087 184.855 408.104 184.765 409.164C184.742 409.422 184.333 409.508 184.277 409.223C183.554 405.545 179.219 402.73 175.453 403.397C171.41 404.113 168.405 407.504 167.64 411.388C166.819 415.561 168.268 420.409 171.007 423.661C172.267 425.16 173.933 426.417 175.921 426.749C176.83 426.899 177.776 426.859 178.663 426.613C179.04 426.506 179.394 426.356 179.754 426.215C180.278 426.012 180.89 425.986 181.385 425.771C182.509 425.287 183.624 426.313 183.046 427.438C182.544 428.42 182.094 429.081 181.269 429.583C181.926 430.387 182.517 431.504 182.738 431.804C183.863 433.331 185.006 434.774 186.291 436.172C187.6 437.59 189.03 438.888 190.543 440.092L191.179 440.596C192.636 441.757 193.905 442.832 194.925 444.488C195.729 445.794 194.655 447.546 193.125 447.511C188.338 447.399 184.897 443.223 182.452 439.581C182.105 439.06 181.778 438.51 181.475 437.946C181.362 438.121 181.237 438.285 181.097 438.434L181.363 439.16C182.154 441.296 178.648 442.655 177.654 440.658C176.93 439.21 176.089 437.831 175.149 436.526C174.589 436.442 174.043 436.101 173.742 435.665C172.98 434.555 172.124 433.433 171.404 432.252C171.002 431.869 170.588 431.5 170.166 431.14C170.042 431.246 169.914 431.352 169.793 431.464C169.247 432.659 168.576 433.749 167.746 434.774L167.568 434.993C165.98 436.927 163.916 438.902 161.381 439.354C160.608 439.492 159.873 438.539 160.564 437.94C162.35 436.389 164.454 435.342 166.104 433.607C166.916 432.753 167.664 431.81 168.309 430.821L168.456 430.592C168.563 430.422 168.673 430.253 168.787 430.08C168.054 429.578 167.322 429.074 166.589 428.569C164.543 430.258 161.893 431.014 159.635 432.407L159.411 432.548C157.368 433.866 155.258 430.889 156.901 429.281C158.711 427.516 160.229 425.405 161.837 423.439C161.102 422.076 160.764 420.47 160.647 418.849C160.599 418.39 160.563 417.931 160.526 417.471C159.386 417.478 158.245 417.082 157.282 416.411L156.917 416.15C155.736 416.509 154.497 416.676 153.314 416.633C150.53 416.526 149.421 413.382 151.181 411.417C152.977 409.409 156.092 408.996 158.547 410.003C158.627 409.963 158.709 409.921 158.789 409.878C158.677 409.344 158.707 408.862 158.845 408.439L158.809 408.18C158.275 407.356 157.927 406.418 157.801 405.428C157.702 404.645 157.731 403.87 157.922 403.099C157.986 402.842 158.116 402.577 158.215 402.31C158.02 401.81 157.907 401.293 157.875 400.775C157.82 400.709 157.765 400.641 157.713 400.568C156.506 398.865 156.772 396.83 157.949 395.473C157.955 395.386 157.964 395.299 157.977 395.213C157.91 395.061 157.849 394.908 157.794 394.753C156.668 393.613 155.846 392.245 156.017 390.562C156.118 389.572 156.54 388.684 157.173 388.023C157.065 387.699 157.058 387.324 157.195 387.012C156.221 384.386 156.377 381.236 157.124 378.316C156.97 377.869 156.892 377.385 156.915 376.873C157.018 374.701 158.946 372.723 161.207 372.771C161.479 372.776 161.734 372.813 161.978 372.867L161.982 372.815C162.075 372.164 162.263 371.563 162.534 371.025C162.403 370.977 162.283 370.909 162.178 370.819C160.721 371.567 159.182 372.134 157.571 372.515C156.386 372.796 155.188 371.461 155.933 370.375C156.279 369.871 156.659 369.419 157.068 369.007C156.492 369.005 155.907 369.038 155.314 369.107C154.25 369.233 153.07 368.507 152.389 367.534C151.523 368.348 150.655 369.158 149.787 369.969C147.587 372.028 144.31 370.466 143.992 367.721C143.344 367.544 142.742 367.249 142.214 366.83C138.764 368.267 135.059 369.039 131.277 369.156C128.562 369.24 127.006 366.112 128.295 363.926C129.161 362.459 130.231 361.144 131.461 360.004C129.564 360.556 127.607 360.948 125.61 361.192C124.531 361.324 123.015 360.43 122.592 359.451C120.977 355.686 121.155 351.779 123.091 348.15C123.165 348.006 123.249 347.868 123.33 347.729C123.531 347.248 123.75 346.773 123.986 346.306C121.671 343.883 121.503 340.311 122.791 337.335C122.293 336.523 122.109 335.549 122.461 334.673C123.463 332.151 124.895 329.827 126.694 327.837C126.527 327.511 126.38 327.165 126.258 326.794C125.284 323.79 126.479 320.188 128.84 318.125C130.324 316.825 132.023 316.055 133.834 315.568C134.607 314.251 135.597 313.065 136.746 312.069C136.791 311.974 136.836 311.879 136.887 311.784C138.692 308.509 141.94 306.775 145.407 306.4C145.554 305.114 146.447 303.893 147.731 303.506C148.094 302.396 148.63 301.336 149.362 300.377C150.513 298.866 152.408 298.167 154.179 299.182C155.149 299.738 156.077 300.374 156.945 301.077C157.34 300.899 157.787 300.786 158.29 300.753L158.417 300.747L161.315 300.629C162.533 300.112 163.748 299.568 164.966 299.038C165.7 298.452 166.519 297.965 167.409 297.606C168.418 297.202 169.448 296.978 170.479 296.909C171.319 296.648 172.164 296.419 173.024 296.242C175.043 295.827 177.154 295.604 179.245 295.645C179.293 295.112 179.319 294.573 179.32 294.027L179.319 293.753C179.288 292.003 180.72 290.619 182.394 290.386ZM179.032 430.394C178.743 430.452 178.452 430.499 178.161 430.531C178.247 430.746 178.333 430.961 178.416 431.176C178.65 431.308 178.887 431.435 179.124 431.553C179.057 431.158 179.02 430.762 179.032 430.394ZM163.984 425.834L163.785 426.187C163.753 426.244 163.721 426.301 163.69 426.357C164.105 426.329 164.522 426.342 164.932 426.392L164.932 426.349C164.879 426.331 164.826 426.314 164.776 426.29C164.494 426.153 164.231 426 163.984 425.834ZM172.293 409.755C174.89 409.928 177.088 410.342 179.441 411.484L179.643 411.584C181.721 412.625 185.157 414.544 184.841 417.246C184.751 418.014 184.177 418.819 183.284 418.75C180.839 418.562 179.464 416.118 177.822 414.587C176.166 413.043 174.127 411.453 172.114 410.384C171.829 410.233 171.946 409.766 172.258 409.754L172.293 409.755ZM160.849 374.006C160.226 374.02 160.429 374.618 160.753 374.123C160.78 374.083 160.813 374.043 160.849 374.006ZM194.838 334.542C188.94 334.639 182.972 338.012 178.521 341.437C174.649 344.416 171.297 347.971 168.321 351.81C167.547 353.728 166.879 355.687 166.312 357.662C165.938 358.967 165.699 360.286 165.384 361.603L165.286 362.006C165.045 362.441 164.864 362.91 164.73 363.395C165.261 363.929 165.952 364.315 166.715 364.501C166.961 364.562 167.164 364.689 167.325 364.856C167.95 363.85 168.498 362.787 168.822 361.658L168.834 361.606C170.035 359.708 171.338 357.871 172.733 356.098C176.581 351.201 180.809 346.746 185.876 343.053C189.718 340.254 194.004 338.073 198.553 336.673C197.451 335.78 196.197 335.071 194.838 334.542Z" fill="black"/>
<path fill-rule="evenodd" clip-rule="evenodd" d="M245.994 432.983C249.488 433.016 250.962 433.589 253.223 434.923C255.484 436.258 257.898 437.973 258.448 440.513C258.962 442.88 257.885 445.171 255.541 446.05C254.23 446.541 239.166 447.578 236.804 447.71C234.441 447.842 232.189 447.63 230.688 446.07C226.808 442.039 232.298 436.913 235.793 435.035C238.913 433.356 242.5 432.95 245.994 432.983ZM245.16 435.669C242.532 435.644 238.208 437.492 238.199 438.412C238.191 439.332 250.748 438.538 251.025 437.754C251.301 436.969 247.788 435.694 245.16 435.669ZM247.383 414.606C249.593 415.955 252.95 419.083 250.527 422.353C247.685 425.228 243.665 421.862 241.682 420.338C239.842 419.154 237.733 422.134 239.438 423.512C253.767 434.149 259.805 415.071 248.522 413.056C247.279 412.833 246.804 414.19 247.383 414.606ZM222.398 402.333C226.21 399.622 231.853 401.79 232.745 406.097C233.39 406.438 233.738 406.975 233.808 407.756L233.825 407.952V407.952C233.908 408.88 233.06 409.749 232.218 409.986C231.271 410.252 230.525 410.102 229.652 409.7C228.815 409.313 228.533 408.238 228.693 407.424L228.708 407.356C228.942 406.346 228.067 405.356 227.182 404.946C226.183 404.484 225.055 404.757 224.176 405.349C223.201 406.005 222.385 407.136 222.102 408.268L222.073 408.385C221.849 409.363 221.67 411.199 222.632 411.771C222.802 411.872 222.678 412.098 222.501 412.067C220.404 411.693 219.164 410.439 219.173 408.217C219.181 405.864 220.488 403.691 222.398 402.333ZM257.266 401.883C261.06 400.601 265.754 404.186 264.259 408.262C263.277 410.938 259.589 409.826 259.959 407.138L259.971 407.056C260.204 405.658 259.131 404.987 257.804 405.434C255.837 406.097 254.751 409.114 255.653 410.89C255.763 411.108 255.446 411.288 255.317 411.078L255.193 410.878C254.183 409.263 253.258 408.068 253.615 406.021C253.943 404.133 255.431 402.503 257.266 401.883ZM249.691 392.076C249.683 391.896 249.878 391.776 250.043 391.818C251.384 392.163 252.591 393.135 253.809 393.77C255.138 394.462 256.501 395.025 257.948 395.441C259.357 395.847 260.784 396.056 262.253 396.058C263.843 396.06 265.404 395.488 266.963 395.552C269.306 395.647 270.499 399.008 268.18 400.137C264.802 401.781 259.829 400.516 256.573 399.092C253.952 397.945 249.832 395.256 249.691 392.076ZM232.61 392.68C233.851 391.14 236.333 391.07 237.404 392.909C238.511 394.809 237.141 396.69 235.226 397.062C231.724 398.562 228.141 399.7 224.327 400.15L223.811 400.209C220.492 400.574 216.305 400.751 213.324 399.219C213.032 399.069 213.125 398.63 213.42 398.551C215.113 398.092 217.004 398.111 218.744 397.816C220.399 397.536 222.041 397.224 223.654 396.759C226.842 395.841 229.866 394.514 232.61 392.68Z" fill="black"/>
<path fill-rule="evenodd" clip-rule="evenodd" d="M236.088 439.193C236.088 439.193 239.122 434.446 244.04 434.493C248.957 434.54 254.627 437.108 254.217 438.3C253.999 438.936 249.409 440.697 241.78 440.696C239.888 440.695 236.088 439.193 236.088 439.193Z" stroke="#22252B" stroke-width="1.5"/>
<ellipse cx="227.823" cy="417.965" rx="8.5" ry="3.5" transform="rotate(-9.72758 227.823 417.965)" fill="#FF6363" fill-opacity="0.37"/>
<ellipse cx="261.497" cy="415.535" rx="5.12503" ry="3.5" transform="rotate(-9.72758 261.497 415.535)" fill="#FF6363" fill-opacity="0.37"/>
<path fill-rule="evenodd" clip-rule="evenodd" d="M279.296 483.95C278.721 483.682 278.214 483.294 277.83 482.83C277.446 482.365 277.2 481.841 277.117 481.314C277.063 480.943 277.096 480.58 277.213 480.247C277.33 479.914 277.53 479.618 277.8 479.376C278.071 479.133 278.406 478.95 278.785 478.838C279.165 478.725 279.582 478.685 280.011 478.719C294.607 479.725 306.803 473.725 311.838 463.062C316.881 452.384 313.76 439.145 303.686 428.505C303.386 428.196 303.152 427.848 302.997 427.483C302.842 427.118 302.769 426.743 302.783 426.38C302.797 426.017 302.898 425.674 303.079 425.371C303.26 425.068 303.518 424.811 303.837 424.615C304.502 424.226 305.367 424.106 306.25 424.282C307.132 424.458 307.963 424.916 308.565 425.558C320.357 438.018 324.023 453.527 318.119 466.028C312.226 478.507 297.934 485.535 280.835 484.359C280.313 484.324 279.786 484.184 279.296 483.95V483.95Z" fill="#FF6363"/>
<path fill-rule="evenodd" clip-rule="evenodd" d="M275.541 472.82C274.988 472.56 274.502 472.183 274.139 471.732C273.776 471.282 273.549 470.775 273.483 470.267C273.396 469.605 273.603 468.985 274.061 468.533C274.318 468.277 274.643 468.08 275.018 467.953C275.392 467.827 275.807 467.774 276.238 467.798C286.165 468.38 294.843 464.248 298.374 456.772C301.907 449.291 299.575 439.95 292.806 432.643C292.527 432.347 292.309 432.017 292.166 431.671C292.022 431.325 291.956 430.97 291.97 430.626C291.985 430.283 292.08 429.958 292.25 429.67C292.42 429.383 292.662 429.138 292.962 428.95C293.395 428.68 293.931 428.535 294.509 428.531C295.088 428.526 295.685 428.663 296.236 428.925C296.716 429.152 297.135 429.459 297.484 429.828C301.592 434.254 304.377 439.366 305.531 444.595C306.685 449.823 306.162 454.962 304.02 459.438C301.928 463.931 298.298 467.596 293.534 470.025C288.771 472.455 283.062 473.553 277.042 473.197C276.536 473.174 276.02 473.044 275.541 472.82V472.82Z" fill="#FF6363"/>
<path fill-rule="evenodd" clip-rule="evenodd" d="M276.145 459.882C275.175 459.424 274.508 458.473 274.459 457.469C274.357 455.967 275.559 454.75 277.135 454.74C280.346 454.739 283.134 453.039 284.421 450.313C285.71 447.584 285.244 444.343 283.209 441.865C282.217 440.651 282.391 438.943 283.6 438.065C284.439 437.458 285.562 437.37 286.545 437.835C286.959 438.03 287.319 438.305 287.608 438.655C291.013 442.802 291.788 448.215 289.634 452.775C287.48 457.336 282.809 460.172 277.45 460.176C277.013 460.175 276.563 460.073 276.145 459.882V459.882Z" fill="#FF6363"/>
</svg>
